%
T1C.01F095S3
X0151Y01955
X0185Y0205
X023934Y021193
X024684Y021193
X025434Y021193
X02565Y022028
X026684Y021593
X027284Y021743
X027584Y021043
X028084Y021043
X028534Y020993
X028684Y021793
X028934Y021793
X030084Y020993
X030934Y022043
X033034Y020043
X034284Y020043
X052034Y022503
X052034Y024003
X052034Y024503
X050941Y023503
X050941Y023003
X050034Y022503
X050034Y024003
X050034Y024503
X048941Y023503
X048934Y024134
X048934Y024384
X047134Y023643
X047084Y022218
X044934Y022543
X03625Y02405
X036234Y022943
X030934Y024293
X030934Y024043
X030934Y022293
X030534Y022393
X030534Y022643
X029334Y022093
X029084Y022093
X028984Y024443
X028984Y024043
X028584Y024443
X028584Y024043
X028184Y024043
X028184Y024443
X028089Y022293
X028089Y022093
X027892Y022993
X027784Y024443
X027784Y024043
X027695Y022293
X027695Y022093
X027498Y022993
X027334Y022293
X027084Y022293
X026908Y022993
X026809Y023954
X026809Y023364
X026784Y024545
X026711Y022093
X026711Y022293
X026334Y022093
X026084Y022993
X025984Y023193
X025884Y022993
X025784Y023193
X024684Y023193
X024034Y023143
X023584Y023193
X023284Y022443
X022984Y022643
X02435Y02595
X02475Y02655
X025884Y025893
X025884Y026143
X026784Y025726
X026809Y025135
X027695Y027043
X027784Y025243
X027784Y024843
X027892Y026293
X028084Y026943
X028184Y025243
X028184Y024843
X028584Y024843
X028584Y025243
X028984Y024843
X028984Y025243
X029984Y024743
X030284Y026893
X030834Y025181
X030834Y024931
X030984Y026743
X030984Y026493
X031134Y024693
X031384Y024693
X031484Y025943
X031484Y025693
X032234Y024993
X032634Y025378
X033484Y024709
X048941Y026503
X048941Y025003
X050034Y024984
X050034Y026484
X050034Y026003
X050284Y026484
X050284Y024984
X050941Y025503
X050941Y025003
X050941Y027003
X052034Y026503
X052034Y026003
X052034Y026984
X052284Y026984
X052284Y028984
X052034Y028984
X052034Y028003
X052034Y028503
X050941Y028503
X050934Y027634
X050934Y027884
X050934Y029384
X050934Y029134
X050284Y027984
X050284Y029484
X050034Y027984
X050034Y029484
X050034Y029003
X050034Y027503
X048941Y028003
X048941Y029503
X043034Y027643
X042634Y027943
X042134Y027943
X041634Y027943
X041134Y027943
X040634Y027943
X040134Y027943
X039634Y027943
X039134Y027943
X038634Y027943
X038134Y027943
X037134Y027943
X036634Y027943
X036134Y027943
X035634Y027943
X035134Y027943
X034634Y027943
X034134Y027943
X033634Y027943
X033134Y027943
X032634Y027943
X030284Y027143
X029884Y027643
X029884Y027393
X029584Y027993
X029334Y027993
X028304Y027343
X028084Y027193
X027834Y027343
X027684Y029443
X027134Y029493
X02695Y02725
X02475Y02765
X0185Y02745
X0151Y0284
X020984Y031734
X027734Y031265
X027784Y029743
X027784Y030959
X027809Y030143
X027809Y030498
X028684Y029593
X028984Y030243
X030027Y029893
X030034Y030493
X030034Y031521
X030034Y031009
X030234Y030754
X030234Y031777
X030234Y031265
X030934Y029593
X044234Y032043
X048941Y031003
X050034Y030493
X050034Y031003
X050034Y032003
X050934Y030634
X050934Y030884
X050941Y031503
X050941Y030003
X052034Y030984
X052034Y030503
X052034Y030003
X052034Y032003
X052284Y030984
X052034Y033003
X052034Y033503
X052034Y032503
X052034Y034003
X052034Y034503
X050941Y033503
X050941Y034003
X050941Y034503
X050941Y033003
X050934Y032134
X050934Y032384
X05005Y033
X050034Y034003
X050034Y034503
X050034Y033503
X050034Y032503
X048941Y034503
X048941Y033503
X048941Y032503
X048941Y034003
X045584Y034343
X045384Y033793
X045184Y032993
X044634Y034093
X044634Y032243
X044534Y033343
X044534Y033043
X042309Y033393
X042284Y034393
X041559Y033393
X040784Y033393
X040059Y033393
X038734Y032743
X038184Y032493
X037684Y034493
X037434Y032493
X037184Y032993
X037084Y034543
X036684Y032493
X035934Y032493
X035184Y032493
X0344Y0337
X03395Y03305
X03355Y0328
X0335Y0337
X03305Y033
X03045Y03235
X0301Y0341
X0301Y03375
X0301Y03445
X029084Y033893
X029084Y033593
X029034Y032801
X028834Y032545
X028134Y032593
X027934Y034361
X027834Y032793
X027784Y032293
X027734Y034105
X0266Y03385
X0264Y0344
X026Y0333
X0246Y03425
X02415Y03425
X023484Y03425
X023Y03425
X020984Y032403
X020184Y032443
X0151Y034393
X019034Y036243
X022384Y0368
X024684Y035743
X0253Y0368
X02575Y03495
X02605Y03495
X02645Y03505
X02665Y0348
X0277Y0365
X0277Y03605
X027734Y034617
X027734Y034873
X0279Y03625
X0285Y03675
X02875Y03695
X028934Y035143
X028984Y036408
X029134Y036152
X030084Y035143
X030434Y035793
X030664Y036593
X030934Y036986
X031104Y036593
X031734Y036593
X032034Y035593
X032034Y034893
X032134Y036593
X032134Y036993
X033484Y035743
X033984Y034893
X033984Y036393
X033984Y035643
X0363Y03495
X036484Y035643
X03655Y0348
X036834Y034743
X037234Y036293
X037234Y036643
X037234Y036993
X037584Y036293
X037584Y036643
X037584Y036993
X037934Y036293
X037934Y036643
X037934Y036993
X038284Y036643
X038284Y036993
X038284Y036293
X038284Y035143
X038584Y035143
X038684Y034643
X038934Y035643
X039384Y034593
X039684Y036793
X040534Y035093
X040534Y036593
X04205Y0349
X0421Y0359
X0421Y0354
X043284Y035893
X043384Y035043
X043384Y034693
X043434Y036143
X044584Y036164
X045634Y035093
X045634Y035652
X045769Y036193
X045784Y035393
X046234Y036193
X046984Y036193
X048934Y036003
X048934Y036503
X048941Y035503
X048941Y037003
X050034Y036003
X050034Y035503
X050034Y035003
X050034Y036503
X050041Y037003
X050934Y037003
X050934Y035503
X050941Y036003
X052034Y035003
X052034Y035503
X052034Y036003
X052034Y036503
X0529Y0395
X0521Y0395
X052034Y038003
X052034Y038503
X050934Y037503
X050041Y037503
X050034Y038003
X050034Y039503
X048941Y038503
X048934Y038003
X048934Y037503
X048934Y039003
X048934Y039503
X0471Y03805
X040434Y038643
X038934Y038643
X038284Y037343
X037934Y037343
X037584Y037343
X037534Y038743
X037269Y038893
X037234Y037343
X036934Y038743
X0366Y038893
X034375Y038293
X03395Y0391
X033934Y037143
X033584Y037743
X033334Y038777
X033334Y038265
X033184Y039493
X033184Y038009
X033184Y037498
X033184Y038521
X032084Y038793
X03185Y038543
X0316Y03825
X03135Y038
X031134Y037243
X03095Y0378
X030934Y039043
X030934Y037498
X0297Y0384
X0297Y0376
X0297Y038
X029084Y038843
X027034Y038843
X026834Y038093
X026584Y038093
X025884Y039493
X025484Y0371
X0252Y0388
X022584Y0371
X020184Y037702
X020184Y038452
X015084Y038493
X019034Y040543
X024434Y040993
X024434Y041743
X024434Y040343
X0262Y04175
X026234Y039843
X026484Y041454
X026534Y040143
X026584Y041643
X026684Y041454
X026734Y040793
X026734Y040493
X026784Y041643
X027034Y040793
X027034Y040493
X027584Y041843
X027584Y041343
X027684Y040093
X027684Y040393
X027884Y040543
X027884Y040243
X028084Y041843
X028084Y041343
X028434Y040193
X028434Y040443
X028684Y041843
X028684Y041343
X028884Y040043
X028884Y040293
X029184Y041843
X029184Y041343
X029734Y040793
X029734Y040543
X029784Y039993
X029784Y039743
X030034Y040793
X030034Y040543
X030284Y041293
X030284Y041043
X030284Y040743
X030384Y040393
X030384Y040143
X030534Y040743
X030984Y039593
X030984Y041193
X032434Y042043
X032434Y041793
X033184Y039793
X034284Y04105
X036234Y039643
X0368Y04035
X03735Y04035
X0379Y04035
X03845Y04035
X038934Y040143
X039684Y040143
X040434Y040143
X04715Y04075
X048941Y042003
X048941Y040003
X048941Y041503
X050034Y041003
X050034Y041503
X050034Y042003
X050941Y042003
X050941Y041003
X050941Y040003
X050941Y040503
X050941Y041503
X052034Y041503
X052034Y041003
X052034Y042003
X052034Y040003
X0521Y0405
X0529Y0405
X052584Y043743
X051234Y044143
X0469Y0424
X042834Y043093
X041884Y044193
X041884Y043093
X040584Y043093
X040584Y044193
X040034Y044193
X039734Y043093
X039434Y044193
X038884Y044193
X038884Y043093
X037934Y043093
X035484Y043093
X034634Y043093
X033484Y043093
X032934Y043093
X032384Y043093
X030534Y043693
X030384Y043143
X030384Y043393
X030384Y044243
X030384Y043993
X030284Y043693
X030034Y043793
X030034Y043493
X029734Y043793
X029734Y043493
X029184Y042943
X029184Y042443
X029134Y044293
X028884Y044293
X028684Y042943
X028684Y043793
X028684Y042443
X028684Y043993
X028084Y042943
X028084Y042443
X027684Y044043
X027684Y043843
X027584Y042943
X027584Y042443
X027384Y044543
X027034Y043493
X027034Y043793
X026784Y042832
X026734Y043793
X026734Y043493
X026584Y042832
X026434Y044043
X026234Y042493
X026134Y044343
X026034Y042493
X025534Y042093
X02465Y04305
X024634Y044093
X024434Y042493
X020184Y043693
X020184Y044443
X0151Y046343
X02445Y04605
X02525Y04525
X025834Y044643
X026184Y047018
X026684Y045943
X026684Y046243
X026689Y046693
X027234Y045743
X027434Y045243
X027684Y045143
X027834Y046743
X030084Y047009
X030134Y045893
X030234Y046743
X030984Y045543
X032484Y045993
X032484Y045243
X034284Y046493
X036984Y045593
X041034Y045943
X041284Y046593
X041534Y046243
X051234Y045043
X051259Y045768
X051284Y046593
X052184Y046343
X052484Y046343
X05305Y0446
X0531Y04505
X0531Y04575
X053159Y046693
X053134Y047743
X052734Y047068
X052734Y047415
X051812Y047793
X051259Y047265
X0416Y0494
X0379Y04935
X0379Y04785
X03715Y04935
X0364Y04935
X0364Y04785
X03565Y04935
X0349Y04935
X0349Y04785
X03415Y04935
X034034Y047293
X030084Y048033
X028984Y048901
X028984Y048545
X02825Y04795
X02825Y0471
X027809Y048801
X027784Y048289
X026784Y047204
X026784Y047521
X02655Y04825
X0262Y0474
X015084Y050493
X020134Y050452
X020134Y049702
X024684Y051693
X024734Y051243
X028829Y051493
X029334Y051993
X030463Y051793
X031309Y051743
X032044Y051493
X032484Y050943
X032734Y051343
X034584Y050543
X034934Y050293
X036634Y051265
X03665Y0517
X038784Y051143
X038784Y051693
X042434Y049943
X047059Y051228
X048941Y051062
X050034Y050062
X050034Y051562
X050941Y051062
X050941Y050562
X052034Y050062
X052034Y051562
X052284Y054543
X052034Y052062
X052034Y053562
X052034Y054062
X052034Y054543
X050941Y052562
X050941Y053062
X050934Y054543
X050934Y053693
X050934Y053943
X050284Y052543
X050284Y054043
X050034Y053543
X050034Y052062
X050034Y052543
X050034Y054043
X048941Y054062
X048934Y052543
X039134Y054543
X039134Y053943
X038834Y053443
X038784Y054543
X038784Y053943
X038534Y054243
X038534Y053443
X03825Y0527
X0377Y05285
X0374Y05285
X037034Y053443
X032734Y052571
X031309Y054518
X028784Y052743
X027984Y053093
X027934Y053393
X026984Y054143
X026934Y052793
X026684Y053884
X026684Y053272
X026684Y053593
X025484Y052793
X0254Y05415
X024334Y052893
X023934Y052393
X020134Y055752
X020134Y056502
X021384Y054643
X021884Y055752
X0266Y05665
X026684Y055164
X02755Y05665
X027934Y055143
X029309Y054993
X030284Y056693
X030934Y054893
X032284Y056693
X035634Y055893
X036664Y056743
X036984Y057043
X037384Y055893
X037784Y055543
X038134Y054643
X038184Y055563
X039809Y055643
X040784Y055443
X041084Y056743
X042284Y056743
X042334Y055478
X048941Y055562
X050034Y056543
X050034Y055043
X050034Y055543
X050284Y055543
X050934Y056693
X050934Y055443
X050934Y056943
X050934Y055193
X050941Y056062
X052034Y055562
X052034Y056543
X052034Y056062
X052284Y056543
X052034Y057562
X052034Y058062
X052034Y058693
X052034Y058943
X050941Y057562
X050941Y059062
X050284Y058543
X050034Y058043
X050034Y058543
X050034Y059543
X048941Y058562
X048941Y057062
X042184Y058643
X041705Y059493
X0417Y0583
X0417Y05855
X0417Y0592
X0417Y0589
X0407Y0588
X040684Y059268
X039434Y058393
X038534Y057593
X036734Y057343
X034659Y057268
X034184Y057793
X033865Y057393
X03385Y05775
X0332Y05935
X0332Y05875
X032704Y057393
X03184Y057393
X031834Y058543
X031434Y058213
X030679Y057393
X0264Y05705
X015084Y058402
X019784Y061243
X027584Y061593
X02765Y0607
X027834Y061593
X02935Y0602
X029984Y061993
X03Y06115
X03Y061743
X03Y06145
X032309Y059885
X032434Y060643
X0332Y05975
X033534Y061043
X034384Y061893
X035484Y060593
X036484Y061093
X0365Y06015
X037584Y061193
X037584Y061543
X039834Y05991
X039884Y060618
X0407Y05975
X041434Y060618
X048934Y061543
X048941Y060062
X050034Y061062
X050034Y060043
X050034Y061543
X050284Y060043
X050284Y061543
X050934Y059693
X050934Y060543
X050934Y059943
X052034Y061562
X052034Y059562
X052034Y060062
X052034Y060543
X052284Y060543
X05205Y06255
X052034Y062062
X052034Y063062
X052034Y064062
X052034Y063562
X05095Y06305
X050941Y062062
X050941Y063562
X050934Y062562
X050034Y063562
X050034Y064062
X050034Y062562
X050034Y063062
X048941Y063062
X042434Y064293
X041684Y064293
X029784Y063943
X029784Y064193
X029534Y064493
X029234Y064493
X028734Y062743
X028684Y063743
X028384Y063993
X027884Y064343
X027884Y064143
X027334Y064293
X027334Y064043
X027134Y064193
X027134Y064443
X0267Y0626
X026534Y064443
X026234Y064443
X025984Y063993
X025784Y063793
X0256Y0636
X0248Y0628
X024134Y064393
X020134Y062402
X015084Y062493
X019784Y065393
X023934Y065793
X023934Y066543
X023934Y065043
X025034Y066143
X025534Y066443
X025684Y065693
X025734Y066443
X025884Y065393
X025984Y066843
X026034Y065593
X026184Y065393
X026234Y064743
X026234Y066843
X026284Y065593
X026534Y064743
X027084Y066443
X027084Y065343
X027084Y065843
X027084Y066943
X027584Y065343
X027584Y065843
X027584Y066443
X027584Y066943
X028184Y066443
X028184Y065843
X028184Y065343
X028184Y066943
X028684Y065343
X028684Y065843
X028684Y066443
X028684Y066943
X029234Y064793
X029534Y064793
X029834Y064943
X029834Y064593
X029834Y065193
X029934Y065793
X029934Y066043
X040184Y066143
X040184Y066643
X0427Y06665
X0427Y06615
X043784Y064693
X043784Y065343
X04425Y06615
X04425Y06665
X047034Y066693
X048941Y064562
X048941Y066062
X050034Y065562
X050034Y064562
X050034Y065062
X050034Y066562
X050941Y065062
X050941Y064562
X050941Y065562
X052034Y066562
X052034Y065062
X052034Y064562
X052034Y065562
X052034Y066062
X0529Y06805
X0529Y06705
X05235Y06805
X05235Y06705
X052034Y068562
X052034Y067562
X050941Y067062
X050941Y068062
X050941Y069062
X05005Y06905
X050034Y067062
X050034Y068562
X048941Y067562
X048934Y069062
X048084Y068943
X047034Y068843
X04375Y0684
X04275Y06765
X040384Y069193
X03885Y069268
X038019Y069268
X031084Y067443
X031084Y067193
X029884Y068193
X029884Y067593
X029884Y067943
X029534Y067493
X029534Y067793
X029234Y067793
X029234Y067493
X028984Y068643
X028984Y068393
X028234Y068193
X028234Y067993
X027634Y068443
X027634Y068143
X027589Y067793
X027384Y067993
X027084Y068243
X027084Y069493
X027084Y067993
X026734Y068993
X026534Y067493
X026534Y067793
X026234Y067793
X026234Y067493
X026034Y068043
X025634Y068443
X025284Y068793
X024184Y067893
X023934Y067293
X020184Y068402
X019769Y067243
X0151Y070302
X026734Y069693
X028234Y069743
X032554Y071993
X033834Y071993
X034184Y071613
X034684Y071093
X035234Y071613
X036984Y070393
X036984Y069643
X041559Y069643
X042309Y069643
X045934Y070793
X046234Y071793
X0469Y07155
X047034Y070243
X04725Y0705
X04745Y0708
X04755Y0713
X04895Y06955
X050034Y069562
X052034Y069562
X0416Y075
X0416Y07615
X041134Y076743
X041114Y075593
X039059Y075884
X038409Y075102
X037937Y076268
X036768Y075693
X036762Y076043
X036759Y076793
X035134Y075018
X035134Y076143
X034684Y073493
X034684Y073778
X034609Y076693
X034584Y075543
X032659Y076643
X032634Y075693
X032559Y07614
X031918Y075093
X031437Y076268
X030318Y075793
X030318Y076743
X030309Y07614
X027784Y076993
X027434Y076493
X027434Y076143
X027434Y074793
X027434Y075093
X02635Y0723
X02635Y0735
X020184Y074443
X019769Y073293
X015084Y074493
X017034Y079393
X019934Y079543
X021259Y077893
X021484Y079543
X023184Y077893
X023634Y078793
X024284Y078343
X025134Y078743
X025784Y078093
X026965Y078143
X028709Y077268
X030429Y078243
X03105Y077393
X032184Y077893
X032834Y077918
X035159Y077268
X03665Y07825
X038134Y078293
X038309Y077443
X039134Y077143
X034749Y080143
X033809Y080493
X033459Y081143
X032309Y080493
X031684Y080843
X027834Y080143
X027734Y081493
X027584Y081043
X027334Y080493
X027084Y080743
X026684Y080143
X026584Y081343
X025984Y081543
X025984Y080643
X025684Y079943
X025434Y079943
X025134Y079843
X025134Y080593
X024784Y081793
X023934Y080643
X023884Y081343
X023834Y079893
X023189Y081893
X023134Y081198
X023034Y080743
X020684Y081743
X020684Y081493
X020584Y080543
X018784Y080343
X018784Y080593
X017234Y081643
X014784Y080518
X014784Y080018
X014784Y084268
X015084Y083343
X015934Y083743
X016809Y083643
X017184Y084268
X017584Y083643
X018334Y083643
X019084Y083643
X020284Y082543
X020734Y082793
X023034Y082993
X023084Y082543
X023084Y083693
X023184Y082143
X023284Y083943
X023734Y083343
X023884Y082343
X024184Y083493
X024434Y083493
X025033Y082693
X025584Y084093
X025834Y084093
X026034Y082343
X026884Y082293
X027084Y084093
X027384Y084093
X027984Y082293
X028684Y082543
X028934Y082743
X029184Y082982
X0311Y08385
X03145Y08385
X0317Y0825
X0318Y08385
X03205Y0825
X0324Y0825
X043684Y085493
X043284Y084893
X042034Y085843
X040634Y087293
X040067Y087293
X039477Y087293
X038886Y087293
X027609Y085643
X027534Y088243
X026859Y085643
X026834Y088243
X026109Y085643
X025359Y085643
X024684Y084993
X023884Y085743
X022334Y085018
X019934Y087993
X019284Y086793
X019234Y087993
X018884Y087193
X018434Y086893
X018034Y086493
X018019Y088043
X017184Y084768
X016934Y089018
X016434Y087493
X015059Y087293
T2C.035F197S55
X035884Y088193
X035884Y087193
T3C.037F197S55
X037184Y02355
X037184Y02255
X038184Y02355
X038184Y02255
X039184Y02355
X039184Y02255
X040184Y02255
X040184Y02355
X041184Y02255
X041184Y02355
X042184Y02255
X042184Y02355
X043184Y02255
X043184Y02355
X034684Y084843
X034684Y085843
X033684Y084843
X033684Y085843
X032684Y084843
X032684Y085843
X031684Y085843
X031684Y084843
X030684Y085843
X030684Y084843
X029684Y085843
X029684Y084843
X028684Y085843
X028684Y084843
T4C.05F107S55
X049287Y042954
X050487Y021545
X050487Y049104
X049287Y070513
T5C.05118F107S55
X037705Y086998
X043414Y086998
X04365Y088946
X037469Y088946
T6C.062F089S55
X011934Y019952
X011934Y021952
X011934Y025952
X012934Y026952
X012934Y020952
X013934Y021952
X013934Y019952
X013934Y025952
X013934Y027952
X013934Y031952
X013934Y033952
X012934Y032952
X011934Y027952
X011934Y033952
X011934Y031952
X011934Y037952
X011934Y039952
X011934Y043952
X012934Y038952
X013934Y039952
X013934Y037952
X013934Y043952
X013934Y045952
X013934Y051952
X013934Y049952
X012934Y050952
X012934Y044952
X011934Y051952
X011934Y045952
X011934Y049952
X011934Y055952
X011934Y057952
X011934Y061952
X012934Y056952
X013934Y057952
X013934Y055952
X013934Y061952
X013934Y063952
X013934Y067952
X012934Y062952
X012934Y068952
X011934Y063952
X011934Y067952
X011934Y069952
X011934Y073952
X011934Y075952
X012934Y074952
X013934Y073952
X013934Y069952
X013934Y075952
X013934Y079952
X013934Y081952
X013934Y085952
X012934Y080952
X012934Y086952
X011934Y079952
X011934Y085952
X011934Y081952
X011934Y087952
X013934Y087952
T7C.1063F069S658
X02345Y0321
X0497Y01985
X0497Y044649
X0497Y047405
X0259Y0593
X02545Y0756
X0497Y072212
M30
