*
*
G04 PADS VX.1.2 Build Number: 698008 generated Gerber (RS-274-X) file*
G04 PC Version=2.1*
*
%IN "PC-379-396-15-C02_DIGIT"*%
*
%MOIN*%
*
%FSLAX35Y35*%
*
*
*
*
G04 PC Standard Apertures*
*
*
G04 Thermal Relief Aperture macro.*
%AMTER*
1,1,$1,0,0*
1,0,$1-$2,0,0*
21,0,$3,$4,0,0,45*
21,0,$3,$4,0,0,135*
%
*
*
G04 Annular Aperture macro.*
%AMANN*
1,1,$1,0,0*
1,0,$2,0,0*
%
*
*
G04 Odd Aperture macro.*
%AMODD*
1,1,$1,0,0*
1,0,$1-0.005,0,0*
%
*
*
G04 PC Custom Aperture Macros*
*
*
*
*
*
*
G04 PC Aperture Table*
*
%ADD012C,0.01*%
%ADD019C,0.008*%
%ADD021C,0.005*%
%ADD077C,0.08*%
%ADD095C,0.02*%
%ADD099C,0.075*%
%ADD100C,0.001*%
%ADD109C,0.07*%
%ADD112C,0.035*%
%ADD113C,0.032*%
%ADD129TER,0.07X0.0175X0.01167X0.07424*%
%ADD165C,0.05*%
%ADD242C,0.22835*%
%ADD254C,0.08465*%
%ADD282C,0.105*%
%ADD283TER,0.105X0.02625X0.0175X0.11136*%
*
*
*
*
G04 PC Circuitry*
G04 Layer Name PC-379-396-15-C02_DIGIT - circuitry*
%LPD*%
*
*
G04 PC Custom Flashes*
G04 Layer Name PC-379-396-15-C02_DIGIT - flashes*
%LPD*%
*
*
G04 PC Circuitry*
G04 Layer Name PC-379-396-15-C02_DIGIT - circuitry*
%LPD*%
*
G54D12*
G01X106843Y899524D02*
X457236D01*
Y735114*
X539913*
Y183933*
X106843*
Y899524*
X482839Y130574D02*
Y123028D01*
X486248*
X491077Y130574D02*
X488804Y123028D01*
X491077Y130574D02*
X493350Y123028D01*
X489657Y125543D02*
X492498D01*
X495907Y130574D02*
X498179Y126981D01*
Y123028*
X500452Y130574D02*
X498179Y126981D01*
X503009Y130574D02*
Y123028D01*
Y130574D02*
X506702D01*
X503009Y126981D02*
X505282D01*
X503009Y123028D02*
X506702D01*
X509259Y130574D02*
Y123028D01*
Y130574D02*
X511816D01*
X512668Y130215*
X512952Y129856*
X513236Y129137*
Y128418*
X512952Y127699*
X512668Y127340*
X511816Y126981*
X509259*
X511248D02*
X513236Y123028D01*
X525736Y129496D02*
X525452Y130215D01*
X524600Y130574*
X524032*
X523179Y130215*
X522611Y129137*
X522327Y127340*
Y125543*
X522611Y124106*
X523179Y123387*
X524032Y123028*
X524316*
X525168Y123387*
X525736Y124106*
X526020Y125184*
Y125543*
X525736Y126621*
X525168Y127340*
X524316Y127699*
X524032*
X523179Y127340*
X522611Y126621*
X522327Y125543*
X487839Y34137D02*
X488407Y34496D01*
X489259Y35574*
Y28028*
X493520Y35574D02*
X492668Y35215D01*
X492100Y34137*
X491816Y32340*
Y31262*
X492100Y29465*
X492668Y28387*
X493520Y28028*
X494089*
X494941Y28387*
X495509Y29465*
X495793Y31262*
Y32340*
X495509Y34137*
X494941Y35215*
X494089Y35574*
X493520*
X357100Y128778D02*
X356816Y129496D01*
X356248Y130215*
X355679Y130574*
X354543*
X353975Y130215*
X353407Y129496*
X353123Y128778*
X352839Y127699*
Y125903*
X353123Y124824*
X353407Y124106*
X353975Y123387*
X354543Y123028*
X355679*
X356248Y123387*
X356816Y124106*
X357100Y124824*
Y125903*
X355679D02*
X357100D01*
X359657Y130574D02*
Y123028D01*
Y130574D02*
X363634Y123028D01*
Y130574D02*
Y123028D01*
X366191Y130574D02*
Y123028D01*
Y130574D02*
X368179D01*
X369032Y130215*
X369600Y129496*
X369884Y128778*
X370168Y127699*
Y125903*
X369884Y124824*
X369600Y124106*
X369032Y123387*
X368179Y123028*
X366191*
X379259Y130574D02*
Y123028D01*
Y130574D02*
X381816D01*
X382668Y130215*
X382952Y129856*
X383236Y129137*
Y128059*
X382952Y127340*
X382668Y126981*
X381816Y126621*
X379259*
X385793Y130574D02*
Y123028D01*
X389202*
X394032Y130574D02*
X391759Y123028D01*
X394032Y130574D02*
X396304Y123028D01*
X392611Y125543D02*
X395452D01*
X398861Y130574D02*
Y123028D01*
Y130574D02*
X402839Y123028D01*
Y130574D02*
Y123028D01*
X405395Y130574D02*
Y123028D01*
Y130574D02*
X409089D01*
X405395Y126981D02*
X407668D01*
X405395Y123028D02*
X409089D01*
X418748Y130574D02*
X421873D01*
X420168Y127699*
X421020*
X421589Y127340*
X421873Y126981*
X422157Y125903*
Y125184*
X421873Y124106*
X421304Y123387*
X420452Y123028*
X419600*
X418748Y123387*
X418464Y123746*
X418179Y124465*
X537500Y118500D02*
Y138500D01*
X347500*
Y118500*
X457500Y43500D02*
Y23500D01*
X307500Y43500D02*
X537500D01*
X67500Y68500D02*
X307500D01*
Y53500D02*
X67500D01*
X307500Y118500D02*
Y23500D01*
X537500Y118500D02*
Y23500D01*
X67500*
Y118500*
X537500*
X318000Y38188D02*
Y29000D01*
Y38188D02*
X321068D01*
X321068D02*
X322091Y37750D01*
X322432Y37313*
X322432D02*
X322773Y36438D01*
X322773D02*
Y35125D01*
X322432Y34250*
X322091Y33813*
X322091D02*
X321068Y33375D01*
X318000*
X330955Y36000D02*
X330614Y36875D01*
X329932Y37750*
X329250Y38188*
X329250D02*
X327886D01*
X327886D02*
X327205Y37750D01*
X326523Y36875*
X326182Y36000*
X325841Y34688*
X325841D02*
Y32500D01*
X326182Y31188*
X326182D02*
X326523Y30313D01*
X326523D02*
X327205Y29438D01*
X327205D02*
X327886Y29000D01*
X329250*
X329932Y29438*
X329932D02*
X330614Y30313D01*
X330614D02*
X330955Y31188D01*
X334023Y32938D02*
X340159D01*
X343909Y38188D02*
X347659D01*
X347659D02*
X345614Y34688D01*
X345614D02*
X346636D01*
X346636D02*
X347318Y34250D01*
X347659Y33813*
X347659D02*
X348000Y32500D01*
Y31625*
X347659Y30313*
X347659D02*
X346977Y29438D01*
X346977D02*
X345955Y29000D01*
X344932*
X343909Y29438*
X343909D02*
X343568Y29875D01*
X343227Y30750*
X355841Y38188D02*
X352432Y29000D01*
X351068Y38188D02*
X355841D01*
X363341Y35125D02*
X363000Y33813D01*
X363000D02*
X362318Y32938D01*
X362318D02*
X361295Y32500D01*
X360955*
X359932Y32938*
X359932D02*
X359250Y33813D01*
X359250D02*
X358909Y35125D01*
Y35563*
X358909D02*
X359250Y36875D01*
X359932Y37750*
X360955Y38188*
X360955D02*
X361295D01*
X361295D02*
X362318Y37750D01*
X363000Y36875*
X363341Y35125*
Y32938*
X363341D02*
X363000Y30750D01*
X362318Y29438*
X362318D02*
X361295Y29000D01*
X360614*
X359591Y29438*
X359591D02*
X359250Y30313D01*
X366409Y32938D02*
X372545D01*
X376295Y38188D02*
X380045D01*
X380045D02*
X378000Y34688D01*
X378000D02*
X379023D01*
X379023D02*
X379705Y34250D01*
X380045Y33813*
X380045D02*
X380386Y32500D01*
Y31625*
X380045Y30313*
X380045D02*
X379364Y29438D01*
X379364D02*
X378341Y29000D01*
X377318*
X376295Y29438*
X376295D02*
X375955Y29875D01*
X375614Y30750*
X387886Y35125D02*
X387545Y33813D01*
X387545D02*
X386864Y32938D01*
X386864D02*
X385841Y32500D01*
X385500*
X384477Y32938*
X384477D02*
X383795Y33813D01*
X383795D02*
X383455Y35125D01*
Y35563*
X383455D02*
X383795Y36875D01*
X384477Y37750*
X385500Y38188*
X385500D02*
X385841D01*
X385841D02*
X386864Y37750D01*
X387545Y36875*
X387886Y35125*
Y32938*
X387886D02*
X387545Y30750D01*
X386864Y29438*
X386864D02*
X385841Y29000D01*
X385159*
X384136Y29438*
X384136D02*
X383795Y30313D01*
X395045Y36875D02*
X394705Y37750D01*
X393682Y38188*
X393682D02*
X393000D01*
X393000D02*
X391977Y37750D01*
X391295Y36438*
X391295D02*
X390955Y34250D01*
Y32063*
X390955D02*
X391295Y30313D01*
X391295D02*
X391977Y29438D01*
X391977D02*
X393000Y29000D01*
X393341*
X394364Y29438*
X394364D02*
X395045Y30313D01*
X395045D02*
X395386Y31625D01*
Y32063*
X395386D02*
X395045Y33375D01*
X394364Y34250*
X393341Y34688*
X393341D02*
X393000D01*
X393000D02*
X391977Y34250D01*
X391295Y33375*
X390955Y32063*
X398455Y32938D02*
X404591D01*
X407659Y36438D02*
X408341Y36875D01*
X409364Y38188*
X409364D02*
Y29000D01*
X416864Y38188D02*
X413455D01*
X413455D02*
X413114Y34250D01*
X413455Y34688*
X413455D02*
X414477Y35125D01*
X415500*
X416523Y34688*
X416523D02*
X417205Y33813D01*
X417205D02*
X417545Y32500D01*
X417205Y31625*
X416864Y30313*
X416864D02*
X416182Y29438D01*
X416182D02*
X415159Y29000D01*
X414136*
X413114Y29438*
X413114D02*
X412773Y29875D01*
X412432Y30750*
X420614Y32938D02*
X426750D01*
X434932Y36000D02*
X434591Y36875D01*
X433909Y37750*
X433227Y38188*
X433227D02*
X431864D01*
X431864D02*
X431182Y37750D01*
X430500Y36875*
X430159Y36000*
X429818Y34688*
X429818D02*
Y32500D01*
X430159Y31188*
X430159D02*
X430500Y30313D01*
X430500D02*
X431182Y29438D01*
X431182D02*
X431864Y29000D01*
X433227*
X433909Y29438*
X433909D02*
X434591Y30313D01*
X434591D02*
X434932Y31188D01*
X440045Y38188D02*
X439023Y37750D01*
X438341Y36438*
X438341D02*
X438000Y34250D01*
Y32938*
X438000D02*
X438341Y30750D01*
X439023Y29438*
X439023D02*
X440045Y29000D01*
X440727*
X441750Y29438*
X441750D02*
X442432Y30750D01*
X442773Y32938*
X442773D02*
Y34250D01*
X442432Y36438*
X442432D02*
X441750Y37750D01*
X440727Y38188*
X440727D02*
X440045D01*
X446182Y36000D02*
Y36438D01*
X446182D02*
X446523Y37313D01*
X446523D02*
X446864Y37750D01*
X447545Y38188*
X447545D02*
X448909D01*
X448909D02*
X449591Y37750D01*
X449932Y37313*
X449932D02*
X450273Y36438D01*
X450273D02*
Y35563D01*
X450273D02*
X449932Y34688D01*
X449932D02*
X449250Y33375D01*
X445841Y29000*
X450614*
X75500Y47406D02*
Y41500D01*
Y47406D02*
X78455D01*
X75500Y44594D02*
X77318D01*
X75500Y41500D02*
X78455D01*
X80500Y47406D02*
Y41500D01*
Y47406D02*
X83682Y41500D01*
Y47406D02*
Y41500D01*
X89136Y46000D02*
X88909Y46563D01*
X88909D02*
X88455Y47125D01*
X88000Y47406*
X87091*
X86636Y47125*
X86182Y46563*
X86182D02*
X85955Y46000D01*
X85727Y45156*
Y43750*
X85955Y42906*
X86182Y42344*
X86636Y41781*
X87091Y41500*
X88000*
X88455Y41781*
X88909Y42344*
X89136Y42906*
Y43750*
X88000D02*
X89136D01*
X91182Y47406D02*
Y41500D01*
Y47406D02*
X93227D01*
X93909Y47125*
X94136Y46844*
X94364Y46281*
Y45719*
X94136Y45156*
X93909Y44875*
X93227Y44594*
X91182*
X92773D02*
X94364Y41500D01*
X96636Y45438D02*
X96409Y45156D01*
X96636Y44875*
X96864Y45156*
X96636Y45438*
Y42063D02*
X96409Y41781D01*
X96636Y41500*
X96864Y41781*
X96636Y42063*
X115500Y34906D02*
Y29000D01*
X118682Y34906D02*
X115500Y30969D01*
X116636Y32375D02*
X118682Y29000D01*
X120955Y29563D02*
X120727Y29281D01*
X120955Y29000*
X121182Y29281*
X120955Y29563*
X128455Y34906D02*
Y29000D01*
Y34906D02*
X130500D01*
X131182Y34625*
X131409Y34344*
X131636Y33781*
Y32938*
X131636D02*
X131409Y32375D01*
X131182Y32094*
X130500Y31813*
X130500D02*
X128455D01*
X133682Y34906D02*
Y29000D01*
X136864Y34906D02*
Y29000D01*
X133682Y32094D02*
X136864D01*
X140727Y34906D02*
X138909Y29000D01*
X140727Y34906D02*
X142545Y29000D01*
X139591Y30969D02*
X141864D01*
X144591Y34906D02*
Y29000D01*
Y34906D02*
X146409Y29000D01*
X148227Y34906D02*
X146409Y29000D01*
X148227Y34906D02*
Y29000D01*
X123000Y96156D02*
Y91938D01*
X123000D02*
X123227Y91094D01*
X123682Y90531*
X124364Y90250*
X124818*
X125500Y90531*
X125955Y91094*
X126182Y91938*
X126182D02*
Y96156D01*
X128455Y90813D02*
X128227Y90531D01*
X128455Y90250*
X128682Y90531*
X128455Y90813*
X133909Y95313D02*
X133455Y95875D01*
X132773Y96156*
X131864*
X131182Y95875*
X130727Y95313*
X130727D02*
Y94750D01*
X130955Y94188*
X130955D02*
X131182Y93906D01*
X131636Y93625*
X133000Y93063*
X133000D02*
X133455Y92781D01*
X133682Y92500*
X133909Y91938*
X133909D02*
Y91094D01*
X133455Y90531*
X132773Y90250*
X131864*
X131182Y90531*
X130727Y91094*
X136182Y90813D02*
X135955Y90531D01*
X136182Y90250*
X136409Y90531*
X136182Y90813*
X143682Y96156D02*
Y90250D01*
Y96156D02*
X145273D01*
X145955Y95875*
X146409Y95313*
X146409D02*
X146636Y94750D01*
X146864Y93906*
Y92500*
X146636Y91656*
X146409Y91094*
X145955Y90531*
X145273Y90250*
X143682*
X148909Y96156D02*
Y90250D01*
Y96156D02*
X151864D01*
X148909Y93344D02*
X150727D01*
X148909Y90250D02*
X151864D01*
X153909Y96156D02*
Y90250D01*
Y96156D02*
X155955D01*
X156636Y95875*
X156864Y95594*
X157091Y95031*
Y94188*
X157091D02*
X156864Y93625D01*
X156636Y93344*
X155955Y93063*
X155955D02*
X153909D01*
X160955Y96156D02*
X159136Y90250D01*
X160955Y96156D02*
X162773Y90250D01*
X159818Y92219D02*
X162091D01*
X164818Y96156D02*
Y90250D01*
Y96156D02*
X166864D01*
X167545Y95875*
X167773Y95594*
X168000Y95031*
Y94469*
X167773Y93906*
X167545Y93625*
X166864Y93344*
X164818*
X166409D02*
X168000Y90250D01*
X171636Y96156D02*
Y90250D01*
X170045Y96156D02*
X173227D01*
X175273D02*
Y90250D01*
Y96156D02*
X177091Y90250D01*
X178909Y96156D02*
X177091Y90250D01*
X178909Y96156D02*
Y90250D01*
X180955Y96156D02*
Y90250D01*
Y96156D02*
X183909D01*
X180955Y93344D02*
X182773D01*
X180955Y90250D02*
X183909D01*
X185955Y96156D02*
Y90250D01*
Y96156D02*
X189136Y90250D01*
Y96156D02*
Y90250D01*
X192773Y96156D02*
Y90250D01*
X191182Y96156D02*
X194364D01*
X203000D02*
X202545Y95875D01*
X202091Y95313*
X202091D02*
X201864Y94750D01*
X201636Y93906*
Y92500*
X201864Y91656*
X202091Y91094*
X202545Y90531*
X203000Y90250*
X203909*
X204364Y90531*
X204818Y91094*
X205045Y91656*
X205273Y92500*
Y93906*
X205045Y94750*
X204818Y95313*
X204818D02*
X204364Y95875D01*
X203909Y96156*
X203000*
X207318D02*
Y90250D01*
Y96156D02*
X210273D01*
X207318Y93344D02*
X209136D01*
X217545Y96156D02*
Y90250D01*
Y96156D02*
X220500D01*
X217545Y93344D02*
X219364D01*
X217545Y90250D02*
X220500D01*
X222545Y96156D02*
Y90250D01*
Y96156D02*
X225727Y90250D01*
Y96156D02*
Y90250D01*
X227773Y96156D02*
Y90250D01*
Y96156D02*
X230727D01*
X227773Y93344D02*
X229591D01*
X227773Y90250D02*
X230727D01*
X232773Y96156D02*
Y90250D01*
Y96156D02*
X234818D01*
X235500Y95875*
X235727Y95594*
X235955Y95031*
Y94469*
X235727Y93906*
X235500Y93625*
X234818Y93344*
X232773*
X234364D02*
X235955Y90250D01*
X241409Y94750D02*
X241182Y95313D01*
X241182D02*
X240727Y95875D01*
X240273Y96156*
X239364*
X238909Y95875*
X238455Y95313*
X238455D02*
X238227Y94750D01*
X238000Y93906*
Y92500*
X238227Y91656*
X238455Y91094*
X238909Y90531*
X239364Y90250*
X240273*
X240727Y90531*
X241182Y91094*
X241409Y91656*
Y92500*
X240273D02*
X241409D01*
X243455Y96156D02*
X245273Y93344D01*
Y90250*
X247091Y96156D02*
X245273Y93344D01*
X88682Y79063D02*
X88227Y79625D01*
X87545Y79906*
X86636*
X85955Y79625*
X85500Y79063*
X85500D02*
Y78500D01*
X85727Y77938*
X85727D02*
X85955Y77656D01*
X86409Y77375*
X87773Y76813*
X87773D02*
X88227Y76531D01*
X88455Y76250*
X88682Y75688*
X88682D02*
Y74844D01*
X88227Y74281*
X87545Y74000*
X86636*
X85955Y74281*
X85500Y74844*
X92318Y79906D02*
Y74000D01*
X90727Y79906D02*
X93909D01*
X97773D02*
X95955Y74000D01*
X97773Y79906D02*
X99591Y74000D01*
X96636Y75969D02*
X98909D01*
X101636Y79906D02*
Y74000D01*
Y79906D02*
X104818Y74000D01*
Y79906D02*
Y74000D01*
X106864Y79906D02*
Y74000D01*
Y79906D02*
X109818D01*
X106864Y77094D02*
X108682D01*
X113227Y79906D02*
X112773Y79625D01*
X112318Y79063*
X112318D02*
X112091Y78500D01*
X111864Y77656*
Y76250*
X112091Y75406*
X112318Y74844*
X112773Y74281*
X113227Y74000*
X114136*
X114591Y74281*
X115045Y74844*
X115273Y75406*
X115500Y76250*
Y77656*
X115273Y78500*
X115045Y79063*
X115045D02*
X114591Y79625D01*
X114136Y79906*
X113227*
X117545D02*
Y74000D01*
Y79906D02*
X119591D01*
X120273Y79625*
X120500Y79344*
X120727Y78781*
Y78219*
X120500Y77656*
X120273Y77375*
X119591Y77094*
X117545*
X119136D02*
X120727Y74000D01*
X122773Y79906D02*
Y74000D01*
Y79906D02*
X124364D01*
X125045Y79625*
X125500Y79063*
X125500D02*
X125727Y78500D01*
X125955Y77656*
Y76250*
X125727Y75406*
X125500Y74844*
X125045Y74281*
X124364Y74000*
X122773*
X133227Y79906D02*
Y75688D01*
X133227D02*
X133455Y74844D01*
X133909Y74281*
X134591Y74000*
X135045*
X135727Y74281*
X136182Y74844*
X136409Y75688*
X136409D02*
Y79906D01*
X138455D02*
Y74000D01*
Y79906D02*
X141636Y74000D01*
Y79906D02*
Y74000D01*
X143682Y79906D02*
Y74000D01*
X145727Y79906D02*
X147545Y74000D01*
X149364Y79906D02*
X147545Y74000D01*
X151409Y79906D02*
Y74000D01*
Y79906D02*
X154364D01*
X151409Y77094D02*
X153227D01*
X151409Y74000D02*
X154364D01*
X156409Y79906D02*
Y74000D01*
Y79906D02*
X158455D01*
X159136Y79625*
X159364Y79344*
X159591Y78781*
Y78219*
X159364Y77656*
X159136Y77375*
X158455Y77094*
X156409*
X158000D02*
X159591Y74000D01*
X164818Y79063D02*
X164364Y79625D01*
X163682Y79906*
X162773*
X162091Y79625*
X161636Y79063*
X161636D02*
Y78500D01*
X161864Y77938*
X161864D02*
X162091Y77656D01*
X162545Y77375*
X163909Y76813*
X163909D02*
X164364Y76531D01*
X164591Y76250*
X164818Y75688*
X164818D02*
Y74844D01*
X164364Y74281*
X163682Y74000*
X162773*
X162091Y74281*
X161636Y74844*
X166864Y79906D02*
Y74000D01*
X170500Y79906D02*
Y74000D01*
X168909Y79906D02*
X172091D01*
X174136D02*
X175955Y77094D01*
Y74000*
X177773Y79906D02*
X175955Y77094D01*
X201182Y79063D02*
X200727Y79625D01*
X200045Y79906*
X199136*
X198455Y79625*
X198000Y79063*
X198000D02*
Y78500D01*
X198227Y77938*
X198227D02*
X198455Y77656D01*
X198909Y77375*
X200273Y76813*
X200273D02*
X200727Y76531D01*
X200955Y76250*
X201182Y75688*
X201182D02*
Y74844D01*
X200727Y74281*
X200045Y74000*
X199136*
X198455Y74281*
X198000Y74844*
X204818Y79906D02*
Y74000D01*
X203227Y79906D02*
X206409D01*
X210273D02*
X208455Y74000D01*
X210273Y79906D02*
X212091Y74000D01*
X209136Y75969D02*
X211409D01*
X214136Y79906D02*
Y74000D01*
Y79906D02*
X217318Y74000D01*
Y79906D02*
Y74000D01*
X219364Y79906D02*
Y74000D01*
Y79906D02*
X222318D01*
X219364Y77094D02*
X221182D01*
X225727Y79906D02*
X225273Y79625D01*
X224818Y79063*
X224818D02*
X224591Y78500D01*
X224364Y77656*
Y76250*
X224591Y75406*
X224818Y74844*
X225273Y74281*
X225727Y74000*
X226636*
X227091Y74281*
X227545Y74844*
X227773Y75406*
X228000Y76250*
Y77656*
X227773Y78500*
X227545Y79063*
X227545D02*
X227091Y79625D01*
X226636Y79906*
X225727*
X230045D02*
Y74000D01*
Y79906D02*
X232091D01*
X232773Y79625*
X233000Y79344*
X233227Y78781*
Y78219*
X233000Y77656*
X232773Y77375*
X232091Y77094*
X230045*
X231636D02*
X233227Y74000D01*
X235273Y79906D02*
Y74000D01*
Y79906D02*
X236864D01*
X237545Y79625*
X238000Y79063*
X238000D02*
X238227Y78500D01*
X238455Y77656*
Y76250*
X238227Y75406*
X238000Y74844*
X237545Y74281*
X236864Y74000*
X235273*
X240955Y74281D02*
X240727Y74000D01*
X240500Y74281*
X240727Y74563*
X240727D02*
X240955Y74281D01*
Y73719*
X240727Y73156*
X240500Y72875*
X251636Y78500D02*
X251409Y79063D01*
X251409D02*
X250955Y79625D01*
X250500Y79906*
X249591*
X249136Y79625*
X248682Y79063*
X248682D02*
X248455Y78500D01*
X248227Y77656*
Y76250*
X248455Y75406*
X248682Y74844*
X249136Y74281*
X249591Y74000*
X250500*
X250955Y74281*
X251409Y74844*
X251636Y75406*
X255500Y79906D02*
X253682Y74000D01*
X255500Y79906D02*
X257318Y74000D01*
X254364Y75969D02*
X256636D01*
X259364Y79906D02*
Y74000D01*
X262091*
X264136Y79906D02*
Y74000D01*
X266182Y79906D02*
Y74000D01*
Y79906D02*
X269136D01*
X266182Y77094D02*
X268000D01*
X272545Y79906D02*
X272091Y79625D01*
X271636Y79063*
X271636D02*
X271409Y78500D01*
X271182Y77656*
Y76250*
X271409Y75406*
X271636Y74844*
X272091Y74281*
X272545Y74000*
X273455*
X273909Y74281*
X274364Y74844*
X274591Y75406*
X274818Y76250*
Y77656*
X274591Y78500*
X274364Y79063*
X274364D02*
X273909Y79625D01*
X273455Y79906*
X272545*
X276864D02*
Y74000D01*
Y79906D02*
X278909D01*
X279591Y79625*
X279818Y79344*
X280045Y78781*
Y78219*
X279818Y77656*
X279591Y77375*
X278909Y77094*
X276864*
X278455D02*
X280045Y74000D01*
X282091Y79906D02*
Y74000D01*
Y79906D02*
X285273Y74000D01*
Y79906D02*
Y74000D01*
X287318Y79906D02*
Y74000D01*
X291182Y79906D02*
X289364Y74000D01*
X291182Y79906D02*
X293000Y74000D01*
X290045Y75969D02*
X292318D01*
X77687Y111786D02*
X77142Y112473D01*
X76324Y112817*
X75233*
X74414Y112473*
X73869Y111786*
X73869D02*
Y111098D01*
X74142Y110411*
X74142D02*
X74414Y110067D01*
X74960Y109723*
X76596Y109036*
X76596D02*
X77142Y108692D01*
X77414Y108348*
X77687Y107661*
X77687D02*
Y106629D01*
X77142Y105942*
X76324Y105598*
X75233*
X74414Y105942*
X73869Y106629*
X80142Y112817D02*
Y105598D01*
X83414*
X88051Y112817D02*
X85869Y105598D01*
X88051Y112817D02*
X90233Y105598D01*
X86687Y108004D02*
X89414D01*
X96778Y111098D02*
X96505Y111786D01*
X96505D02*
X95960Y112473D01*
X95414Y112817*
X94324*
X93778Y112473*
X93233Y111786*
X93233D02*
X92960Y111098D01*
X92687Y110067*
Y108348*
X92960Y107317*
X93233Y106629*
X93778Y105942*
X94324Y105598*
X95414*
X95960Y105942*
X96505Y106629*
X96778Y107317*
X105505Y112817D02*
Y105598D01*
Y112817D02*
X109324Y105598D01*
Y112817D02*
Y105598D01*
X113960Y112817D02*
X111778Y105598D01*
X113960Y112817D02*
X116142Y105598D01*
X112596Y108004D02*
X115324D01*
X120505Y112817D02*
Y105598D01*
X118596Y112817D02*
X122414D01*
X124869D02*
Y105598D01*
X128960Y112817D02*
X128414Y112473D01*
X127869Y111786*
X127869D02*
X127596Y111098D01*
X127324Y110067*
Y108348*
X127596Y107317*
X127869Y106629*
X128414Y105942*
X128960Y105598*
X130051*
X130596Y105942*
X131142Y106629*
X131414Y107317*
X131687Y108348*
Y110067*
X131414Y111098*
X131142Y111786*
X131142D02*
X130596Y112473D01*
X130051Y112817*
X128960*
X134142D02*
Y105598D01*
Y112817D02*
X137960Y105598D01*
Y112817D02*
Y105598D01*
X142596Y112817D02*
X140414Y105598D01*
X142596Y112817D02*
X144778Y105598D01*
X141233Y108004D02*
X143960D01*
X147233Y112817D02*
Y105598D01*
X150505*
X161414Y112817D02*
X159233Y105598D01*
X161414Y112817D02*
X163596Y105598D01*
X160051Y108004D02*
X162778D01*
X170142Y111098D02*
X169869Y111786D01*
X169869D02*
X169324Y112473D01*
X168778Y112817*
X167687*
X167142Y112473*
X166596Y111786*
X166596D02*
X166324Y111098D01*
X166051Y110067*
Y108348*
X166324Y107317*
X166596Y106629*
X167142Y105942*
X167687Y105598*
X168778*
X169324Y105942*
X169869Y106629*
X170142Y107317*
X176687Y111098D02*
X176414Y111786D01*
X176414D02*
X175869Y112473D01*
X175324Y112817*
X174233*
X173687Y112473*
X173142Y111786*
X173142D02*
X172869Y111098D01*
X172596Y110067*
Y108348*
X172869Y107317*
X173142Y106629*
X173687Y105942*
X174233Y105598*
X175324*
X175869Y105942*
X176414Y106629*
X176687Y107317*
X179142Y112817D02*
Y105598D01*
Y112817D02*
X182687D01*
X179142Y109379D02*
X181324D01*
X179142Y105598D02*
X182687D01*
X185142Y112817D02*
Y105598D01*
X188414*
X190869Y112817D02*
Y105598D01*
Y112817D02*
X194414D01*
X190869Y109379D02*
X193051D01*
X190869Y105598D02*
X194414D01*
X196869Y112817D02*
Y105598D01*
Y112817D02*
X199324D01*
X200142Y112473*
X200414Y112129*
X200687Y111442*
Y110754*
X200414Y110067*
X200142Y109723*
X199324Y109379*
X196869*
X198778D02*
X200687Y105598D01*
X205324Y112817D02*
X203142Y105598D01*
X205324Y112817D02*
X207505Y105598D01*
X203960Y108004D02*
X206687D01*
X211869Y112817D02*
Y105598D01*
X209960Y112817D02*
X213778D01*
X217869D02*
X217324Y112473D01*
X216778Y111786*
X216778D02*
X216505Y111098D01*
X216233Y110067*
Y108348*
X216505Y107317*
X216778Y106629*
X217324Y105942*
X217869Y105598*
X218960*
X219505Y105942*
X220051Y106629*
X220324Y107317*
X220596Y108348*
Y110067*
X220324Y111098*
X220051Y111786*
X220051D02*
X219505Y112473D01*
X218960Y112817*
X217869*
X223051D02*
Y105598D01*
Y112817D02*
X225505D01*
X226324Y112473*
X226596Y112129*
X226869Y111442*
Y110754*
X226596Y110067*
X226324Y109723*
X225505Y109379*
X223051*
X224960D02*
X226869Y105598D01*
X235596Y112817D02*
Y105598D01*
X238869*
X243505Y112817D02*
X241324Y105598D01*
X243505Y112817D02*
X245687Y105598D01*
X242142Y108004D02*
X244869D01*
X248142Y112817D02*
Y105598D01*
Y112817D02*
X250596D01*
X251414Y112473*
X251687Y112129*
X251960Y111442*
Y110754*
X251687Y110067*
X251414Y109723*
X250596Y109379*
X248142D02*
X250596D01*
X251414Y109036*
X251414D02*
X251687Y108692D01*
X251960Y108004*
Y106973*
X251687Y106286*
X251687D02*
X251414Y105942D01*
X250596Y105598*
X248142*
X256051Y112817D02*
X255505Y112473D01*
X254960Y111786*
X254960D02*
X254687Y111098D01*
X254414Y110067*
Y108348*
X254687Y107317*
X254960Y106629*
X255505Y105942*
X256051Y105598*
X257142*
X257687Y105942*
X258233Y106629*
X258505Y107317*
X258778Y108348*
Y110067*
X258505Y111098*
X258233Y111786*
X258233D02*
X257687Y112473D01*
X257142Y112817*
X256051*
X261233D02*
Y105598D01*
Y112817D02*
X263687D01*
X264505Y112473*
X264778Y112129*
X265051Y111442*
Y110754*
X264778Y110067*
X264505Y109723*
X263687Y109379*
X261233*
X263142D02*
X265051Y105598D01*
X269687Y112817D02*
X267505Y105598D01*
X269687Y112817D02*
X271869Y105598D01*
X268324Y108004D02*
X271051D01*
X276233Y112817D02*
Y105598D01*
X274324Y112817D02*
X278142D01*
X282233D02*
X281687Y112473D01*
X281142Y111786*
X281142D02*
X280869Y111098D01*
X280596Y110067*
Y108348*
X280869Y107317*
X281142Y106629*
X281687Y105942*
X282233Y105598*
X283324*
X283869Y105942*
X284414Y106629*
X284687Y107317*
X284960Y108348*
Y110067*
X284687Y111098*
X284414Y111786*
X284414D02*
X283869Y112473D01*
X283324Y112817*
X282233*
X287414D02*
Y105598D01*
Y112817D02*
X289869D01*
X290687Y112473*
X290960Y112129*
X291233Y111442*
Y110754*
X290960Y110067*
X290687Y109723*
X289869Y109379*
X287414*
X289324D02*
X291233Y105598D01*
X293687Y112817D02*
X295869Y109379D01*
Y105598*
X298051Y112817D02*
X295869Y109379D01*
X469477Y35469D02*
X468909Y36188D01*
X468909D02*
X468057Y36547D01*
X466920*
X466068Y36188*
X466068D02*
X465500Y35469D01*
Y34750*
X465784Y34031*
X466068Y33672*
X466636Y33313*
X466636D02*
X468341Y32594D01*
X468909Y32234*
X469193Y31875*
X469477Y31156*
Y30078*
X468909Y29359*
X468057Y29000*
X466920*
X466068Y29359*
X465500Y30078*
X472034Y36547D02*
Y29000D01*
X476011Y36547D02*
Y29000D01*
X472034Y32953D02*
X476011D01*
X480557Y36547D02*
Y29000D01*
X478568Y36547D02*
X482545D01*
X504705D02*
X504136Y36188D01*
X504136D02*
X503568Y35469D01*
X503284Y34750*
X503000Y33672*
Y31875*
X503284Y30797*
X503568Y30078*
X504136Y29359*
X504705Y29000*
X505841*
X506409Y29359*
X506977Y30078*
X507261Y30797*
X507545Y31875*
Y33672*
X507261Y34750*
X506977Y35469*
X506409Y36188*
X506409D02*
X505841Y36547D01*
X504705*
X510102D02*
Y29000D01*
Y36547D02*
X513795D01*
X510102Y32953D02*
X512375D01*
X75500Y34906D02*
Y29000D01*
Y34906D02*
X77091D01*
X77773Y34625*
X78227Y34063*
X78227D02*
X78455Y33500D01*
X78682Y32656*
Y31250*
X78455Y30406*
X78227Y29844*
X77773Y29281*
X77091Y29000*
X75500*
X83909Y34063D02*
X83455Y34625D01*
X82773Y34906*
X81864*
X81182Y34625*
X80727Y34063*
X80727D02*
Y33500D01*
X80955Y32938*
X80955D02*
X81182Y32656D01*
X81636Y32375*
X83000Y31813*
X83000D02*
X83455Y31531D01*
X83682Y31250*
X83909Y30688*
X83909D02*
Y29844D01*
X83455Y29281*
X82773Y29000*
X81864*
X81182Y29281*
X80727Y29844*
X85955Y34906D02*
Y29000D01*
Y34906D02*
X89136Y29000D01*
Y34906D02*
Y29000D01*
X94591Y33500D02*
X94364Y34063D01*
X94364D02*
X93909Y34625D01*
X93455Y34906*
X92545*
X92091Y34625*
X91636Y34063*
X91636D02*
X91409Y33500D01*
X91182Y32656*
Y31250*
X91409Y30406*
X91636Y29844*
X92091Y29281*
X92545Y29000*
X93455*
X93909Y29281*
X94364Y29844*
X94591Y30406*
Y31250*
X93455D02*
X94591D01*
X96636Y34906D02*
Y29000D01*
Y34906D02*
X98682D01*
X99364Y34625*
X99591Y34344*
X99818Y33781*
Y33219*
X99591Y32656*
X99364Y32375*
X98682Y32094*
X96636*
X98227D02*
X99818Y29000D01*
X102091Y32938D02*
X101864Y32656D01*
X102091Y32375*
X102318Y32656*
X102091Y32938*
Y29563D02*
X101864Y29281D01*
X102091Y29000*
X102318Y29281*
X102091Y29563*
X115500Y47406D02*
Y41500D01*
X118227*
X122091Y47406D02*
X120273Y41500D01*
X122091Y47406D02*
X123909Y41500D01*
X120955Y43469D02*
X123227D01*
X125955Y47406D02*
Y41500D01*
Y47406D02*
X128000D01*
X128682Y47125*
X128909Y46844*
X129136Y46281*
Y45719*
X128909Y45156*
X128682Y44875*
X128000Y44594*
X125955*
X127545D02*
X129136Y41500D01*
X131182Y47406D02*
Y41500D01*
Y47406D02*
X133227D01*
X133909Y47125*
X134136Y46844*
X134364Y46281*
Y45719*
X134136Y45156*
X133909Y44875*
X133227Y44594*
X131182*
X132773D02*
X134364Y41500D01*
X136409Y47406D02*
X138227Y44594D01*
Y41500*
X140045Y47406D02*
X138227Y44594D01*
X147318Y47406D02*
Y41500D01*
Y47406D02*
X148909D01*
X149591Y47125*
X150045Y46563*
X150045D02*
X150273Y46000D01*
X150500Y45156*
Y43750*
X150273Y42906*
X150045Y42344*
X149591Y41781*
X148909Y41500*
X147318*
X153909Y47406D02*
X153455Y47125D01*
X153000Y46563*
X153000D02*
X152773Y46000D01*
X152545Y45156*
Y43750*
X152773Y42906*
X153000Y42344*
X153455Y41781*
X153909Y41500*
X154818*
X155273Y41781*
X155727Y42344*
X155955Y42906*
X156182Y43750*
Y45156*
X155955Y46000*
X155727Y46563*
X155727D02*
X155273Y47125D01*
X154818Y47406*
X153909*
X159591D02*
X159136Y47125D01*
X158682Y46563*
X158682D02*
X158455Y46000D01*
X158227Y45156*
Y43750*
X158455Y42906*
X158682Y42344*
X159136Y41781*
X159591Y41500*
X160500*
X160955Y41781*
X161409Y42344*
X161636Y42906*
X161864Y43750*
Y45156*
X161636Y46000*
X161409Y46563*
X161409D02*
X160955Y47125D01*
X160500Y47406*
X159591*
X163909D02*
Y41500D01*
X166636*
X168682Y47406D02*
Y41500D01*
X172318Y47406D02*
Y41500D01*
X170727Y47406D02*
X173909D01*
X177545D02*
Y41500D01*
X175955Y47406D02*
X179136D01*
X181182D02*
Y41500D01*
X183909*
X185955Y47406D02*
Y41500D01*
Y47406D02*
X188909D01*
X185955Y44594D02*
X187773D01*
X185955Y41500D02*
X188909D01*
X520500Y35109D02*
X521068Y35469D01*
X521920Y36547*
Y29000*
X525045Y36547D02*
X528170D01*
X526466Y33672*
X527318*
X527886Y33313*
X527886D02*
X528170Y32953D01*
X528455Y31875*
Y31156*
X528170Y30078*
X527602Y29359*
X526750Y29000*
X525898*
X525045Y29359*
X524761Y29719*
X524477Y30438*
X323000Y75063D02*
Y65875D01*
X327091*
X330159Y75063D02*
Y65875D01*
X334250*
X337318Y75063D02*
Y65875D01*
Y75063D02*
X340386D01*
X340386D02*
X341409Y74625D01*
X341750Y74188*
X341750D02*
X342091Y73313D01*
X342091D02*
Y72438D01*
X342091D02*
X341750Y71563D01*
X341750D02*
X341409Y71125D01*
X340386Y70688*
X340386D02*
X337318D01*
X339705D02*
X342091Y65875D01*
X345159Y75063D02*
Y65875D01*
Y75063D02*
X349591D01*
X345159Y70688D02*
X347886D01*
X360500Y75063D02*
Y65875D01*
Y75063D02*
X363568D01*
X363568D02*
X364591Y74625D01*
X364932Y74188*
X364932D02*
X365273Y73313D01*
X365273D02*
Y72000D01*
X364932Y71125*
X364591Y70688*
X364591D02*
X363568Y70250D01*
X360500*
X368341Y75063D02*
Y65875D01*
Y75063D02*
X371409D01*
X371409D02*
X372432Y74625D01*
X372773Y74188*
X372773D02*
X373114Y73313D01*
X373114D02*
Y72438D01*
X373114D02*
X372773Y71563D01*
X372773D02*
X372432Y71125D01*
X371409Y70688*
X371409D02*
X368341D01*
X370727D02*
X373114Y65875D01*
X381295Y72875D02*
X380955Y73750D01*
X380273Y74625*
X379591Y75063*
X379591D02*
X378227D01*
X378227D02*
X377545Y74625D01*
X376864Y73750*
X376523Y72875*
X376182Y71563*
X376182D02*
Y69375D01*
X376523Y68063*
X376523D02*
X376864Y67188D01*
X376864D02*
X377545Y66313D01*
X377545D02*
X378227Y65875D01*
X379591*
X380273Y66313*
X380273D02*
X380955Y67188D01*
X380955D02*
X381295Y68063D01*
X392205Y75063D02*
Y65875D01*
Y75063D02*
X394591D01*
X394591D02*
X395614Y74625D01*
X396295Y73750*
X396636Y72875*
X396977Y71563*
X396977D02*
Y69375D01*
X396636Y68063*
X396636D02*
X396295Y67188D01*
X396295D02*
X395614Y66313D01*
X395614D02*
X394591Y65875D01*
X392205*
X400045Y75063D02*
Y65875D01*
X408227Y72875D02*
X407886Y73750D01*
X407205Y74625*
X406523Y75063*
X406523D02*
X405159D01*
X405159D02*
X404477Y74625D01*
X403795Y73750*
X403455Y72875*
X403114Y71563*
X403114D02*
Y69375D01*
X403455Y68063*
X403455D02*
X403795Y67188D01*
X403795D02*
X404477Y66313D01*
X404477D02*
X405159Y65875D01*
X406523*
X407205Y66313*
X407205D02*
X407886Y67188D01*
X407886D02*
X408227Y68063D01*
X408227D02*
Y69375D01*
X406523D02*
X408227D01*
X411295Y75063D02*
Y65875D01*
X416750Y75063D02*
Y65875D01*
X414364Y75063D02*
X419136D01*
X422205D02*
Y65875D01*
X430045Y75063D02*
X425273Y65875D01*
Y75063D02*
X430045D01*
X425273Y65875D02*
X430045D01*
X433114Y75063D02*
Y65875D01*
Y75063D02*
X437545D01*
X433114Y70688D02*
X435841D01*
X433114Y65875D02*
X437545D01*
X440614Y75063D02*
Y65875D01*
Y75063D02*
X443682D01*
X443682D02*
X444705Y74625D01*
X445045Y74188*
X445045D02*
X445386Y73313D01*
X445386D02*
Y72438D01*
X445386D02*
X445045Y71563D01*
X445045D02*
X444705Y71125D01*
X443682Y70688*
X443682D02*
X440614D01*
X443000D02*
X445386Y65875D01*
X456295Y75063D02*
Y65875D01*
Y75063D02*
X459364D01*
X459364D02*
X460386Y74625D01*
X460727Y74188*
X460727D02*
X461068Y73313D01*
X461068D02*
Y72438D01*
X461068D02*
X460727Y71563D01*
X460727D02*
X460386Y71125D01*
X459364Y70688*
X456295D02*
X459364D01*
X459364D02*
X460386Y70250D01*
X460727Y69813*
X460727D02*
X461068Y68938D01*
X461068D02*
Y67625D01*
X460727Y66750*
X460386Y66313*
X460386D02*
X459364Y65875D01*
X456295*
X466182Y75063D02*
X465500Y74625D01*
X464818Y73750*
X464477Y72875*
X464136Y71563*
X464136D02*
Y69375D01*
X464477Y68063*
X464477D02*
X464818Y67188D01*
X464818D02*
X465500Y66313D01*
X465500D02*
X466182Y65875D01*
X467545*
X468227Y66313*
X468227D02*
X468909Y67188D01*
X468909D02*
X469250Y68063D01*
X469250D02*
X469591Y69375D01*
Y71563*
X469591D02*
X469250Y72875D01*
X468909Y73750*
X468227Y74625*
X467545Y75063*
X467545D02*
X466182D01*
X475386D02*
X472659Y65875D01*
X475386Y75063D02*
X478114Y65875D01*
X473682Y68938D02*
X477091D01*
X481182Y75063D02*
Y65875D01*
Y75063D02*
X484250D01*
X484250D02*
X485273Y74625D01*
X485614Y74188*
X485614D02*
X485955Y73313D01*
X485955D02*
Y72438D01*
X485955D02*
X485614Y71563D01*
X485614D02*
X485273Y71125D01*
X484250Y70688*
X484250D02*
X481182D01*
X483568D02*
X485955Y65875D01*
X489023Y75063D02*
Y65875D01*
Y75063D02*
X491409D01*
X491409D02*
X492432Y74625D01*
X493114Y73750*
X493455Y72875*
X493795Y71563*
X493795D02*
Y69375D01*
X493455Y68063*
X493455D02*
X493114Y67188D01*
X493114D02*
X492432Y66313D01*
X492432D02*
X491409Y65875D01*
X489023*
X230369Y63504D02*
Y57598D01*
Y63504D02*
X232187Y57598D01*
X234005Y63504D02*
X232187Y57598D01*
X234005Y63504D02*
Y57598D01*
X237869Y63504D02*
X236051Y57598D01*
X237869Y63504D02*
X239687Y57598D01*
X236733Y59567D02*
X239005D01*
X241733Y63504D02*
X243551Y60692D01*
Y57598*
X245369Y63504D02*
X243551Y60692D01*
X252642Y62379D02*
X253096Y62661D01*
X253096D02*
X253778Y63504D01*
Y57598*
X258778Y61536D02*
X258551Y60692D01*
X258096Y60129*
X257414Y59848*
X257187*
X256505Y60129*
X256051Y60692*
X255824Y61536*
X255824D02*
Y61817D01*
X256051Y62661*
X256051D02*
X256505Y63223D01*
X257187Y63504*
X257414*
X258096Y63223*
X258551Y62661*
X258551D02*
X258778Y61536D01*
X258778D02*
Y60129D01*
X258551Y58723*
X258096Y57879*
X257414Y57598*
X256960*
X256278Y57879*
X256051Y58442*
X261278Y57879D02*
X261051Y57598D01*
X260824Y57879*
X261051Y58161*
X261051D02*
X261278Y57879D01*
Y57317*
X261051Y56754*
X260824Y56473*
X268778Y62098D02*
Y62379D01*
X269005Y62942*
X269233Y63223*
X269687Y63504*
X270596*
X271051Y63223*
X271278Y62942*
X271505Y62379*
Y61817*
X271278Y61254*
X270824Y60411*
X270824D02*
X268551Y57598D01*
X271733*
X275142Y63504D02*
X274460Y63223D01*
X274005Y62379*
X273778Y60973*
Y60129*
X274005Y58723*
X274460Y57879*
X275142Y57598*
X275596*
X276278Y57879*
X276733Y58723*
X276960Y60129*
Y60973*
X276733Y62379*
X276278Y63223*
X275596Y63504*
X275142*
X279005Y62379D02*
X279460Y62661D01*
X279460D02*
X280142Y63504D01*
Y57598*
X285369Y63504D02*
X283096Y57598D01*
X282187Y63504D02*
X285369D01*
G54D19*
X450182Y849000D02*
X450000Y849500D01*
X449455Y849750*
X449091*
X448545Y849500*
X448182Y848750*
X448000Y847500*
Y846250*
X448182Y845250*
X448545Y844750*
X449091Y844500*
X449273*
X449818Y844750*
X450182Y845250*
X450364Y846000*
Y846250*
X450182Y847000*
X449818Y847500*
X449273Y847750*
X449091*
X448545Y847500*
X448182Y847000*
X448000Y846250*
G54D21*
X445250Y898250D02*
X456250D01*
Y852250*
X445250*
Y898250*
Y841250D02*
X456250D01*
Y822250*
X445250*
Y841250*
Y898149D02*
X456250D01*
X445250Y897699D02*
X456250D01*
X445250Y897249D02*
X456250D01*
X445250Y896799D02*
X456250D01*
X445250Y896349D02*
X456250D01*
X445250Y895899D02*
X456250D01*
X445250Y895449D02*
X456250D01*
X445250Y894999D02*
X456250D01*
X445250Y894549D02*
X456250D01*
X445250Y894099D02*
X456250D01*
X445250Y893649D02*
X456250D01*
X445250Y893199D02*
X456250D01*
X445250Y892749D02*
X456250D01*
X445250Y892299D02*
X456250D01*
X445250Y891849D02*
X456250D01*
X445250Y891399D02*
X456250D01*
X445250Y890949D02*
X456250D01*
X445250Y890499D02*
X456250D01*
X445250Y890049D02*
X456250D01*
X445250Y889599D02*
X456250D01*
X445250Y889149D02*
X456250D01*
X445250Y888699D02*
X456250D01*
X445250Y888249D02*
X456250D01*
X445250Y887799D02*
X456250D01*
X445250Y887349D02*
X456250D01*
X445250Y886899D02*
X456250D01*
X445250Y886449D02*
X456250D01*
X445250Y885999D02*
X456250D01*
X445250Y885549D02*
X456250D01*
X445250Y885099D02*
X456250D01*
X445250Y884649D02*
X456250D01*
X445250Y884199D02*
X456250D01*
X445250Y883749D02*
X456250D01*
X445250Y883299D02*
X456250D01*
X445250Y882849D02*
X456250D01*
X445250Y882399D02*
X456250D01*
X445250Y881949D02*
X456250D01*
X445250Y881499D02*
X456250D01*
X445250Y881049D02*
X456250D01*
X445250Y880599D02*
X456250D01*
X445250Y880149D02*
X456250D01*
X445250Y879699D02*
X456250D01*
X445250Y879249D02*
X456250D01*
X445250Y878799D02*
X456250D01*
X445250Y878349D02*
X456250D01*
X445250Y877899D02*
X456250D01*
X445250Y877449D02*
X456250D01*
X445250Y876999D02*
X456250D01*
X445250Y876549D02*
X456250D01*
X445250Y876099D02*
X456250D01*
X445250Y875649D02*
X456250D01*
X445250Y875199D02*
X456250D01*
X445250Y874749D02*
X456250D01*
X445250Y874299D02*
X456250D01*
X445250Y873849D02*
X456250D01*
X445250Y873399D02*
X456250D01*
X445250Y872949D02*
X456250D01*
X445250Y872499D02*
X456250D01*
X445250Y872049D02*
X456250D01*
X445250Y871599D02*
X456250D01*
X445250Y871149D02*
X456250D01*
X445250Y870699D02*
X456250D01*
X445250Y870249D02*
X456250D01*
X445250Y869799D02*
X456250D01*
X445250Y869349D02*
X456250D01*
X445250Y868899D02*
X456250D01*
X445250Y868449D02*
X456250D01*
X445250Y867999D02*
X456250D01*
X445250Y867549D02*
X456250D01*
X445250Y867099D02*
X456250D01*
X445250Y866649D02*
X456250D01*
X445250Y866199D02*
X456250D01*
X445250Y865749D02*
X456250D01*
X445250Y865299D02*
X456250D01*
X445250Y864849D02*
X456250D01*
X445250Y864399D02*
X456250D01*
X445250Y863949D02*
X456250D01*
X445250Y863499D02*
X456250D01*
X445250Y863049D02*
X456250D01*
X445250Y862599D02*
X456250D01*
X445250Y862149D02*
X456250D01*
X445250Y861699D02*
X456250D01*
X445250Y861249D02*
X456250D01*
X445250Y860799D02*
X456250D01*
X445250Y860349D02*
X456250D01*
X445250Y859899D02*
X456250D01*
X445250Y859449D02*
X456250D01*
X445250Y858999D02*
X456250D01*
X445250Y858549D02*
X456250D01*
X445250Y858099D02*
X456250D01*
X445250Y857649D02*
X456250D01*
X445250Y857199D02*
X456250D01*
X445250Y856749D02*
X456250D01*
X445250Y856299D02*
X456250D01*
X445250Y855849D02*
X456250D01*
X445250Y855399D02*
X456250D01*
X445250Y854949D02*
X456250D01*
X445250Y854499D02*
X456250D01*
X445250Y854049D02*
X456250D01*
X445250Y853599D02*
X456250D01*
X445250Y853149D02*
X456250D01*
X445250Y852699D02*
X456250D01*
X445250Y841149D02*
X456250D01*
X445250Y840699D02*
X456250D01*
X445250Y840249D02*
X456250D01*
X445250Y839799D02*
X456250D01*
X445250Y839349D02*
X456250D01*
X445250Y838899D02*
X456250D01*
X445250Y838449D02*
X456250D01*
X445250Y837999D02*
X456250D01*
X445250Y837549D02*
X456250D01*
X445250Y837099D02*
X456250D01*
X445250Y836649D02*
X456250D01*
X445250Y836199D02*
X456250D01*
X445250Y835749D02*
X456250D01*
X445250Y835299D02*
X456250D01*
X445250Y834849D02*
X456250D01*
X445250Y834399D02*
X456250D01*
X445250Y833949D02*
X456250D01*
X445250Y833499D02*
X456250D01*
X445250Y833049D02*
X456250D01*
X445250Y832599D02*
X456250D01*
X445250Y832149D02*
X456250D01*
X445250Y831699D02*
X456250D01*
X445250Y831249D02*
X456250D01*
X445250Y830799D02*
X456250D01*
X445250Y830349D02*
X456250D01*
X445250Y829899D02*
X456250D01*
X445250Y829449D02*
X456250D01*
X445250Y828999D02*
X456250D01*
X445250Y828549D02*
X456250D01*
X445250Y828099D02*
X456250D01*
X445250Y827649D02*
X456250D01*
X445250Y827199D02*
X456250D01*
X445250Y826749D02*
X456250D01*
X445250Y826299D02*
X456250D01*
X445250Y825849D02*
X456250D01*
X445250Y825399D02*
X456250D01*
X445250Y824949D02*
X456250D01*
X445250Y824499D02*
X456250D01*
X445250Y824049D02*
X456250D01*
X445250Y823599D02*
X456250D01*
X445250Y823149D02*
X456250D01*
X445250Y822699D02*
X456250D01*
G54D77*
X358843Y881933D03*
Y871933D03*
G54D95*
X107000Y780000D02*
X185000D01*
X107500Y721000D02*
X185000D01*
X107000Y780000D02*
X185000D01*
X107500Y721000D02*
X185000D01*
X107500Y661000D02*
X185000D01*
X107000Y599500D02*
X185000D01*
X107500Y540000D02*
X185000D01*
X107000Y479000D02*
X185000D01*
X107500Y420500D02*
X185000D01*
X107000Y359500D02*
X185000D01*
X107500Y300000D02*
X185000D01*
X107500Y661000D02*
X185000D01*
X107000Y599500D02*
X185000D01*
X107500Y540000D02*
X185000D01*
X107000Y479000D02*
X185000D01*
X107500Y420500D02*
X185000D01*
X107000Y359500D02*
X185000D01*
X107500Y300000D02*
X185000D01*
X107500Y240500D02*
X185000D01*
X107500D02*
X185000D01*
X329864Y107125D02*
X328955Y108250D01*
X327591Y108813*
X327591D02*
X325773D01*
X325773D02*
X324409Y108250D01*
X323500Y107125*
Y106000*
X323955Y104875*
X324409Y104313*
X324409D02*
X325318Y103750D01*
X328045Y102625*
X328955Y102063*
X328955D02*
X329409Y101500D01*
X329864Y100375*
Y98688*
X329864D02*
X328955Y97563D01*
X328955D02*
X327591Y97000D01*
X325773*
X324409Y97563*
X324409D02*
X323500Y98688D01*
X333955Y108813D02*
Y97000D01*
X339409*
X347136Y108813D02*
X343500Y97000D01*
X347136Y108813D02*
X350773Y97000D01*
X344864Y100938D02*
X349409D01*
X361682Y106000D02*
X361227Y107125D01*
X360318Y108250*
X359409Y108813*
X359409D02*
X357591D01*
X357591D02*
X356682Y108250D01*
X355773Y107125*
X355318Y106000*
X354864Y104313*
X354864D02*
Y101500D01*
X355318Y99813*
X355318D02*
X355773Y98688D01*
X355773D02*
X356682Y97563D01*
X356682D02*
X357591Y97000D01*
X359409*
X360318Y97563*
X360318D02*
X361227Y98688D01*
X361227D02*
X361682Y99813D01*
G54D99*
X504874Y215449D03*
X492866Y429543D03*
X504874Y491039D03*
X492866Y705134D03*
G54D100*
X136026Y869500D02*
G75*
G03X136026I-6526J0D01*
G01X135869Y809524D02*
G03X135869I-6526J0D01*
G01Y749524D02*
G03X135869I-6526J0D01*
G01Y689524D02*
G03X135869I-6526J0D01*
G01Y209524D02*
G03X135869I-6526J0D01*
G01Y269524D02*
G03X135869I-6526J0D01*
G01Y329524D02*
G03X135869I-6526J0D01*
G01Y389524D02*
G03X135869I-6526J0D01*
G01Y449524D02*
G03X135869I-6526J0D01*
G01Y509524D02*
G03X135869I-6526J0D01*
G01Y569524D02*
G03X135869I-6526J0D01*
G01Y629524D02*
G03X135869I-6526J0D01*
G01X136026Y869500D02*
G03X136026I-6526J0D01*
G01X135869Y809524D02*
G03X135869I-6526J0D01*
G01Y749524D02*
G03X135869I-6526J0D01*
G01Y689524D02*
G03X135869I-6526J0D01*
G01Y209524D02*
G03X135869I-6526J0D01*
G01Y269524D02*
G03X135869I-6526J0D01*
G01Y329524D02*
G03X135869I-6526J0D01*
G01Y389524D02*
G03X135869I-6526J0D01*
G01Y449524D02*
G03X135869I-6526J0D01*
G01Y509524D02*
G03X135869I-6526J0D01*
G01Y569524D02*
G03X135869I-6526J0D01*
G01Y629524D02*
G03X135869I-6526J0D01*
G01X122974Y869542D02*
X136026D01*
X122974Y869452D02*
X136026D01*
X122975Y869632D02*
X136025D01*
X122975Y869362D02*
X136025D01*
X122977Y869722D02*
X136023D01*
X122978Y869272D02*
X136022D01*
X122981Y869812D02*
X136019D01*
X122981Y869182D02*
X136019D01*
X122986Y869902D02*
X136014D01*
X122986Y869092D02*
X136014D01*
X122992Y869992D02*
X136008D01*
X122993Y869002D02*
X136007D01*
X123000Y870082D02*
X136000D01*
X123000Y868912D02*
X136000D01*
X123008Y870172D02*
X135992D01*
X123009Y868822D02*
X135991D01*
X123018Y870262D02*
X135982D01*
X123019Y868732D02*
X135981D01*
X123029Y870352D02*
X135971D01*
X123030Y868642D02*
X135970D01*
X123042Y870442D02*
X135958D01*
X123043Y868552D02*
X135957D01*
X123056Y870532D02*
X135944D01*
X123057Y868462D02*
X135943D01*
X123071Y870622D02*
X135929D01*
X123072Y868372D02*
X135928D01*
X123087Y870712D02*
X135913D01*
X123088Y868282D02*
X135912D01*
X123105Y870802D02*
X135895D01*
X123106Y868192D02*
X135894D01*
X123124Y870892D02*
X135876D01*
X123125Y868102D02*
X135875D01*
X123144Y870982D02*
X135856D01*
X123145Y868012D02*
X135855D01*
X123166Y871072D02*
X135834D01*
X123167Y867922D02*
X135833D01*
X123189Y871162D02*
X135811D01*
X123190Y867832D02*
X135810D01*
X123213Y871252D02*
X135787D01*
X123215Y867742D02*
X135785D01*
X123239Y871342D02*
X135761D01*
X123241Y867652D02*
X135759D01*
X123266Y871432D02*
X135734D01*
X123268Y867562D02*
X135732D01*
X123295Y871522D02*
X135705D01*
X123297Y867472D02*
X135703D01*
X123325Y871612D02*
X135675D01*
X123327Y867382D02*
X135673D01*
X123356Y871702D02*
X135644D01*
X123358Y867292D02*
X135642D01*
X123389Y871792D02*
X135611D01*
X123391Y867202D02*
X135609D01*
X123424Y871882D02*
X135576D01*
X123426Y867112D02*
X135574D01*
X123460Y871972D02*
X135540D01*
X123462Y867022D02*
X135538D01*
X123498Y872062D02*
X135502D01*
X123500Y866932D02*
X135500D01*
X123537Y872152D02*
X135463D01*
X123539Y866842D02*
X135461D01*
X123578Y872242D02*
X135422D01*
X123580Y866752D02*
X135420D01*
X123620Y872332D02*
X135380D01*
X123623Y866662D02*
X135377D01*
X123664Y872422D02*
X135336D01*
X123667Y866572D02*
X135333D01*
X123710Y872512D02*
X135290D01*
X123713Y866482D02*
X135287D01*
X123758Y872602D02*
X135242D01*
X123761Y866392D02*
X135239D01*
X123807Y872692D02*
X135193D01*
X123811Y866302D02*
X135189D01*
X123859Y872782D02*
X135141D01*
X123862Y866212D02*
X135138D01*
X123912Y872872D02*
X135088D01*
X123916Y866122D02*
X135084D01*
X123968Y872962D02*
X135032D01*
X123971Y866032D02*
X135029D01*
X124025Y873052D02*
X134975D01*
X124029Y865942D02*
X134971D01*
X124084Y873142D02*
X134916D01*
X124088Y865852D02*
X134912D01*
X124146Y873232D02*
X134854D01*
X124150Y865762D02*
X134850D01*
X124210Y873322D02*
X134790D01*
X124214Y865672D02*
X134786D01*
X124276Y873412D02*
X134724D01*
X124280Y865582D02*
X134720D01*
X124345Y873502D02*
X134655D01*
X124349Y865492D02*
X134651D01*
X124416Y873592D02*
X134584D01*
X124420Y865402D02*
X134580D01*
X124490Y873682D02*
X134510D01*
X124494Y865312D02*
X134506D01*
X124566Y873772D02*
X134434D01*
X124571Y865222D02*
X134429D01*
X124646Y873862D02*
X134354D01*
X124651Y865132D02*
X134349D01*
X124728Y873952D02*
X134272D01*
X124733Y865042D02*
X134267D01*
X124814Y874042D02*
X134186D01*
X124819Y864952D02*
X134181D01*
X124902Y874132D02*
X134098D01*
X124908Y864862D02*
X134092D01*
X124995Y874222D02*
X134005D01*
X125001Y864772D02*
X133999D01*
X125091Y874312D02*
X133909D01*
X125097Y864682D02*
X133903D01*
X125192Y874402D02*
X133808D01*
X125198Y864592D02*
X133802D01*
X125296Y874492D02*
X133704D01*
X125303Y864502D02*
X133697D01*
X125405Y874582D02*
X133595D01*
X125412Y864412D02*
X133588D01*
X125520Y874672D02*
X133480D01*
X125527Y864322D02*
X133473D01*
X125639Y874762D02*
X133361D01*
X125647Y864232D02*
X133353D01*
X125765Y874852D02*
X133235D01*
X125773Y864142D02*
X133227D01*
X125898Y874942D02*
X133102D01*
X125906Y864052D02*
X133094D01*
X126037Y875032D02*
X132963D01*
X126046Y863962D02*
X132954D01*
X126186Y875122D02*
X132814D01*
X126195Y863872D02*
X132805D01*
X126343Y875212D02*
X132657D01*
X126353Y863782D02*
X132647D01*
X126512Y875302D02*
X132488D01*
X126523Y863692D02*
X132477D01*
X126693Y875392D02*
X132307D01*
X126705Y863602D02*
X132295D01*
X126891Y875482D02*
X132109D01*
X126904Y863512D02*
X132096D01*
X127108Y875572D02*
X131892D01*
X127122Y863422D02*
X131878D01*
X127350Y875662D02*
X131650D01*
X127366Y863332D02*
X131634D01*
X127628Y875752D02*
X131372D01*
X127647Y863242D02*
X131353D01*
X127960Y875842D02*
X131040D01*
X127983Y863152D02*
X131017D01*
X128395Y875932D02*
X130605D01*
X128428Y863062D02*
X130572D01*
X129264Y876022D02*
X129736D01*
X122816Y809566D02*
X135869D01*
X122816Y809476D02*
X135869D01*
X122817Y809656D02*
X135868D01*
X122818Y809386D02*
X135868D01*
X122820Y809746D02*
X135865D01*
X122820Y809296D02*
X135865D01*
X122824Y809836D02*
X135862D01*
X122824Y809206D02*
X135861D01*
X122828Y809926D02*
X135857D01*
X122829Y809116D02*
X135856D01*
X122835Y810016D02*
X135850D01*
X122835Y809026D02*
X135850D01*
X122842Y810106D02*
X135843D01*
X122843Y808936D02*
X135842D01*
X122851Y810196D02*
X135834D01*
X122851Y808846D02*
X135834D01*
X122861Y810286D02*
X135824D01*
X122861Y808756D02*
X135824D01*
X122872Y810376D02*
X135813D01*
X122873Y808666D02*
X135812D01*
X122884Y810466D02*
X135801D01*
X122885Y808576D02*
X135800D01*
X122898Y810556D02*
X135787D01*
X122899Y808486D02*
X135786D01*
X122913Y810646D02*
X135772D01*
X122914Y808396D02*
X135771D01*
X122930Y810736D02*
X135755D01*
X122931Y808306D02*
X135754D01*
X122947Y810826D02*
X135738D01*
X122948Y808216D02*
X135737D01*
X122966Y810916D02*
X135719D01*
X122967Y808126D02*
X135718D01*
X122987Y811006D02*
X135698D01*
X122988Y808036D02*
X135697D01*
X123008Y811096D02*
X135677D01*
X123010Y807946D02*
X135675D01*
X123031Y811186D02*
X135654D01*
X123033Y807856D02*
X135652D01*
X123056Y811276D02*
X135629D01*
X123057Y807766D02*
X135628D01*
X123081Y811366D02*
X135604D01*
X123083Y807676D02*
X135602D01*
X123109Y811456D02*
X135576D01*
X123110Y807586D02*
X135575D01*
X123137Y811546D02*
X135548D01*
X123139Y807496D02*
X135546D01*
X123167Y811636D02*
X135518D01*
X123169Y807406D02*
X135516D01*
X123199Y811726D02*
X135486D01*
X123201Y807316D02*
X135484D01*
X123232Y811816D02*
X135453D01*
X123234Y807226D02*
X135451D01*
X123266Y811906D02*
X135419D01*
X123269Y807136D02*
X135417D01*
X123302Y811996D02*
X135383D01*
X123305Y807046D02*
X135380D01*
X123340Y812086D02*
X135345D01*
X123342Y806956D02*
X135343D01*
X123379Y812176D02*
X135306D01*
X123382Y806866D02*
X135303D01*
X123420Y812266D02*
X135265D01*
X123423Y806776D02*
X135262D01*
X123463Y812356D02*
X135222D01*
X123465Y806686D02*
X135220D01*
X123507Y812446D02*
X135178D01*
X123510Y806596D02*
X135175D01*
X123553Y812536D02*
X135132D01*
X123556Y806506D02*
X135129D01*
X123600Y812626D02*
X135085D01*
X123603Y806416D02*
X135082D01*
X123650Y812716D02*
X135035D01*
X123653Y806326D02*
X135032D01*
X123701Y812806D02*
X134984D01*
X123705Y806236D02*
X134980D01*
X123755Y812896D02*
X134930D01*
X123758Y806146D02*
X134927D01*
X123810Y812986D02*
X134875D01*
X123814Y806056D02*
X134871D01*
X123867Y813076D02*
X134818D01*
X123871Y805966D02*
X134814D01*
X123927Y813166D02*
X134758D01*
X123931Y805876D02*
X134754D01*
X123989Y813256D02*
X134697D01*
X123992Y805786D02*
X134693D01*
X124052Y813346D02*
X134633D01*
X124056Y805696D02*
X134629D01*
X124119Y813436D02*
X134566D01*
X124123Y805606D02*
X134562D01*
X124187Y813526D02*
X134498D01*
X124192Y805516D02*
X134493D01*
X124258Y813616D02*
X134427D01*
X124263Y805426D02*
X134422D01*
X124332Y813706D02*
X134353D01*
X124337Y805336D02*
X134348D01*
X124409Y813796D02*
X134276D01*
X124413Y805246D02*
X134272D01*
X124488Y813886D02*
X134197D01*
X124493Y805156D02*
X134192D01*
X124570Y813976D02*
X134115D01*
X124576Y805066D02*
X134109D01*
X124656Y814066D02*
X134029D01*
X124661Y804976D02*
X134024D01*
X124745Y814156D02*
X133940D01*
X124751Y804886D02*
X133934D01*
X124837Y814246D02*
X133848D01*
X124843Y804796D02*
X133842D01*
X124934Y814336D02*
X133751D01*
X124940Y804706D02*
X133745D01*
X125034Y814426D02*
X133651D01*
X125040Y804616D02*
X133645D01*
X125139Y814516D02*
X133546D01*
X125145Y804526D02*
X133540D01*
X125248Y814606D02*
X133437D01*
X125255Y804436D02*
X133430D01*
X125362Y814696D02*
X133323D01*
X125369Y804346D02*
X133316D01*
X125482Y814786D02*
X133203D01*
X125490Y804256D02*
X133195D01*
X125608Y814876D02*
X133077D01*
X125616Y804166D02*
X133069D01*
X125740Y814966D02*
X132945D01*
X125749Y804076D02*
X132936D01*
X125880Y815056D02*
X132805D01*
X125889Y803986D02*
X132796D01*
X126028Y815146D02*
X132657D01*
X126038Y803896D02*
X132647D01*
X126186Y815236D02*
X132499D01*
X126196Y803806D02*
X132489D01*
X126354Y815326D02*
X132331D01*
X126365Y803716D02*
X132320D01*
X126536Y815416D02*
X132149D01*
X126548Y803626D02*
X132137D01*
X126733Y815506D02*
X131952D01*
X126746Y803536D02*
X131939D01*
X126950Y815596D02*
X131735D01*
X126964Y803446D02*
X131721D01*
X127193Y815686D02*
X131492D01*
X127209Y803356D02*
X131476D01*
X127470Y815776D02*
X131215D01*
X127489Y803266D02*
X131196D01*
X127803Y815866D02*
X130882D01*
X127826Y803176D02*
X130859D01*
X128237Y815956D02*
X130448D01*
X128270Y803086D02*
X130415D01*
X129107Y816046D02*
X129578D01*
X122816Y749566D02*
X135869D01*
X122816Y749476D02*
X135869D01*
X122817Y749656D02*
X135868D01*
X122818Y749386D02*
X135868D01*
X122820Y749746D02*
X135865D01*
X122820Y749296D02*
X135865D01*
X122824Y749836D02*
X135862D01*
X122824Y749206D02*
X135861D01*
X122828Y749926D02*
X135857D01*
X122829Y749116D02*
X135856D01*
X122835Y750016D02*
X135850D01*
X122835Y749026D02*
X135850D01*
X122842Y750106D02*
X135843D01*
X122843Y748936D02*
X135842D01*
X122851Y750196D02*
X135834D01*
X122851Y748846D02*
X135834D01*
X122861Y750286D02*
X135824D01*
X122861Y748756D02*
X135824D01*
X122872Y750376D02*
X135813D01*
X122873Y748666D02*
X135812D01*
X122884Y750466D02*
X135801D01*
X122885Y748576D02*
X135800D01*
X122898Y750556D02*
X135787D01*
X122899Y748486D02*
X135786D01*
X122913Y750646D02*
X135772D01*
X122914Y748396D02*
X135771D01*
X122930Y750736D02*
X135755D01*
X122931Y748306D02*
X135754D01*
X122947Y750826D02*
X135738D01*
X122948Y748216D02*
X135737D01*
X122966Y750916D02*
X135719D01*
X122967Y748126D02*
X135718D01*
X122987Y751006D02*
X135698D01*
X122988Y748036D02*
X135697D01*
X123008Y751096D02*
X135677D01*
X123010Y747946D02*
X135675D01*
X123031Y751186D02*
X135654D01*
X123033Y747856D02*
X135652D01*
X123056Y751276D02*
X135629D01*
X123057Y747766D02*
X135628D01*
X123081Y751366D02*
X135604D01*
X123083Y747676D02*
X135602D01*
X123109Y751456D02*
X135576D01*
X123110Y747586D02*
X135575D01*
X123137Y751546D02*
X135548D01*
X123139Y747496D02*
X135546D01*
X123167Y751636D02*
X135518D01*
X123169Y747406D02*
X135516D01*
X123199Y751726D02*
X135486D01*
X123201Y747316D02*
X135484D01*
X123232Y751816D02*
X135453D01*
X123234Y747226D02*
X135451D01*
X123266Y751906D02*
X135419D01*
X123269Y747136D02*
X135417D01*
X123302Y751996D02*
X135383D01*
X123305Y747046D02*
X135380D01*
X123340Y752086D02*
X135345D01*
X123342Y746956D02*
X135343D01*
X123379Y752176D02*
X135306D01*
X123382Y746866D02*
X135303D01*
X123420Y752266D02*
X135265D01*
X123423Y746776D02*
X135262D01*
X123463Y752356D02*
X135222D01*
X123465Y746686D02*
X135220D01*
X123507Y752446D02*
X135178D01*
X123510Y746596D02*
X135175D01*
X123553Y752536D02*
X135132D01*
X123556Y746506D02*
X135129D01*
X123600Y752626D02*
X135085D01*
X123603Y746416D02*
X135082D01*
X123650Y752716D02*
X135035D01*
X123653Y746326D02*
X135032D01*
X123701Y752806D02*
X134984D01*
X123705Y746236D02*
X134980D01*
X123755Y752896D02*
X134930D01*
X123758Y746146D02*
X134927D01*
X123810Y752986D02*
X134875D01*
X123814Y746056D02*
X134871D01*
X123867Y753076D02*
X134818D01*
X123871Y745966D02*
X134814D01*
X123927Y753166D02*
X134758D01*
X123931Y745876D02*
X134754D01*
X123989Y753256D02*
X134697D01*
X123992Y745786D02*
X134693D01*
X124052Y753346D02*
X134633D01*
X124056Y745696D02*
X134629D01*
X124119Y753436D02*
X134566D01*
X124123Y745606D02*
X134562D01*
X124187Y753526D02*
X134498D01*
X124192Y745516D02*
X134493D01*
X124258Y753616D02*
X134427D01*
X124263Y745426D02*
X134422D01*
X124332Y753706D02*
X134353D01*
X124337Y745336D02*
X134348D01*
X124409Y753796D02*
X134276D01*
X124413Y745246D02*
X134272D01*
X124488Y753886D02*
X134197D01*
X124493Y745156D02*
X134192D01*
X124570Y753976D02*
X134115D01*
X124576Y745066D02*
X134109D01*
X124656Y754066D02*
X134029D01*
X124661Y744976D02*
X134024D01*
X124745Y754156D02*
X133940D01*
X124751Y744886D02*
X133934D01*
X124837Y754246D02*
X133848D01*
X124843Y744796D02*
X133842D01*
X124934Y754336D02*
X133751D01*
X124940Y744706D02*
X133745D01*
X125034Y754426D02*
X133651D01*
X125040Y744616D02*
X133645D01*
X125139Y754516D02*
X133546D01*
X125145Y744526D02*
X133540D01*
X125248Y754606D02*
X133437D01*
X125255Y744436D02*
X133430D01*
X125362Y754696D02*
X133323D01*
X125369Y744346D02*
X133316D01*
X125482Y754786D02*
X133203D01*
X125490Y744256D02*
X133195D01*
X125608Y754876D02*
X133077D01*
X125616Y744166D02*
X133069D01*
X125740Y754966D02*
X132945D01*
X125749Y744076D02*
X132936D01*
X125880Y755056D02*
X132805D01*
X125889Y743986D02*
X132796D01*
X126028Y755146D02*
X132657D01*
X126038Y743896D02*
X132647D01*
X126186Y755236D02*
X132499D01*
X126196Y743806D02*
X132489D01*
X126354Y755326D02*
X132331D01*
X126365Y743716D02*
X132320D01*
X126536Y755416D02*
X132149D01*
X126548Y743626D02*
X132137D01*
X126733Y755506D02*
X131952D01*
X126746Y743536D02*
X131939D01*
X126950Y755596D02*
X131735D01*
X126964Y743446D02*
X131721D01*
X127193Y755686D02*
X131492D01*
X127209Y743356D02*
X131476D01*
X127470Y755776D02*
X131215D01*
X127489Y743266D02*
X131196D01*
X127803Y755866D02*
X130882D01*
X127826Y743176D02*
X130859D01*
X128237Y755956D02*
X130448D01*
X128270Y743086D02*
X130415D01*
X129107Y756046D02*
X129578D01*
X122816Y689566D02*
X135869D01*
X122816Y689476D02*
X135869D01*
X122817Y689656D02*
X135868D01*
X122818Y689386D02*
X135868D01*
X122820Y689746D02*
X135865D01*
X122820Y689296D02*
X135865D01*
X122824Y689836D02*
X135862D01*
X122824Y689206D02*
X135861D01*
X122828Y689926D02*
X135857D01*
X122829Y689116D02*
X135856D01*
X122835Y690016D02*
X135850D01*
X122835Y689026D02*
X135850D01*
X122842Y690106D02*
X135843D01*
X122843Y688936D02*
X135842D01*
X122851Y690196D02*
X135834D01*
X122851Y688846D02*
X135834D01*
X122861Y690286D02*
X135824D01*
X122861Y688756D02*
X135824D01*
X122872Y690376D02*
X135813D01*
X122873Y688666D02*
X135812D01*
X122884Y690466D02*
X135801D01*
X122885Y688576D02*
X135800D01*
X122898Y690556D02*
X135787D01*
X122899Y688486D02*
X135786D01*
X122913Y690646D02*
X135772D01*
X122914Y688396D02*
X135771D01*
X122930Y690736D02*
X135755D01*
X122931Y688306D02*
X135754D01*
X122947Y690826D02*
X135738D01*
X122948Y688216D02*
X135737D01*
X122966Y690916D02*
X135719D01*
X122967Y688126D02*
X135718D01*
X122987Y691006D02*
X135698D01*
X122988Y688036D02*
X135697D01*
X123008Y691096D02*
X135677D01*
X123010Y687946D02*
X135675D01*
X123031Y691186D02*
X135654D01*
X123033Y687856D02*
X135652D01*
X123056Y691276D02*
X135629D01*
X123057Y687766D02*
X135628D01*
X123081Y691366D02*
X135604D01*
X123083Y687676D02*
X135602D01*
X123109Y691456D02*
X135576D01*
X123110Y687586D02*
X135575D01*
X123137Y691546D02*
X135548D01*
X123139Y687496D02*
X135546D01*
X123167Y691636D02*
X135518D01*
X123169Y687406D02*
X135516D01*
X123199Y691726D02*
X135486D01*
X123201Y687316D02*
X135484D01*
X123232Y691816D02*
X135453D01*
X123234Y687226D02*
X135451D01*
X123266Y691906D02*
X135419D01*
X123269Y687136D02*
X135417D01*
X123302Y691996D02*
X135383D01*
X123305Y687046D02*
X135380D01*
X123340Y692086D02*
X135345D01*
X123342Y686956D02*
X135343D01*
X123379Y692176D02*
X135306D01*
X123382Y686866D02*
X135303D01*
X123420Y692266D02*
X135265D01*
X123423Y686776D02*
X135262D01*
X123463Y692356D02*
X135222D01*
X123465Y686686D02*
X135220D01*
X123507Y692446D02*
X135178D01*
X123510Y686596D02*
X135175D01*
X123553Y692536D02*
X135132D01*
X123556Y686506D02*
X135129D01*
X123600Y692626D02*
X135085D01*
X123603Y686416D02*
X135082D01*
X123650Y692716D02*
X135035D01*
X123653Y686326D02*
X135032D01*
X123701Y692806D02*
X134984D01*
X123705Y686236D02*
X134980D01*
X123755Y692896D02*
X134930D01*
X123758Y686146D02*
X134927D01*
X123810Y692986D02*
X134875D01*
X123814Y686056D02*
X134871D01*
X123867Y693076D02*
X134818D01*
X123871Y685966D02*
X134814D01*
X123927Y693166D02*
X134758D01*
X123931Y685876D02*
X134754D01*
X123989Y693256D02*
X134697D01*
X123992Y685786D02*
X134693D01*
X124052Y693346D02*
X134633D01*
X124056Y685696D02*
X134629D01*
X124119Y693436D02*
X134566D01*
X124123Y685606D02*
X134562D01*
X124187Y693526D02*
X134498D01*
X124192Y685516D02*
X134493D01*
X124258Y693616D02*
X134427D01*
X124263Y685426D02*
X134422D01*
X124332Y693706D02*
X134353D01*
X124337Y685336D02*
X134348D01*
X124409Y693796D02*
X134276D01*
X124413Y685246D02*
X134272D01*
X124488Y693886D02*
X134197D01*
X124493Y685156D02*
X134192D01*
X124570Y693976D02*
X134115D01*
X124576Y685066D02*
X134109D01*
X124656Y694066D02*
X134029D01*
X124661Y684976D02*
X134024D01*
X124745Y694156D02*
X133940D01*
X124751Y684886D02*
X133934D01*
X124837Y694246D02*
X133848D01*
X124843Y684796D02*
X133842D01*
X124934Y694336D02*
X133751D01*
X124940Y684706D02*
X133745D01*
X125034Y694426D02*
X133651D01*
X125040Y684616D02*
X133645D01*
X125139Y694516D02*
X133546D01*
X125145Y684526D02*
X133540D01*
X125248Y694606D02*
X133437D01*
X125255Y684436D02*
X133430D01*
X125362Y694696D02*
X133323D01*
X125369Y684346D02*
X133316D01*
X125482Y694786D02*
X133203D01*
X125490Y684256D02*
X133195D01*
X125608Y694876D02*
X133077D01*
X125616Y684166D02*
X133069D01*
X125740Y694966D02*
X132945D01*
X125749Y684076D02*
X132936D01*
X125880Y695056D02*
X132805D01*
X125889Y683986D02*
X132796D01*
X126028Y695146D02*
X132657D01*
X126038Y683896D02*
X132647D01*
X126186Y695236D02*
X132499D01*
X126196Y683806D02*
X132489D01*
X126354Y695326D02*
X132331D01*
X126365Y683716D02*
X132320D01*
X126536Y695416D02*
X132149D01*
X126548Y683626D02*
X132137D01*
X126733Y695506D02*
X131952D01*
X126746Y683536D02*
X131939D01*
X126950Y695596D02*
X131735D01*
X126964Y683446D02*
X131721D01*
X127193Y695686D02*
X131492D01*
X127209Y683356D02*
X131476D01*
X127470Y695776D02*
X131215D01*
X127489Y683266D02*
X131196D01*
X127803Y695866D02*
X130882D01*
X127826Y683176D02*
X130859D01*
X128237Y695956D02*
X130448D01*
X128270Y683086D02*
X130415D01*
X129107Y696046D02*
X129578D01*
X122816Y209566D02*
X135869D01*
X122816Y209476D02*
X135869D01*
X122817Y209656D02*
X135868D01*
X122818Y209386D02*
X135868D01*
X122820Y209746D02*
X135865D01*
X122820Y209296D02*
X135865D01*
X122824Y209836D02*
X135862D01*
X122824Y209206D02*
X135861D01*
X122828Y209926D02*
X135857D01*
X122829Y209116D02*
X135856D01*
X122835Y210016D02*
X135850D01*
X122835Y209026D02*
X135850D01*
X122842Y210106D02*
X135843D01*
X122843Y208936D02*
X135842D01*
X122851Y210196D02*
X135834D01*
X122851Y208846D02*
X135834D01*
X122861Y210286D02*
X135824D01*
X122861Y208756D02*
X135824D01*
X122872Y210376D02*
X135813D01*
X122873Y208666D02*
X135812D01*
X122884Y210466D02*
X135801D01*
X122885Y208576D02*
X135800D01*
X122898Y210556D02*
X135787D01*
X122899Y208486D02*
X135786D01*
X122913Y210646D02*
X135772D01*
X122914Y208396D02*
X135771D01*
X122930Y210736D02*
X135755D01*
X122931Y208306D02*
X135754D01*
X122947Y210826D02*
X135738D01*
X122948Y208216D02*
X135737D01*
X122966Y210916D02*
X135719D01*
X122967Y208126D02*
X135718D01*
X122987Y211006D02*
X135698D01*
X122988Y208036D02*
X135697D01*
X123008Y211096D02*
X135677D01*
X123010Y207946D02*
X135675D01*
X123031Y211186D02*
X135654D01*
X123033Y207856D02*
X135652D01*
X123056Y211276D02*
X135629D01*
X123057Y207766D02*
X135628D01*
X123081Y211366D02*
X135604D01*
X123083Y207676D02*
X135602D01*
X123109Y211456D02*
X135576D01*
X123110Y207586D02*
X135575D01*
X123137Y211546D02*
X135548D01*
X123139Y207496D02*
X135546D01*
X123167Y211636D02*
X135518D01*
X123169Y207406D02*
X135516D01*
X123199Y211726D02*
X135486D01*
X123201Y207316D02*
X135484D01*
X123232Y211816D02*
X135453D01*
X123234Y207226D02*
X135451D01*
X123266Y211906D02*
X135419D01*
X123269Y207136D02*
X135417D01*
X123302Y211996D02*
X135383D01*
X123305Y207046D02*
X135380D01*
X123340Y212086D02*
X135345D01*
X123342Y206956D02*
X135343D01*
X123379Y212176D02*
X135306D01*
X123382Y206866D02*
X135303D01*
X123420Y212266D02*
X135265D01*
X123423Y206776D02*
X135262D01*
X123463Y212356D02*
X135222D01*
X123465Y206686D02*
X135220D01*
X123507Y212446D02*
X135178D01*
X123510Y206596D02*
X135175D01*
X123553Y212536D02*
X135132D01*
X123556Y206506D02*
X135129D01*
X123600Y212626D02*
X135085D01*
X123603Y206416D02*
X135082D01*
X123650Y212716D02*
X135035D01*
X123653Y206326D02*
X135032D01*
X123701Y212806D02*
X134984D01*
X123705Y206236D02*
X134980D01*
X123755Y212896D02*
X134930D01*
X123758Y206146D02*
X134927D01*
X123810Y212986D02*
X134875D01*
X123814Y206056D02*
X134871D01*
X123867Y213076D02*
X134818D01*
X123871Y205966D02*
X134814D01*
X123927Y213166D02*
X134758D01*
X123931Y205876D02*
X134754D01*
X123989Y213256D02*
X134697D01*
X123992Y205786D02*
X134693D01*
X124052Y213346D02*
X134633D01*
X124056Y205696D02*
X134629D01*
X124119Y213436D02*
X134566D01*
X124123Y205606D02*
X134562D01*
X124187Y213526D02*
X134498D01*
X124192Y205516D02*
X134493D01*
X124258Y213616D02*
X134427D01*
X124263Y205426D02*
X134422D01*
X124332Y213706D02*
X134353D01*
X124337Y205336D02*
X134348D01*
X124409Y213796D02*
X134276D01*
X124413Y205246D02*
X134272D01*
X124488Y213886D02*
X134197D01*
X124493Y205156D02*
X134192D01*
X124570Y213976D02*
X134115D01*
X124576Y205066D02*
X134109D01*
X124656Y214066D02*
X134029D01*
X124661Y204976D02*
X134024D01*
X124745Y214156D02*
X133940D01*
X124751Y204886D02*
X133934D01*
X124837Y214246D02*
X133848D01*
X124843Y204796D02*
X133842D01*
X124934Y214336D02*
X133751D01*
X124940Y204706D02*
X133745D01*
X125034Y214426D02*
X133651D01*
X125040Y204616D02*
X133645D01*
X125139Y214516D02*
X133546D01*
X125145Y204526D02*
X133540D01*
X125248Y214606D02*
X133437D01*
X125255Y204436D02*
X133430D01*
X125362Y214696D02*
X133323D01*
X125369Y204346D02*
X133316D01*
X125482Y214786D02*
X133203D01*
X125490Y204256D02*
X133195D01*
X125608Y214876D02*
X133077D01*
X125616Y204166D02*
X133069D01*
X125740Y214966D02*
X132945D01*
X125749Y204076D02*
X132936D01*
X125880Y215056D02*
X132805D01*
X125889Y203986D02*
X132796D01*
X126028Y215146D02*
X132657D01*
X126038Y203896D02*
X132647D01*
X126186Y215236D02*
X132499D01*
X126196Y203806D02*
X132489D01*
X126354Y215326D02*
X132331D01*
X126365Y203716D02*
X132320D01*
X126536Y215416D02*
X132149D01*
X126548Y203626D02*
X132137D01*
X126733Y215506D02*
X131952D01*
X126746Y203536D02*
X131939D01*
X126950Y215596D02*
X131735D01*
X126964Y203446D02*
X131721D01*
X127193Y215686D02*
X131492D01*
X127209Y203356D02*
X131476D01*
X127470Y215776D02*
X131215D01*
X127489Y203266D02*
X131196D01*
X127803Y215866D02*
X130882D01*
X127826Y203176D02*
X130859D01*
X128237Y215956D02*
X130448D01*
X128270Y203086D02*
X130415D01*
X129107Y216046D02*
X129578D01*
X122816Y269566D02*
X135869D01*
X122816Y269476D02*
X135869D01*
X122817Y269656D02*
X135868D01*
X122818Y269386D02*
X135868D01*
X122820Y269746D02*
X135865D01*
X122820Y269296D02*
X135865D01*
X122824Y269836D02*
X135862D01*
X122824Y269206D02*
X135861D01*
X122828Y269926D02*
X135857D01*
X122829Y269116D02*
X135856D01*
X122835Y270016D02*
X135850D01*
X122835Y269026D02*
X135850D01*
X122842Y270106D02*
X135843D01*
X122843Y268936D02*
X135842D01*
X122851Y270196D02*
X135834D01*
X122851Y268846D02*
X135834D01*
X122861Y270286D02*
X135824D01*
X122861Y268756D02*
X135824D01*
X122872Y270376D02*
X135813D01*
X122873Y268666D02*
X135812D01*
X122884Y270466D02*
X135801D01*
X122885Y268576D02*
X135800D01*
X122898Y270556D02*
X135787D01*
X122899Y268486D02*
X135786D01*
X122913Y270646D02*
X135772D01*
X122914Y268396D02*
X135771D01*
X122930Y270736D02*
X135755D01*
X122931Y268306D02*
X135754D01*
X122947Y270826D02*
X135738D01*
X122948Y268216D02*
X135737D01*
X122966Y270916D02*
X135719D01*
X122967Y268126D02*
X135718D01*
X122987Y271006D02*
X135698D01*
X122988Y268036D02*
X135697D01*
X123008Y271096D02*
X135677D01*
X123010Y267946D02*
X135675D01*
X123031Y271186D02*
X135654D01*
X123033Y267856D02*
X135652D01*
X123056Y271276D02*
X135629D01*
X123057Y267766D02*
X135628D01*
X123081Y271366D02*
X135604D01*
X123083Y267676D02*
X135602D01*
X123109Y271456D02*
X135576D01*
X123110Y267586D02*
X135575D01*
X123137Y271546D02*
X135548D01*
X123139Y267496D02*
X135546D01*
X123167Y271636D02*
X135518D01*
X123169Y267406D02*
X135516D01*
X123199Y271726D02*
X135486D01*
X123201Y267316D02*
X135484D01*
X123232Y271816D02*
X135453D01*
X123234Y267226D02*
X135451D01*
X123266Y271906D02*
X135419D01*
X123269Y267136D02*
X135417D01*
X123302Y271996D02*
X135383D01*
X123305Y267046D02*
X135380D01*
X123340Y272086D02*
X135345D01*
X123342Y266956D02*
X135343D01*
X123379Y272176D02*
X135306D01*
X123382Y266866D02*
X135303D01*
X123420Y272266D02*
X135265D01*
X123423Y266776D02*
X135262D01*
X123463Y272356D02*
X135222D01*
X123465Y266686D02*
X135220D01*
X123507Y272446D02*
X135178D01*
X123510Y266596D02*
X135175D01*
X123553Y272536D02*
X135132D01*
X123556Y266506D02*
X135129D01*
X123600Y272626D02*
X135085D01*
X123603Y266416D02*
X135082D01*
X123650Y272716D02*
X135035D01*
X123653Y266326D02*
X135032D01*
X123701Y272806D02*
X134984D01*
X123705Y266236D02*
X134980D01*
X123755Y272896D02*
X134930D01*
X123758Y266146D02*
X134927D01*
X123810Y272986D02*
X134875D01*
X123814Y266056D02*
X134871D01*
X123867Y273076D02*
X134818D01*
X123871Y265966D02*
X134814D01*
X123927Y273166D02*
X134758D01*
X123931Y265876D02*
X134754D01*
X123989Y273256D02*
X134697D01*
X123992Y265786D02*
X134693D01*
X124052Y273346D02*
X134633D01*
X124056Y265696D02*
X134629D01*
X124119Y273436D02*
X134566D01*
X124123Y265606D02*
X134562D01*
X124187Y273526D02*
X134498D01*
X124192Y265516D02*
X134493D01*
X124258Y273616D02*
X134427D01*
X124263Y265426D02*
X134422D01*
X124332Y273706D02*
X134353D01*
X124337Y265336D02*
X134348D01*
X124409Y273796D02*
X134276D01*
X124413Y265246D02*
X134272D01*
X124488Y273886D02*
X134197D01*
X124493Y265156D02*
X134192D01*
X124570Y273976D02*
X134115D01*
X124576Y265066D02*
X134109D01*
X124656Y274066D02*
X134029D01*
X124661Y264976D02*
X134024D01*
X124745Y274156D02*
X133940D01*
X124751Y264886D02*
X133934D01*
X124837Y274246D02*
X133848D01*
X124843Y264796D02*
X133842D01*
X124934Y274336D02*
X133751D01*
X124940Y264706D02*
X133745D01*
X125034Y274426D02*
X133651D01*
X125040Y264616D02*
X133645D01*
X125139Y274516D02*
X133546D01*
X125145Y264526D02*
X133540D01*
X125248Y274606D02*
X133437D01*
X125255Y264436D02*
X133430D01*
X125362Y274696D02*
X133323D01*
X125369Y264346D02*
X133316D01*
X125482Y274786D02*
X133203D01*
X125490Y264256D02*
X133195D01*
X125608Y274876D02*
X133077D01*
X125616Y264166D02*
X133069D01*
X125740Y274966D02*
X132945D01*
X125749Y264076D02*
X132936D01*
X125880Y275056D02*
X132805D01*
X125889Y263986D02*
X132796D01*
X126028Y275146D02*
X132657D01*
X126038Y263896D02*
X132647D01*
X126186Y275236D02*
X132499D01*
X126196Y263806D02*
X132489D01*
X126354Y275326D02*
X132331D01*
X126365Y263716D02*
X132320D01*
X126536Y275416D02*
X132149D01*
X126548Y263626D02*
X132137D01*
X126733Y275506D02*
X131952D01*
X126746Y263536D02*
X131939D01*
X126950Y275596D02*
X131735D01*
X126964Y263446D02*
X131721D01*
X127193Y275686D02*
X131492D01*
X127209Y263356D02*
X131476D01*
X127470Y275776D02*
X131215D01*
X127489Y263266D02*
X131196D01*
X127803Y275866D02*
X130882D01*
X127826Y263176D02*
X130859D01*
X128237Y275956D02*
X130448D01*
X128270Y263086D02*
X130415D01*
X129107Y276046D02*
X129578D01*
X122816Y329566D02*
X135869D01*
X122816Y329476D02*
X135869D01*
X122817Y329656D02*
X135868D01*
X122818Y329386D02*
X135868D01*
X122820Y329746D02*
X135865D01*
X122820Y329296D02*
X135865D01*
X122824Y329836D02*
X135862D01*
X122824Y329206D02*
X135861D01*
X122828Y329926D02*
X135857D01*
X122829Y329116D02*
X135856D01*
X122835Y330016D02*
X135850D01*
X122835Y329026D02*
X135850D01*
X122842Y330106D02*
X135843D01*
X122843Y328936D02*
X135842D01*
X122851Y330196D02*
X135834D01*
X122851Y328846D02*
X135834D01*
X122861Y330286D02*
X135824D01*
X122861Y328756D02*
X135824D01*
X122872Y330376D02*
X135813D01*
X122873Y328666D02*
X135812D01*
X122884Y330466D02*
X135801D01*
X122885Y328576D02*
X135800D01*
X122898Y330556D02*
X135787D01*
X122899Y328486D02*
X135786D01*
X122913Y330646D02*
X135772D01*
X122914Y328396D02*
X135771D01*
X122930Y330736D02*
X135755D01*
X122931Y328306D02*
X135754D01*
X122947Y330826D02*
X135738D01*
X122948Y328216D02*
X135737D01*
X122966Y330916D02*
X135719D01*
X122967Y328126D02*
X135718D01*
X122987Y331006D02*
X135698D01*
X122988Y328036D02*
X135697D01*
X123008Y331096D02*
X135677D01*
X123010Y327946D02*
X135675D01*
X123031Y331186D02*
X135654D01*
X123033Y327856D02*
X135652D01*
X123056Y331276D02*
X135629D01*
X123057Y327766D02*
X135628D01*
X123081Y331366D02*
X135604D01*
X123083Y327676D02*
X135602D01*
X123109Y331456D02*
X135576D01*
X123110Y327586D02*
X135575D01*
X123137Y331546D02*
X135548D01*
X123139Y327496D02*
X135546D01*
X123167Y331636D02*
X135518D01*
X123169Y327406D02*
X135516D01*
X123199Y331726D02*
X135486D01*
X123201Y327316D02*
X135484D01*
X123232Y331816D02*
X135453D01*
X123234Y327226D02*
X135451D01*
X123266Y331906D02*
X135419D01*
X123269Y327136D02*
X135417D01*
X123302Y331996D02*
X135383D01*
X123305Y327046D02*
X135380D01*
X123340Y332086D02*
X135345D01*
X123342Y326956D02*
X135343D01*
X123379Y332176D02*
X135306D01*
X123382Y326866D02*
X135303D01*
X123420Y332266D02*
X135265D01*
X123423Y326776D02*
X135262D01*
X123463Y332356D02*
X135222D01*
X123465Y326686D02*
X135220D01*
X123507Y332446D02*
X135178D01*
X123510Y326596D02*
X135175D01*
X123553Y332536D02*
X135132D01*
X123556Y326506D02*
X135129D01*
X123600Y332626D02*
X135085D01*
X123603Y326416D02*
X135082D01*
X123650Y332716D02*
X135035D01*
X123653Y326326D02*
X135032D01*
X123701Y332806D02*
X134984D01*
X123705Y326236D02*
X134980D01*
X123755Y332896D02*
X134930D01*
X123758Y326146D02*
X134927D01*
X123810Y332986D02*
X134875D01*
X123814Y326056D02*
X134871D01*
X123867Y333076D02*
X134818D01*
X123871Y325966D02*
X134814D01*
X123927Y333166D02*
X134758D01*
X123931Y325876D02*
X134754D01*
X123989Y333256D02*
X134697D01*
X123992Y325786D02*
X134693D01*
X124052Y333346D02*
X134633D01*
X124056Y325696D02*
X134629D01*
X124119Y333436D02*
X134566D01*
X124123Y325606D02*
X134562D01*
X124187Y333526D02*
X134498D01*
X124192Y325516D02*
X134493D01*
X124258Y333616D02*
X134427D01*
X124263Y325426D02*
X134422D01*
X124332Y333706D02*
X134353D01*
X124337Y325336D02*
X134348D01*
X124409Y333796D02*
X134276D01*
X124413Y325246D02*
X134272D01*
X124488Y333886D02*
X134197D01*
X124493Y325156D02*
X134192D01*
X124570Y333976D02*
X134115D01*
X124576Y325066D02*
X134109D01*
X124656Y334066D02*
X134029D01*
X124661Y324976D02*
X134024D01*
X124745Y334156D02*
X133940D01*
X124751Y324886D02*
X133934D01*
X124837Y334246D02*
X133848D01*
X124843Y324796D02*
X133842D01*
X124934Y334336D02*
X133751D01*
X124940Y324706D02*
X133745D01*
X125034Y334426D02*
X133651D01*
X125040Y324616D02*
X133645D01*
X125139Y334516D02*
X133546D01*
X125145Y324526D02*
X133540D01*
X125248Y334606D02*
X133437D01*
X125255Y324436D02*
X133430D01*
X125362Y334696D02*
X133323D01*
X125369Y324346D02*
X133316D01*
X125482Y334786D02*
X133203D01*
X125490Y324256D02*
X133195D01*
X125608Y334876D02*
X133077D01*
X125616Y324166D02*
X133069D01*
X125740Y334966D02*
X132945D01*
X125749Y324076D02*
X132936D01*
X125880Y335056D02*
X132805D01*
X125889Y323986D02*
X132796D01*
X126028Y335146D02*
X132657D01*
X126038Y323896D02*
X132647D01*
X126186Y335236D02*
X132499D01*
X126196Y323806D02*
X132489D01*
X126354Y335326D02*
X132331D01*
X126365Y323716D02*
X132320D01*
X126536Y335416D02*
X132149D01*
X126548Y323626D02*
X132137D01*
X126733Y335506D02*
X131952D01*
X126746Y323536D02*
X131939D01*
X126950Y335596D02*
X131735D01*
X126964Y323446D02*
X131721D01*
X127193Y335686D02*
X131492D01*
X127209Y323356D02*
X131476D01*
X127470Y335776D02*
X131215D01*
X127489Y323266D02*
X131196D01*
X127803Y335866D02*
X130882D01*
X127826Y323176D02*
X130859D01*
X128237Y335956D02*
X130448D01*
X128270Y323086D02*
X130415D01*
X129107Y336046D02*
X129578D01*
X122816Y389566D02*
X135869D01*
X122816Y389476D02*
X135869D01*
X122817Y389656D02*
X135868D01*
X122818Y389386D02*
X135868D01*
X122820Y389746D02*
X135865D01*
X122820Y389296D02*
X135865D01*
X122824Y389836D02*
X135862D01*
X122824Y389206D02*
X135861D01*
X122828Y389926D02*
X135857D01*
X122829Y389116D02*
X135856D01*
X122835Y390016D02*
X135850D01*
X122835Y389026D02*
X135850D01*
X122842Y390106D02*
X135843D01*
X122843Y388936D02*
X135842D01*
X122851Y390196D02*
X135834D01*
X122851Y388846D02*
X135834D01*
X122861Y390286D02*
X135824D01*
X122861Y388756D02*
X135824D01*
X122872Y390376D02*
X135813D01*
X122873Y388666D02*
X135812D01*
X122884Y390466D02*
X135801D01*
X122885Y388576D02*
X135800D01*
X122898Y390556D02*
X135787D01*
X122899Y388486D02*
X135786D01*
X122913Y390646D02*
X135772D01*
X122914Y388396D02*
X135771D01*
X122930Y390736D02*
X135755D01*
X122931Y388306D02*
X135754D01*
X122947Y390826D02*
X135738D01*
X122948Y388216D02*
X135737D01*
X122966Y390916D02*
X135719D01*
X122967Y388126D02*
X135718D01*
X122987Y391006D02*
X135698D01*
X122988Y388036D02*
X135697D01*
X123008Y391096D02*
X135677D01*
X123010Y387946D02*
X135675D01*
X123031Y391186D02*
X135654D01*
X123033Y387856D02*
X135652D01*
X123056Y391276D02*
X135629D01*
X123057Y387766D02*
X135628D01*
X123081Y391366D02*
X135604D01*
X123083Y387676D02*
X135602D01*
X123109Y391456D02*
X135576D01*
X123110Y387586D02*
X135575D01*
X123137Y391546D02*
X135548D01*
X123139Y387496D02*
X135546D01*
X123167Y391636D02*
X135518D01*
X123169Y387406D02*
X135516D01*
X123199Y391726D02*
X135486D01*
X123201Y387316D02*
X135484D01*
X123232Y391816D02*
X135453D01*
X123234Y387226D02*
X135451D01*
X123266Y391906D02*
X135419D01*
X123269Y387136D02*
X135417D01*
X123302Y391996D02*
X135383D01*
X123305Y387046D02*
X135380D01*
X123340Y392086D02*
X135345D01*
X123342Y386956D02*
X135343D01*
X123379Y392176D02*
X135306D01*
X123382Y386866D02*
X135303D01*
X123420Y392266D02*
X135265D01*
X123423Y386776D02*
X135262D01*
X123463Y392356D02*
X135222D01*
X123465Y386686D02*
X135220D01*
X123507Y392446D02*
X135178D01*
X123510Y386596D02*
X135175D01*
X123553Y392536D02*
X135132D01*
X123556Y386506D02*
X135129D01*
X123600Y392626D02*
X135085D01*
X123603Y386416D02*
X135082D01*
X123650Y392716D02*
X135035D01*
X123653Y386326D02*
X135032D01*
X123701Y392806D02*
X134984D01*
X123705Y386236D02*
X134980D01*
X123755Y392896D02*
X134930D01*
X123758Y386146D02*
X134927D01*
X123810Y392986D02*
X134875D01*
X123814Y386056D02*
X134871D01*
X123867Y393076D02*
X134818D01*
X123871Y385966D02*
X134814D01*
X123927Y393166D02*
X134758D01*
X123931Y385876D02*
X134754D01*
X123989Y393256D02*
X134697D01*
X123992Y385786D02*
X134693D01*
X124052Y393346D02*
X134633D01*
X124056Y385696D02*
X134629D01*
X124119Y393436D02*
X134566D01*
X124123Y385606D02*
X134562D01*
X124187Y393526D02*
X134498D01*
X124192Y385516D02*
X134493D01*
X124258Y393616D02*
X134427D01*
X124263Y385426D02*
X134422D01*
X124332Y393706D02*
X134353D01*
X124337Y385336D02*
X134348D01*
X124409Y393796D02*
X134276D01*
X124413Y385246D02*
X134272D01*
X124488Y393886D02*
X134197D01*
X124493Y385156D02*
X134192D01*
X124570Y393976D02*
X134115D01*
X124576Y385066D02*
X134109D01*
X124656Y394066D02*
X134029D01*
X124661Y384976D02*
X134024D01*
X124745Y394156D02*
X133940D01*
X124751Y384886D02*
X133934D01*
X124837Y394246D02*
X133848D01*
X124843Y384796D02*
X133842D01*
X124934Y394336D02*
X133751D01*
X124940Y384706D02*
X133745D01*
X125034Y394426D02*
X133651D01*
X125040Y384616D02*
X133645D01*
X125139Y394516D02*
X133546D01*
X125145Y384526D02*
X133540D01*
X125248Y394606D02*
X133437D01*
X125255Y384436D02*
X133430D01*
X125362Y394696D02*
X133323D01*
X125369Y384346D02*
X133316D01*
X125482Y394786D02*
X133203D01*
X125490Y384256D02*
X133195D01*
X125608Y394876D02*
X133077D01*
X125616Y384166D02*
X133069D01*
X125740Y394966D02*
X132945D01*
X125749Y384076D02*
X132936D01*
X125880Y395056D02*
X132805D01*
X125889Y383986D02*
X132796D01*
X126028Y395146D02*
X132657D01*
X126038Y383896D02*
X132647D01*
X126186Y395236D02*
X132499D01*
X126196Y383806D02*
X132489D01*
X126354Y395326D02*
X132331D01*
X126365Y383716D02*
X132320D01*
X126536Y395416D02*
X132149D01*
X126548Y383626D02*
X132137D01*
X126733Y395506D02*
X131952D01*
X126746Y383536D02*
X131939D01*
X126950Y395596D02*
X131735D01*
X126964Y383446D02*
X131721D01*
X127193Y395686D02*
X131492D01*
X127209Y383356D02*
X131476D01*
X127470Y395776D02*
X131215D01*
X127489Y383266D02*
X131196D01*
X127803Y395866D02*
X130882D01*
X127826Y383176D02*
X130859D01*
X128237Y395956D02*
X130448D01*
X128270Y383086D02*
X130415D01*
X129107Y396046D02*
X129578D01*
X122816Y449566D02*
X135869D01*
X122816Y449476D02*
X135869D01*
X122817Y449656D02*
X135868D01*
X122818Y449386D02*
X135868D01*
X122820Y449746D02*
X135865D01*
X122820Y449296D02*
X135865D01*
X122824Y449836D02*
X135862D01*
X122824Y449206D02*
X135861D01*
X122828Y449926D02*
X135857D01*
X122829Y449116D02*
X135856D01*
X122835Y450016D02*
X135850D01*
X122835Y449026D02*
X135850D01*
X122842Y450106D02*
X135843D01*
X122843Y448936D02*
X135842D01*
X122851Y450196D02*
X135834D01*
X122851Y448846D02*
X135834D01*
X122861Y450286D02*
X135824D01*
X122861Y448756D02*
X135824D01*
X122872Y450376D02*
X135813D01*
X122873Y448666D02*
X135812D01*
X122884Y450466D02*
X135801D01*
X122885Y448576D02*
X135800D01*
X122898Y450556D02*
X135787D01*
X122899Y448486D02*
X135786D01*
X122913Y450646D02*
X135772D01*
X122914Y448396D02*
X135771D01*
X122930Y450736D02*
X135755D01*
X122931Y448306D02*
X135754D01*
X122947Y450826D02*
X135738D01*
X122948Y448216D02*
X135737D01*
X122966Y450916D02*
X135719D01*
X122967Y448126D02*
X135718D01*
X122987Y451006D02*
X135698D01*
X122988Y448036D02*
X135697D01*
X123008Y451096D02*
X135677D01*
X123010Y447946D02*
X135675D01*
X123031Y451186D02*
X135654D01*
X123033Y447856D02*
X135652D01*
X123056Y451276D02*
X135629D01*
X123057Y447766D02*
X135628D01*
X123081Y451366D02*
X135604D01*
X123083Y447676D02*
X135602D01*
X123109Y451456D02*
X135576D01*
X123110Y447586D02*
X135575D01*
X123137Y451546D02*
X135548D01*
X123139Y447496D02*
X135546D01*
X123167Y451636D02*
X135518D01*
X123169Y447406D02*
X135516D01*
X123199Y451726D02*
X135486D01*
X123201Y447316D02*
X135484D01*
X123232Y451816D02*
X135453D01*
X123234Y447226D02*
X135451D01*
X123266Y451906D02*
X135419D01*
X123269Y447136D02*
X135417D01*
X123302Y451996D02*
X135383D01*
X123305Y447046D02*
X135380D01*
X123340Y452086D02*
X135345D01*
X123342Y446956D02*
X135343D01*
X123379Y452176D02*
X135306D01*
X123382Y446866D02*
X135303D01*
X123420Y452266D02*
X135265D01*
X123423Y446776D02*
X135262D01*
X123463Y452356D02*
X135222D01*
X123465Y446686D02*
X135220D01*
X123507Y452446D02*
X135178D01*
X123510Y446596D02*
X135175D01*
X123553Y452536D02*
X135132D01*
X123556Y446506D02*
X135129D01*
X123600Y452626D02*
X135085D01*
X123603Y446416D02*
X135082D01*
X123650Y452716D02*
X135035D01*
X123653Y446326D02*
X135032D01*
X123701Y452806D02*
X134984D01*
X123705Y446236D02*
X134980D01*
X123755Y452896D02*
X134930D01*
X123758Y446146D02*
X134927D01*
X123810Y452986D02*
X134875D01*
X123814Y446056D02*
X134871D01*
X123867Y453076D02*
X134818D01*
X123871Y445966D02*
X134814D01*
X123927Y453166D02*
X134758D01*
X123931Y445876D02*
X134754D01*
X123989Y453256D02*
X134697D01*
X123992Y445786D02*
X134693D01*
X124052Y453346D02*
X134633D01*
X124056Y445696D02*
X134629D01*
X124119Y453436D02*
X134566D01*
X124123Y445606D02*
X134562D01*
X124187Y453526D02*
X134498D01*
X124192Y445516D02*
X134493D01*
X124258Y453616D02*
X134427D01*
X124263Y445426D02*
X134422D01*
X124332Y453706D02*
X134353D01*
X124337Y445336D02*
X134348D01*
X124409Y453796D02*
X134276D01*
X124413Y445246D02*
X134272D01*
X124488Y453886D02*
X134197D01*
X124493Y445156D02*
X134192D01*
X124570Y453976D02*
X134115D01*
X124576Y445066D02*
X134109D01*
X124656Y454066D02*
X134029D01*
X124661Y444976D02*
X134024D01*
X124745Y454156D02*
X133940D01*
X124751Y444886D02*
X133934D01*
X124837Y454246D02*
X133848D01*
X124843Y444796D02*
X133842D01*
X124934Y454336D02*
X133751D01*
X124940Y444706D02*
X133745D01*
X125034Y454426D02*
X133651D01*
X125040Y444616D02*
X133645D01*
X125139Y454516D02*
X133546D01*
X125145Y444526D02*
X133540D01*
X125248Y454606D02*
X133437D01*
X125255Y444436D02*
X133430D01*
X125362Y454696D02*
X133323D01*
X125369Y444346D02*
X133316D01*
X125482Y454786D02*
X133203D01*
X125490Y444256D02*
X133195D01*
X125608Y454876D02*
X133077D01*
X125616Y444166D02*
X133069D01*
X125740Y454966D02*
X132945D01*
X125749Y444076D02*
X132936D01*
X125880Y455056D02*
X132805D01*
X125889Y443986D02*
X132796D01*
X126028Y455146D02*
X132657D01*
X126038Y443896D02*
X132647D01*
X126186Y455236D02*
X132499D01*
X126196Y443806D02*
X132489D01*
X126354Y455326D02*
X132331D01*
X126365Y443716D02*
X132320D01*
X126536Y455416D02*
X132149D01*
X126548Y443626D02*
X132137D01*
X126733Y455506D02*
X131952D01*
X126746Y443536D02*
X131939D01*
X126950Y455596D02*
X131735D01*
X126964Y443446D02*
X131721D01*
X127193Y455686D02*
X131492D01*
X127209Y443356D02*
X131476D01*
X127470Y455776D02*
X131215D01*
X127489Y443266D02*
X131196D01*
X127803Y455866D02*
X130882D01*
X127826Y443176D02*
X130859D01*
X128237Y455956D02*
X130448D01*
X128270Y443086D02*
X130415D01*
X129107Y456046D02*
X129578D01*
X122816Y509566D02*
X135869D01*
X122816Y509476D02*
X135869D01*
X122817Y509656D02*
X135868D01*
X122818Y509386D02*
X135868D01*
X122820Y509746D02*
X135865D01*
X122820Y509296D02*
X135865D01*
X122824Y509836D02*
X135862D01*
X122824Y509206D02*
X135861D01*
X122828Y509926D02*
X135857D01*
X122829Y509116D02*
X135856D01*
X122835Y510016D02*
X135850D01*
X122835Y509026D02*
X135850D01*
X122842Y510106D02*
X135843D01*
X122843Y508936D02*
X135842D01*
X122851Y510196D02*
X135834D01*
X122851Y508846D02*
X135834D01*
X122861Y510286D02*
X135824D01*
X122861Y508756D02*
X135824D01*
X122872Y510376D02*
X135813D01*
X122873Y508666D02*
X135812D01*
X122884Y510466D02*
X135801D01*
X122885Y508576D02*
X135800D01*
X122898Y510556D02*
X135787D01*
X122899Y508486D02*
X135786D01*
X122913Y510646D02*
X135772D01*
X122914Y508396D02*
X135771D01*
X122930Y510736D02*
X135755D01*
X122931Y508306D02*
X135754D01*
X122947Y510826D02*
X135738D01*
X122948Y508216D02*
X135737D01*
X122966Y510916D02*
X135719D01*
X122967Y508126D02*
X135718D01*
X122987Y511006D02*
X135698D01*
X122988Y508036D02*
X135697D01*
X123008Y511096D02*
X135677D01*
X123010Y507946D02*
X135675D01*
X123031Y511186D02*
X135654D01*
X123033Y507856D02*
X135652D01*
X123056Y511276D02*
X135629D01*
X123057Y507766D02*
X135628D01*
X123081Y511366D02*
X135604D01*
X123083Y507676D02*
X135602D01*
X123109Y511456D02*
X135576D01*
X123110Y507586D02*
X135575D01*
X123137Y511546D02*
X135548D01*
X123139Y507496D02*
X135546D01*
X123167Y511636D02*
X135518D01*
X123169Y507406D02*
X135516D01*
X123199Y511726D02*
X135486D01*
X123201Y507316D02*
X135484D01*
X123232Y511816D02*
X135453D01*
X123234Y507226D02*
X135451D01*
X123266Y511906D02*
X135419D01*
X123269Y507136D02*
X135417D01*
X123302Y511996D02*
X135383D01*
X123305Y507046D02*
X135380D01*
X123340Y512086D02*
X135345D01*
X123342Y506956D02*
X135343D01*
X123379Y512176D02*
X135306D01*
X123382Y506866D02*
X135303D01*
X123420Y512266D02*
X135265D01*
X123423Y506776D02*
X135262D01*
X123463Y512356D02*
X135222D01*
X123465Y506686D02*
X135220D01*
X123507Y512446D02*
X135178D01*
X123510Y506596D02*
X135175D01*
X123553Y512536D02*
X135132D01*
X123556Y506506D02*
X135129D01*
X123600Y512626D02*
X135085D01*
X123603Y506416D02*
X135082D01*
X123650Y512716D02*
X135035D01*
X123653Y506326D02*
X135032D01*
X123701Y512806D02*
X134984D01*
X123705Y506236D02*
X134980D01*
X123755Y512896D02*
X134930D01*
X123758Y506146D02*
X134927D01*
X123810Y512986D02*
X134875D01*
X123814Y506056D02*
X134871D01*
X123867Y513076D02*
X134818D01*
X123871Y505966D02*
X134814D01*
X123927Y513166D02*
X134758D01*
X123931Y505876D02*
X134754D01*
X123989Y513256D02*
X134697D01*
X123992Y505786D02*
X134693D01*
X124052Y513346D02*
X134633D01*
X124056Y505696D02*
X134629D01*
X124119Y513436D02*
X134566D01*
X124123Y505606D02*
X134562D01*
X124187Y513526D02*
X134498D01*
X124192Y505516D02*
X134493D01*
X124258Y513616D02*
X134427D01*
X124263Y505426D02*
X134422D01*
X124332Y513706D02*
X134353D01*
X124337Y505336D02*
X134348D01*
X124409Y513796D02*
X134276D01*
X124413Y505246D02*
X134272D01*
X124488Y513886D02*
X134197D01*
X124493Y505156D02*
X134192D01*
X124570Y513976D02*
X134115D01*
X124576Y505066D02*
X134109D01*
X124656Y514066D02*
X134029D01*
X124661Y504976D02*
X134024D01*
X124745Y514156D02*
X133940D01*
X124751Y504886D02*
X133934D01*
X124837Y514246D02*
X133848D01*
X124843Y504796D02*
X133842D01*
X124934Y514336D02*
X133751D01*
X124940Y504706D02*
X133745D01*
X125034Y514426D02*
X133651D01*
X125040Y504616D02*
X133645D01*
X125139Y514516D02*
X133546D01*
X125145Y504526D02*
X133540D01*
X125248Y514606D02*
X133437D01*
X125255Y504436D02*
X133430D01*
X125362Y514696D02*
X133323D01*
X125369Y504346D02*
X133316D01*
X125482Y514786D02*
X133203D01*
X125490Y504256D02*
X133195D01*
X125608Y514876D02*
X133077D01*
X125616Y504166D02*
X133069D01*
X125740Y514966D02*
X132945D01*
X125749Y504076D02*
X132936D01*
X125880Y515056D02*
X132805D01*
X125889Y503986D02*
X132796D01*
X126028Y515146D02*
X132657D01*
X126038Y503896D02*
X132647D01*
X126186Y515236D02*
X132499D01*
X126196Y503806D02*
X132489D01*
X126354Y515326D02*
X132331D01*
X126365Y503716D02*
X132320D01*
X126536Y515416D02*
X132149D01*
X126548Y503626D02*
X132137D01*
X126733Y515506D02*
X131952D01*
X126746Y503536D02*
X131939D01*
X126950Y515596D02*
X131735D01*
X126964Y503446D02*
X131721D01*
X127193Y515686D02*
X131492D01*
X127209Y503356D02*
X131476D01*
X127470Y515776D02*
X131215D01*
X127489Y503266D02*
X131196D01*
X127803Y515866D02*
X130882D01*
X127826Y503176D02*
X130859D01*
X128237Y515956D02*
X130448D01*
X128270Y503086D02*
X130415D01*
X129107Y516046D02*
X129578D01*
X122816Y569566D02*
X135869D01*
X122816Y569476D02*
X135869D01*
X122817Y569656D02*
X135868D01*
X122818Y569386D02*
X135868D01*
X122820Y569746D02*
X135865D01*
X122820Y569296D02*
X135865D01*
X122824Y569836D02*
X135862D01*
X122824Y569206D02*
X135861D01*
X122828Y569926D02*
X135857D01*
X122829Y569116D02*
X135856D01*
X122835Y570016D02*
X135850D01*
X122835Y569026D02*
X135850D01*
X122842Y570106D02*
X135843D01*
X122843Y568936D02*
X135842D01*
X122851Y570196D02*
X135834D01*
X122851Y568846D02*
X135834D01*
X122861Y570286D02*
X135824D01*
X122861Y568756D02*
X135824D01*
X122872Y570376D02*
X135813D01*
X122873Y568666D02*
X135812D01*
X122884Y570466D02*
X135801D01*
X122885Y568576D02*
X135800D01*
X122898Y570556D02*
X135787D01*
X122899Y568486D02*
X135786D01*
X122913Y570646D02*
X135772D01*
X122914Y568396D02*
X135771D01*
X122930Y570736D02*
X135755D01*
X122931Y568306D02*
X135754D01*
X122947Y570826D02*
X135738D01*
X122948Y568216D02*
X135737D01*
X122966Y570916D02*
X135719D01*
X122967Y568126D02*
X135718D01*
X122987Y571006D02*
X135698D01*
X122988Y568036D02*
X135697D01*
X123008Y571096D02*
X135677D01*
X123010Y567946D02*
X135675D01*
X123031Y571186D02*
X135654D01*
X123033Y567856D02*
X135652D01*
X123056Y571276D02*
X135629D01*
X123057Y567766D02*
X135628D01*
X123081Y571366D02*
X135604D01*
X123083Y567676D02*
X135602D01*
X123109Y571456D02*
X135576D01*
X123110Y567586D02*
X135575D01*
X123137Y571546D02*
X135548D01*
X123139Y567496D02*
X135546D01*
X123167Y571636D02*
X135518D01*
X123169Y567406D02*
X135516D01*
X123199Y571726D02*
X135486D01*
X123201Y567316D02*
X135484D01*
X123232Y571816D02*
X135453D01*
X123234Y567226D02*
X135451D01*
X123266Y571906D02*
X135419D01*
X123269Y567136D02*
X135417D01*
X123302Y571996D02*
X135383D01*
X123305Y567046D02*
X135380D01*
X123340Y572086D02*
X135345D01*
X123342Y566956D02*
X135343D01*
X123379Y572176D02*
X135306D01*
X123382Y566866D02*
X135303D01*
X123420Y572266D02*
X135265D01*
X123423Y566776D02*
X135262D01*
X123463Y572356D02*
X135222D01*
X123465Y566686D02*
X135220D01*
X123507Y572446D02*
X135178D01*
X123510Y566596D02*
X135175D01*
X123553Y572536D02*
X135132D01*
X123556Y566506D02*
X135129D01*
X123600Y572626D02*
X135085D01*
X123603Y566416D02*
X135082D01*
X123650Y572716D02*
X135035D01*
X123653Y566326D02*
X135032D01*
X123701Y572806D02*
X134984D01*
X123705Y566236D02*
X134980D01*
X123755Y572896D02*
X134930D01*
X123758Y566146D02*
X134927D01*
X123810Y572986D02*
X134875D01*
X123814Y566056D02*
X134871D01*
X123867Y573076D02*
X134818D01*
X123871Y565966D02*
X134814D01*
X123927Y573166D02*
X134758D01*
X123931Y565876D02*
X134754D01*
X123989Y573256D02*
X134697D01*
X123992Y565786D02*
X134693D01*
X124052Y573346D02*
X134633D01*
X124056Y565696D02*
X134629D01*
X124119Y573436D02*
X134566D01*
X124123Y565606D02*
X134562D01*
X124187Y573526D02*
X134498D01*
X124192Y565516D02*
X134493D01*
X124258Y573616D02*
X134427D01*
X124263Y565426D02*
X134422D01*
X124332Y573706D02*
X134353D01*
X124337Y565336D02*
X134348D01*
X124409Y573796D02*
X134276D01*
X124413Y565246D02*
X134272D01*
X124488Y573886D02*
X134197D01*
X124493Y565156D02*
X134192D01*
X124570Y573976D02*
X134115D01*
X124576Y565066D02*
X134109D01*
X124656Y574066D02*
X134029D01*
X124661Y564976D02*
X134024D01*
X124745Y574156D02*
X133940D01*
X124751Y564886D02*
X133934D01*
X124837Y574246D02*
X133848D01*
X124843Y564796D02*
X133842D01*
X124934Y574336D02*
X133751D01*
X124940Y564706D02*
X133745D01*
X125034Y574426D02*
X133651D01*
X125040Y564616D02*
X133645D01*
X125139Y574516D02*
X133546D01*
X125145Y564526D02*
X133540D01*
X125248Y574606D02*
X133437D01*
X125255Y564436D02*
X133430D01*
X125362Y574696D02*
X133323D01*
X125369Y564346D02*
X133316D01*
X125482Y574786D02*
X133203D01*
X125490Y564256D02*
X133195D01*
X125608Y574876D02*
X133077D01*
X125616Y564166D02*
X133069D01*
X125740Y574966D02*
X132945D01*
X125749Y564076D02*
X132936D01*
X125880Y575056D02*
X132805D01*
X125889Y563986D02*
X132796D01*
X126028Y575146D02*
X132657D01*
X126038Y563896D02*
X132647D01*
X126186Y575236D02*
X132499D01*
X126196Y563806D02*
X132489D01*
X126354Y575326D02*
X132331D01*
X126365Y563716D02*
X132320D01*
X126536Y575416D02*
X132149D01*
X126548Y563626D02*
X132137D01*
X126733Y575506D02*
X131952D01*
X126746Y563536D02*
X131939D01*
X126950Y575596D02*
X131735D01*
X126964Y563446D02*
X131721D01*
X127193Y575686D02*
X131492D01*
X127209Y563356D02*
X131476D01*
X127470Y575776D02*
X131215D01*
X127489Y563266D02*
X131196D01*
X127803Y575866D02*
X130882D01*
X127826Y563176D02*
X130859D01*
X128237Y575956D02*
X130448D01*
X128270Y563086D02*
X130415D01*
X129107Y576046D02*
X129578D01*
X122816Y629566D02*
X135869D01*
X122816Y629476D02*
X135869D01*
X122817Y629656D02*
X135868D01*
X122818Y629386D02*
X135868D01*
X122820Y629746D02*
X135865D01*
X122820Y629296D02*
X135865D01*
X122824Y629836D02*
X135862D01*
X122824Y629206D02*
X135861D01*
X122828Y629926D02*
X135857D01*
X122829Y629116D02*
X135856D01*
X122835Y630016D02*
X135850D01*
X122835Y629026D02*
X135850D01*
X122842Y630106D02*
X135843D01*
X122843Y628936D02*
X135842D01*
X122851Y630196D02*
X135834D01*
X122851Y628846D02*
X135834D01*
X122861Y630286D02*
X135824D01*
X122861Y628756D02*
X135824D01*
X122872Y630376D02*
X135813D01*
X122873Y628666D02*
X135812D01*
X122884Y630466D02*
X135801D01*
X122885Y628576D02*
X135800D01*
X122898Y630556D02*
X135787D01*
X122899Y628486D02*
X135786D01*
X122913Y630646D02*
X135772D01*
X122914Y628396D02*
X135771D01*
X122930Y630736D02*
X135755D01*
X122931Y628306D02*
X135754D01*
X122947Y630826D02*
X135738D01*
X122948Y628216D02*
X135737D01*
X122966Y630916D02*
X135719D01*
X122967Y628126D02*
X135718D01*
X122987Y631006D02*
X135698D01*
X122988Y628036D02*
X135697D01*
X123008Y631096D02*
X135677D01*
X123010Y627946D02*
X135675D01*
X123031Y631186D02*
X135654D01*
X123033Y627856D02*
X135652D01*
X123056Y631276D02*
X135629D01*
X123057Y627766D02*
X135628D01*
X123081Y631366D02*
X135604D01*
X123083Y627676D02*
X135602D01*
X123109Y631456D02*
X135576D01*
X123110Y627586D02*
X135575D01*
X123137Y631546D02*
X135548D01*
X123139Y627496D02*
X135546D01*
X123167Y631636D02*
X135518D01*
X123169Y627406D02*
X135516D01*
X123199Y631726D02*
X135486D01*
X123201Y627316D02*
X135484D01*
X123232Y631816D02*
X135453D01*
X123234Y627226D02*
X135451D01*
X123266Y631906D02*
X135419D01*
X123269Y627136D02*
X135417D01*
X123302Y631996D02*
X135383D01*
X123305Y627046D02*
X135380D01*
X123340Y632086D02*
X135345D01*
X123342Y626956D02*
X135343D01*
X123379Y632176D02*
X135306D01*
X123382Y626866D02*
X135303D01*
X123420Y632266D02*
X135265D01*
X123423Y626776D02*
X135262D01*
X123463Y632356D02*
X135222D01*
X123465Y626686D02*
X135220D01*
X123507Y632446D02*
X135178D01*
X123510Y626596D02*
X135175D01*
X123553Y632536D02*
X135132D01*
X123556Y626506D02*
X135129D01*
X123600Y632626D02*
X135085D01*
X123603Y626416D02*
X135082D01*
X123650Y632716D02*
X135035D01*
X123653Y626326D02*
X135032D01*
X123701Y632806D02*
X134984D01*
X123705Y626236D02*
X134980D01*
X123755Y632896D02*
X134930D01*
X123758Y626146D02*
X134927D01*
X123810Y632986D02*
X134875D01*
X123814Y626056D02*
X134871D01*
X123867Y633076D02*
X134818D01*
X123871Y625966D02*
X134814D01*
X123927Y633166D02*
X134758D01*
X123931Y625876D02*
X134754D01*
X123989Y633256D02*
X134697D01*
X123992Y625786D02*
X134693D01*
X124052Y633346D02*
X134633D01*
X124056Y625696D02*
X134629D01*
X124119Y633436D02*
X134566D01*
X124123Y625606D02*
X134562D01*
X124187Y633526D02*
X134498D01*
X124192Y625516D02*
X134493D01*
X124258Y633616D02*
X134427D01*
X124263Y625426D02*
X134422D01*
X124332Y633706D02*
X134353D01*
X124337Y625336D02*
X134348D01*
X124409Y633796D02*
X134276D01*
X124413Y625246D02*
X134272D01*
X124488Y633886D02*
X134197D01*
X124493Y625156D02*
X134192D01*
X124570Y633976D02*
X134115D01*
X124576Y625066D02*
X134109D01*
X124656Y634066D02*
X134029D01*
X124661Y624976D02*
X134024D01*
X124745Y634156D02*
X133940D01*
X124751Y624886D02*
X133934D01*
X124837Y634246D02*
X133848D01*
X124843Y624796D02*
X133842D01*
X124934Y634336D02*
X133751D01*
X124940Y624706D02*
X133745D01*
X125034Y634426D02*
X133651D01*
X125040Y624616D02*
X133645D01*
X125139Y634516D02*
X133546D01*
X125145Y624526D02*
X133540D01*
X125248Y634606D02*
X133437D01*
X125255Y624436D02*
X133430D01*
X125362Y634696D02*
X133323D01*
X125369Y624346D02*
X133316D01*
X125482Y634786D02*
X133203D01*
X125490Y624256D02*
X133195D01*
X125608Y634876D02*
X133077D01*
X125616Y624166D02*
X133069D01*
X125740Y634966D02*
X132945D01*
X125749Y624076D02*
X132936D01*
X125880Y635056D02*
X132805D01*
X125889Y623986D02*
X132796D01*
X126028Y635146D02*
X132657D01*
X126038Y623896D02*
X132647D01*
X126186Y635236D02*
X132499D01*
X126196Y623806D02*
X132489D01*
X126354Y635326D02*
X132331D01*
X126365Y623716D02*
X132320D01*
X126536Y635416D02*
X132149D01*
X126548Y623626D02*
X132137D01*
X126733Y635506D02*
X131952D01*
X126746Y623536D02*
X131939D01*
X126950Y635596D02*
X131735D01*
X126964Y623446D02*
X131721D01*
X127193Y635686D02*
X131492D01*
X127209Y623356D02*
X131476D01*
X127470Y635776D02*
X131215D01*
X127489Y623266D02*
X131196D01*
X127803Y635866D02*
X130882D01*
X127826Y623176D02*
X130859D01*
X128237Y635956D02*
X130448D01*
X128270Y623086D02*
X130415D01*
X129107Y636046D02*
X129578D01*
G54D109*
X286843Y848433D03*
X296843D03*
X306843D03*
X316843D03*
X336843D03*
X346843D03*
X286843Y858433D03*
X296843D03*
X306843D03*
X316843D03*
X336843D03*
X346843D03*
X431843Y235500D03*
X421843D03*
X411843D03*
X401843D03*
X381843D03*
X371843D03*
X431843Y225500D03*
X421843D03*
X411843D03*
X401843D03*
X381843D03*
X371843D03*
G54D112*
X335500Y328000D03*
X262000Y474000D03*
Y417500D03*
X265500Y482500D03*
X297000Y376000D03*
Y380000D03*
Y384000D03*
X269500Y272500D03*
X368000Y403500D03*
X301000Y341000D03*
X384500Y403500D03*
X379000D03*
X471000Y380500D03*
X254000Y541500D03*
X373500Y403500D03*
X421000Y354000D03*
X266000Y338500D03*
X421000Y359000D03*
X531000Y457500D03*
Y450500D03*
X442500Y661500D03*
Y666500D03*
X377000Y528500D03*
X241500Y342500D03*
X417000Y585500D03*
X264000Y570500D03*
G54D113*
X229843Y226433D03*
X232843Y224433D03*
X272843Y217433D03*
X266843Y215933D03*
X276953Y220933D03*
X267110Y222933D03*
X280890D03*
X276953D03*
X273343D03*
X270843D03*
X280890Y220933D03*
X267110D03*
X263343D03*
X246843Y211933D03*
X309343Y220433D03*
Y222933D03*
X293343Y220933D03*
X290843D03*
X289343Y217933D03*
X305343Y223933D03*
X286843Y217933D03*
X285343Y209933D03*
X305343Y226433D03*
X330343Y200433D03*
X342843D03*
X449343Y225433D03*
X235843Y231933D03*
X240343Y231433D03*
X260843Y229933D03*
X257843Y231933D03*
X258843Y258933D03*
Y261433D03*
X259843Y231933D03*
X258843Y229933D03*
X311343Y246933D03*
X313843D03*
X309343Y242933D03*
X309843Y267433D03*
X309343Y240433D03*
X309843Y264933D03*
X314843Y256933D03*
X308343Y249307D03*
Y251807D03*
X314843Y259433D03*
X334843Y247087D03*
X362500Y240500D03*
X489343Y241343D03*
Y243843D03*
X502843Y249843D03*
X500343D03*
X502843Y264843D03*
X500343D03*
X280843Y271933D03*
X277843Y297433D03*
X276953Y270433D03*
X278093Y301433D03*
X276843Y294433D03*
X280843Y269433D03*
X286843Y295933D03*
X289843Y302433D03*
X283043Y273433D03*
X298843Y276433D03*
X302843Y271433D03*
X295843Y279933D03*
X302843Y268933D03*
X293343Y279933D03*
X300343Y304933D03*
X302343Y307535D03*
X298843Y273933D03*
X300267Y298933D03*
X430343Y276433D03*
X502843Y279843D03*
X500343D03*
X502843Y294843D03*
X500343D03*
X520343Y269843D03*
Y289843D03*
X509343Y276343D03*
Y278843D03*
Y306343D03*
Y293843D03*
Y291343D03*
X522843Y269843D03*
Y289843D03*
X234843Y342500D03*
X230000D03*
X209843Y317337D03*
X264000Y344000D03*
X277843Y322933D03*
X279343Y343610D03*
X277343Y341051D03*
X281343Y325933D03*
X277843Y309594D03*
X277343Y312654D03*
X246000Y342500D03*
X301000Y337500D03*
Y344500D03*
X290843Y338933D03*
Y335933D03*
X300343Y315213D03*
Y310094D03*
X302343Y317772D03*
Y312654D03*
X304500Y323500D03*
X339500Y330500D03*
X330500Y330000D03*
X368343Y347433D03*
X400593Y333933D03*
X371843Y329933D03*
X386843Y346433D03*
X376843Y344933D03*
X407843Y333933D03*
X423093D03*
X422843Y343933D03*
X415593Y333933D03*
X445343Y333433D03*
Y330433D03*
X446343Y322433D03*
X453843Y337933D03*
X442343Y320433D03*
X451843Y329933D03*
X455843Y343433D03*
X500500Y330000D03*
X520343Y330031D03*
Y335031D03*
X509406D03*
Y340031D03*
X489406Y345031D03*
Y335031D03*
X500343Y310031D03*
Y340031D03*
Y345031D03*
X520343Y309843D03*
X509343Y308843D03*
Y321343D03*
Y323843D03*
X500343Y325031D03*
X522843Y309843D03*
X190343Y362433D03*
X223843Y368000D03*
X201843Y377024D03*
X225843Y371000D03*
X279000Y362500D03*
X277000Y365000D03*
X264500Y350500D03*
X265843Y380933D03*
X268343D03*
X260500Y349500D03*
X253000Y368000D03*
X266500Y348000D03*
X246843Y357433D03*
X277000Y360500D03*
X254843Y371000D03*
X285000Y367500D03*
X287500Y369500D03*
X304343Y357933D03*
X309500Y378000D03*
X306643Y365933D03*
X289843Y364083D03*
X291343Y361524D03*
X289343Y351433D03*
X300843D03*
X321343Y365933D03*
X309343Y369857D03*
X311343Y372433D03*
X313500Y380000D03*
X318500Y385433D03*
X316000Y382500D03*
X321343Y369933D03*
X334843Y357433D03*
X335843Y377433D03*
X333343Y387772D03*
X331843Y385213D03*
X333343Y382654D03*
X331843Y380094D03*
Y374976D03*
X339843Y348933D03*
X339343Y371433D03*
X363000Y349500D03*
X365500Y348000D03*
X396843Y367933D03*
X375343Y387433D03*
X389343Y386433D03*
X382843Y351433D03*
X385843D03*
X389343Y356433D03*
X405343Y350933D03*
X432843Y358933D03*
X420500Y349000D03*
X404343Y386433D03*
X457693Y361933D03*
X456343Y350933D03*
X457843Y353933D03*
X456343Y356523D03*
X500343Y355031D03*
Y360031D03*
X500406Y370031D03*
Y375031D03*
X489343Y380031D03*
Y375031D03*
Y360031D03*
Y365031D03*
X509343Y375031D03*
Y370031D03*
Y355031D03*
X520343Y350031D03*
Y355031D03*
X190343Y405433D03*
X264843Y414543D03*
X266843D03*
X267843Y416433D03*
X276843Y400933D03*
X262343Y424933D03*
X260343D03*
X276843Y403933D03*
X278843Y405433D03*
X265843Y416433D03*
X278843Y402433D03*
X255343Y420933D03*
X288843Y400433D03*
Y402933D03*
X320843Y387933D03*
X309343Y390433D03*
X284343Y401933D03*
X302843Y410433D03*
X303843Y401433D03*
X302843Y412933D03*
X297843Y399933D03*
Y397433D03*
X303843Y403933D03*
X284343Y404433D03*
X342843Y410500D03*
X339500Y391000D03*
X324343Y420433D03*
Y417933D03*
X372689Y388933D03*
X362343Y396433D03*
X396843Y401433D03*
X404343D03*
X469000Y424000D03*
X471500Y407500D03*
X521000Y405000D03*
X489343Y390031D03*
X509406Y420031D03*
Y410031D03*
Y400031D03*
X489406Y420031D03*
X500343Y415031D03*
X521000Y395000D03*
X520343Y415031D03*
X489343Y395031D03*
X529000Y395000D03*
Y405000D03*
X201843Y436933D03*
X265843Y428323D03*
X273843Y445433D03*
X276843Y440433D03*
X267843Y428323D03*
X266843Y462433D03*
Y459433D03*
X276843Y438433D03*
X278343Y467433D03*
X272343Y457433D03*
X286843Y437933D03*
X301343Y458933D03*
X286843Y439933D03*
X302343Y467433D03*
X303843Y431433D03*
Y433933D03*
Y442433D03*
Y439933D03*
X291343Y442933D03*
X288843D03*
X324843Y459933D03*
X342843Y464933D03*
X369843Y455933D03*
X415343Y462433D03*
X412843Y465933D03*
X410343Y459433D03*
X512343Y441433D03*
X512593Y457683D03*
X512343Y450433D03*
X512843Y465933D03*
X521843Y463433D03*
X525843Y437433D03*
X530500Y446000D03*
X201343Y497024D03*
X267843Y475213D03*
X277843Y482890D03*
X267843Y472043D03*
X282500Y471000D03*
Y479500D03*
X300843Y470094D03*
Y480331D03*
X349000Y478500D03*
Y493500D03*
X345843Y505433D03*
X349343Y502933D03*
X340343Y472933D03*
X379000Y493500D03*
X364000D03*
Y478500D03*
X379000D03*
X416000Y494000D03*
X424343Y499433D03*
X512593Y472652D03*
X527343Y474152D03*
X531343Y477433D03*
X213843Y546433D03*
X239343Y523933D03*
X279843Y530933D03*
X243343Y528933D03*
X247343Y512433D03*
X279343Y533933D03*
X269343Y527933D03*
X269843Y541433D03*
X266843Y532723D03*
X246843Y516933D03*
X320437Y514933D03*
X324843Y509433D03*
X391343Y545433D03*
X374000Y528500D03*
X391343Y539433D03*
X388343Y534433D03*
X381343Y546433D03*
X387843Y539433D03*
Y545433D03*
X385343Y542433D03*
Y534433D03*
X500343Y525433D03*
X502843D03*
Y540433D03*
X500343D03*
X509343Y536933D03*
Y539433D03*
X520343Y545433D03*
X522843D03*
X201343Y557524D03*
X338500Y577500D03*
X366643Y567433D03*
X398093Y556433D03*
X369843Y570433D03*
X367343Y573433D03*
X417000Y583000D03*
X407843Y554433D03*
X421843Y586433D03*
X500343Y555433D03*
X502843D03*
X509343Y566933D03*
Y554433D03*
X520343Y586933D03*
X502843Y585433D03*
X500343D03*
X509343Y569433D03*
X520343Y565433D03*
X509343Y551933D03*
X522843Y565433D03*
X197843Y612433D03*
X276500Y607000D03*
X275843Y615933D03*
X278343D03*
X300000Y611500D03*
Y614500D03*
X299843Y619933D03*
X300000Y617433D03*
X343843Y618933D03*
X335343Y610433D03*
X365000Y601500D03*
X375843Y611933D03*
Y615433D03*
X417000Y592000D03*
Y589000D03*
X414343Y606183D03*
X417045Y594933D03*
X509343Y625622D03*
X520500Y625500D03*
X509343Y599433D03*
Y596933D03*
X520343Y589433D03*
Y605433D03*
X502843Y600433D03*
X500343D03*
Y615433D03*
X502843D03*
X522843Y605433D03*
X197843Y653933D03*
X250343Y661433D03*
X271343Y644433D03*
X255343Y664433D03*
X262843Y655933D03*
X258843Y653933D03*
X278843Y643433D03*
X260343Y655933D03*
X273343Y642933D03*
X256843Y656933D03*
X257343Y664433D03*
X261843Y653933D03*
X271343Y641933D03*
X278843Y641433D03*
X273343Y640433D03*
X286843Y637433D03*
X299343Y660433D03*
Y657933D03*
X297843Y639433D03*
X298343Y651933D03*
X297843Y641933D03*
X298343Y649433D03*
X283843Y639933D03*
X416843Y642933D03*
X424343D03*
X427000Y666500D03*
X437843Y646933D03*
X427000Y661500D03*
X437843Y653433D03*
X470343Y666933D03*
X509500Y630500D03*
X500343Y635622D03*
Y650622D03*
Y665622D03*
X520343Y630622D03*
X509406Y645622D03*
Y650622D03*
Y655622D03*
X520343Y645622D03*
X500343D03*
X520343Y665622D03*
X500343Y630622D03*
X520343Y650622D03*
X197689Y672433D03*
X270843Y682433D03*
X267343Y689933D03*
X262343Y668433D03*
X270843Y679933D03*
X276343Y684433D03*
Y681433D03*
X275890Y677933D03*
X273843Y679933D03*
X259843Y668433D03*
X282343Y681933D03*
X289843Y686433D03*
X298843Y681933D03*
Y679433D03*
X289843Y683933D03*
X282343Y679933D03*
X310843Y674433D03*
Y671933D03*
X369843Y703933D03*
Y696433D03*
X388496Y692683D03*
X380189D03*
X427500Y676500D03*
X403843Y691933D03*
X415593Y696433D03*
X472500Y705000D03*
X470343Y702433D03*
X480843Y689433D03*
X470343Y688433D03*
X489500Y695500D03*
X500500Y690500D03*
X509406Y670622D03*
X523500Y680500D03*
Y670500D03*
X529000Y680500D03*
Y670500D03*
X197689Y732933D03*
X346843Y737780D03*
Y734933D03*
X469000Y715500D03*
X474500Y708000D03*
X462343Y717933D03*
X459343Y707933D03*
X475500Y713000D03*
X274343Y750933D03*
Y747933D03*
X242843Y783433D03*
X310504Y773933D03*
X328343Y779183D03*
X325593Y761404D03*
X326593Y766433D03*
X366500Y782500D03*
X391343Y771433D03*
X383093Y774433D03*
X199343Y795433D03*
X187843Y803433D03*
Y805933D03*
X238843Y823433D03*
X239343Y806433D03*
X238843Y813433D03*
X206843Y814933D03*
X238343Y798933D03*
X231343Y811980D03*
X231890Y818933D03*
X231843Y821433D03*
X230843Y825433D03*
X206843Y817433D03*
X251343Y805933D03*
X259843Y815433D03*
Y806433D03*
X270843Y807433D03*
X268843Y822933D03*
X266843Y801433D03*
X251343Y798433D03*
X265843Y813433D03*
X273343Y804933D03*
X260343Y823433D03*
X250327Y826933D03*
X256843Y799433D03*
X254343D03*
X320500Y825000D03*
X289343Y827433D03*
X286843Y825433D03*
X317000Y825000D03*
X316843Y808433D03*
X324000Y825000D03*
X323093Y804933D03*
X159343Y837433D03*
X150843Y833433D03*
X180343Y864933D03*
X175843Y836433D03*
X190843D03*
X168093D03*
X230843Y836933D03*
X232843Y839433D03*
X255843Y840933D03*
X258343D03*
X241843Y834933D03*
X244343D03*
X273843Y840933D03*
X270843D03*
X318000Y838500D03*
X291843Y829819D03*
X314500Y838500D03*
X311000D03*
X432843Y848933D03*
X436843Y854933D03*
X150593Y872933D03*
X192843Y867933D03*
X188843Y871933D03*
X184343Y868933D03*
X199343Y879933D03*
X268343Y882433D03*
X275343D03*
G54D129*
X391843Y235500D03*
X326843Y858433D03*
Y848433D03*
X391843Y225500D03*
G54D165*
X106843Y183933D02*
Y899433D01*
X457500*
Y823500*
X457343Y734909*
X539914Y735090*
Y183933*
X106843*
G54D242*
X497000Y198500D03*
Y446492D03*
Y474051D03*
Y722122D03*
X234500Y321000D03*
X254500Y756000D03*
X259000Y593000D03*
G54D254*
X434136Y869976D03*
X377049D03*
X436498Y889465D03*
X374687D03*
G54D282*
X129343Y209524D03*
Y689524D03*
Y749524D03*
Y269524D03*
Y809524D03*
Y869524D03*
Y329524D03*
Y389524D03*
Y449524D03*
Y509524D03*
Y569524D03*
Y629524D03*
G54D283*
X139343Y219524D03*
X119343D03*
X139343Y499524D03*
Y619524D03*
Y739524D03*
Y379524D03*
Y279524D03*
Y199524D03*
Y799524D03*
Y339524D03*
Y459524D03*
Y579524D03*
Y699524D03*
X119343Y199524D03*
Y279524D03*
Y259524D03*
X139343D03*
X119343Y339524D03*
Y319524D03*
X139343D03*
Y399524D03*
X119343D03*
Y379524D03*
Y459524D03*
Y439524D03*
X139343D03*
Y519524D03*
X119343D03*
Y499524D03*
Y579524D03*
Y559524D03*
X139343D03*
Y639524D03*
X119343D03*
Y619524D03*
Y699524D03*
Y679524D03*
X139343D03*
Y759524D03*
X119343D03*
Y739524D03*
Y799524D03*
Y819524D03*
X139343D03*
Y859524D03*
X119343D03*
Y879524D03*
X139343D03*
G74*
X0Y0D02*
M02*
