*
*
G04 PADS VX.1.2 Build Number: 698008 generated Gerber (RS-274-X) file*
G04 PC Version=2.1*
*
%IN "PC-379-396-15-C02_DIGIT"*%
*
%MOIN*%
*
%FSLAX35Y35*%
*
*
*
*
G04 PC Standard Apertures*
*
*
G04 Thermal Relief Aperture macro.*
%AMTER*
1,1,$1,0,0*
1,0,$1-$2,0,0*
21,0,$3,$4,0,0,45*
21,0,$3,$4,0,0,135*
%
*
*
G04 Annular Aperture macro.*
%AMANN*
1,1,$1,0,0*
1,0,$2,0,0*
%
*
*
G04 Odd Aperture macro.*
%AMODD*
1,1,$1,0,0*
1,0,$1-0.005,0,0*
%
*
*
G04 PC Custom Aperture Macros*
*
*
*
*
*
*
G04 PC Aperture Table*
*
%ADD012C,0.01*%
%ADD095C,0.02*%
%ADD100C,0.001*%
%ADD177R,0.04337X0.04731*%
%ADD178R,0.04731X0.04337*%
%ADD180R,0.064X0.064*%
%ADD181C,0.064*%
%ADD212C,0.089*%
%ADD284C,0.23235*%
%ADD285C,0.029*%
%ADD286C,0.054*%
%ADD287R,0.01581X0.03943*%
%ADD288R,0.03943X0.01581*%
%ADD289R,0.18904X0.18904*%
%ADD290R,0.01581X0.02762*%
%ADD291R,0.02762X0.01581*%
%ADD292R,0.16148X0.16148*%
%ADD293R,0.06306X0.03156*%
%ADD294R,0.03156X0.06306*%
%ADD295R,0.03156X0.10243*%
%ADD296R,0.069X0.034*%
%ADD297R,0.01581X0.0788*%
%ADD298C,0.08865*%
%ADD299R,0.069X0.017*%
%ADD300O,0.07093X0.02172*%
%ADD301R,0.06306X0.01699*%
%ADD302R,0.02762X0.01975*%
%ADD303O,0.04337X0.01581*%
%ADD304O,0.01581X0.04337*%
%ADD305R,0.17132X0.17132*%
%ADD306R,0.079X0.029*%
%ADD307R,0.029X0.029*%
%ADD308R,0.10243X0.11424*%
%ADD309R,0.03392X0.09849*%
%ADD311R,0.04X0.04*%
%ADD312R,0.054X0.04*%
%ADD313R,0.08274X0.10243*%
%ADD314R,0.036X0.042*%
%ADD315R,0.042X0.036*%
%ADD316C,0.0355*%
%ADD317R,0.03746X0.01778*%
%ADD318R,0.01778X0.03746*%
%ADD319R,0.1103X0.1103*%
%ADD320R,0.04337X0.04534*%
%ADD321R,0.04534X0.09061*%
%ADD322R,0.01778X0.01384*%
%ADD323R,0.01384X0.01778*%
%ADD324R,0.02565X0.01306*%
%ADD325C,0.00794*%
%ADD326R,0.04X0.054*%
%ADD327R,0.064X0.066*%
%ADD328R,0.066X0.064*%
%ADD329R,0.04691X0.06345*%
%ADD330R,0.06345X0.04691*%
%ADD331R,0.04534X0.02762*%
%ADD332R,0.22447X0.22447*%
%ADD333R,0.026X0.044*%
%ADD341R,0.04534X0.04337*%
%ADD342R,0.09061X0.04534*%
*
*
*
*
G04 PC Circuitry*
G04 Layer Name PC-379-396-15-C02_DIGIT - circuitry*
%LPD*%
*
*
G04 PC Custom Flashes*
G04 Layer Name PC-379-396-15-C02_DIGIT - flashes*
%LPD*%
*
*
G04 PC Circuitry*
G04 Layer Name PC-379-396-15-C02_DIGIT - circuitry*
%LPD*%
*
G54D12*
G01X238070Y493301D02*
X240708Y495939D01*
X238348Y498298*
X235710Y495660*
X238070Y493301*
X237370Y494000D02*
X238769D01*
X236370Y495000D02*
X239769D01*
X236050Y496000D02*
X240646D01*
X237050Y497000D02*
X239646D01*
X238050Y498000D02*
X238646D01*
X236000Y495370D02*
Y495950D01*
X237000Y494370D02*
Y496950D01*
X238000Y493370D02*
Y497950D01*
X239000Y494231D02*
Y497646D01*
X240000Y495231D02*
Y496646D01*
X233337Y488568D02*
X235975Y491206D01*
X233615Y493566*
X230977Y490928*
X233337Y488568*
X232905Y489000D02*
X233769D01*
X231905Y490000D02*
X234769D01*
X231050Y491000D02*
X235769D01*
X232050Y492000D02*
X235181D01*
X233050Y493000D02*
X234181D01*
X231000Y490905D02*
Y490950D01*
X232000Y489905D02*
Y491950D01*
X233000Y488905D02*
Y492950D01*
X234000Y489231D02*
Y493181D01*
X235000Y490231D02*
Y492181D01*
X240975Y485160D02*
X238337Y487798D01*
X235977Y485439*
X238615Y482801*
X240975Y485160*
X238416Y483000D02*
X238815D01*
X237416Y484000D02*
X239815D01*
X236416Y485000D02*
X240815D01*
X236539Y486000D02*
X240135D01*
X237539Y487000D02*
X239135D01*
X236000Y485416D02*
Y485461D01*
X237000Y484416D02*
Y486461D01*
X238000Y483416D02*
Y487461D01*
X239000Y483185D02*
Y487135D01*
X240000Y484185D02*
Y486135D01*
X245708Y480428D02*
X243070Y483066D01*
X240710Y480706*
X243348Y478068*
X245708Y480428*
X242416Y479000D02*
X244280D01*
X241416Y480000D02*
X245280D01*
X241004Y481000D02*
X245135D01*
X242004Y482000D02*
X244135D01*
X243004Y483000D02*
X243135D01*
X241000Y480416D02*
Y480996D01*
X242000Y479416D02*
Y481996D01*
X243000Y478416D02*
Y482996D01*
X244000Y478720D02*
Y482135D01*
X245000Y479720D02*
Y481135D01*
X246475Y490660D02*
X243837Y493298D01*
X241477Y490939*
X244115Y488301*
X246475Y490660*
X243416Y489000D02*
X244815D01*
X242416Y490000D02*
X245815D01*
X241539Y491000D02*
X246135D01*
X242539Y492000D02*
X245135D01*
X243539Y493000D02*
X244135D01*
X242000Y490416D02*
Y491461D01*
X243000Y489416D02*
Y492461D01*
X244000Y488416D02*
Y493135D01*
X245000Y489185D02*
Y492135D01*
X246000Y490185D02*
Y491135D01*
X251208Y485928D02*
X248570Y488566D01*
X246210Y486206*
X248848Y483568*
X251208Y485928*
X248416Y484000D02*
X249280D01*
X247416Y485000D02*
X250280D01*
X246416Y486000D02*
X251135D01*
X247004Y487000D02*
X250135D01*
X248004Y488000D02*
X249135D01*
X247000Y485416D02*
Y486996D01*
X248000Y484416D02*
Y487996D01*
X249000Y483720D02*
Y488135D01*
X250000Y484720D02*
Y487135D01*
X251000Y485720D02*
Y486135D01*
X230975Y598660D02*
X228337Y601298D01*
X225977Y598939*
X228615Y596301*
X230975Y598660*
X227916Y597000D02*
X229315D01*
X226916Y598000D02*
X230315D01*
X226039Y599000D02*
X230635D01*
X227039Y600000D02*
X229635D01*
X228039Y601000D02*
X228635D01*
X226000Y598916D02*
Y598961D01*
X227000Y597916D02*
Y599961D01*
X228000Y596916D02*
Y600961D01*
X229000Y596685D02*
Y600635D01*
X230000Y597685D02*
Y599635D01*
X235708Y593928D02*
X233070Y596566D01*
X230710Y594206*
X233348Y591568*
X235708Y593928*
X232916Y592000D02*
X233780D01*
X231916Y593000D02*
X234780D01*
X230916Y594000D02*
X235635D01*
X231504Y595000D02*
X234635D01*
X232504Y596000D02*
X233635D01*
X231000Y593916D02*
Y594496D01*
X232000Y592916D02*
Y595496D01*
X233000Y591916D02*
Y596496D01*
X234000Y592220D02*
Y595635D01*
X235000Y593220D02*
Y594635D01*
X233475Y360160D02*
X230837Y362798D01*
X228477Y360439*
X231115Y357801*
X233475Y360160*
X230916Y358000D02*
X231315D01*
X229916Y359000D02*
X232315D01*
X228916Y360000D02*
X233315D01*
X229039Y361000D02*
X232635D01*
X230039Y362000D02*
X231635D01*
X229000Y359916D02*
Y360961D01*
X230000Y358916D02*
Y361961D01*
X231000Y357916D02*
Y362635D01*
X232000Y358685D02*
Y361635D01*
X233000Y359685D02*
Y360635D01*
X238208Y355428D02*
X235570Y358066D01*
X233210Y355706*
X235848Y353068*
X238208Y355428*
X234916Y354000D02*
X236780D01*
X233916Y355000D02*
X237780D01*
X233504Y356000D02*
X237635D01*
X234504Y357000D02*
X236635D01*
X235504Y358000D02*
X235635D01*
X234000Y354916D02*
Y356496D01*
X235000Y353916D02*
Y357496D01*
X236000Y353220D02*
Y357635D01*
X237000Y354220D02*
Y356635D01*
X238000Y355220D02*
Y355635D01*
X239570Y730801D02*
X242208Y733439D01*
X239848Y735798*
X237210Y733160*
X239570Y730801*
X239370Y731000D02*
X239769D01*
X238370Y732000D02*
X240769D01*
X237370Y733000D02*
X241769D01*
X238050Y734000D02*
X241646D01*
X239050Y735000D02*
X240646D01*
X238000Y732370D02*
Y733950D01*
X239000Y731370D02*
Y734950D01*
X240000Y731231D02*
Y735646D01*
X241000Y732231D02*
Y734646D01*
X242000Y733231D02*
Y733646D01*
X234837Y726068D02*
X237475Y728706D01*
X235115Y731066*
X232477Y728428*
X234837Y726068*
X233905Y727000D02*
X235769D01*
X232905Y728000D02*
X236769D01*
X233050Y729000D02*
X237181D01*
X234050Y730000D02*
X236181D01*
X235050Y731000D02*
X235181D01*
X233000Y727905D02*
Y728950D01*
X234000Y726905D02*
Y729950D01*
X235000Y726231D02*
Y730950D01*
X236000Y727231D02*
Y730181D01*
X237000Y728231D02*
Y729181D01*
X239616Y601570D02*
X236973Y598936D01*
X239328Y596573*
X241971Y599206*
X239616Y601570*
X238902Y597000D02*
X239757D01*
X237906Y598000D02*
X240761D01*
X237037Y599000D02*
X241765D01*
X238040Y600000D02*
X241180D01*
X239044Y601000D02*
X240183D01*
X237000Y598909D02*
Y598963D01*
X238000Y597906D02*
Y599960D01*
X239000Y596902D02*
Y600956D01*
X240000Y597242D02*
Y601184D01*
X241000Y598238D02*
Y600180D01*
X244357Y606294D02*
X241714Y603660D01*
X244069Y601297*
X246712Y603930*
X244357Y606294*
X243368Y602000D02*
X244775D01*
X242372Y603000D02*
X245779D01*
X242055Y604000D02*
X246642D01*
X243059Y605000D02*
X245646D01*
X244062Y606000D02*
X244649D01*
X242000Y603373D02*
Y603945D01*
X243000Y602370D02*
Y604942D01*
X244000Y601366D02*
Y605938D01*
X245000Y602224D02*
Y605648D01*
X246000Y603220D02*
Y604644D01*
X234115Y607066D02*
X231477Y604428D01*
X233837Y602068*
X236475Y604706*
X234115Y607066*
X232905Y603000D02*
X234769D01*
X231905Y604000D02*
X235769D01*
X232050Y605000D02*
X236181D01*
X233050Y606000D02*
X235181D01*
X234050Y607000D02*
X234181D01*
X232000Y603905D02*
Y604950D01*
X233000Y602905D02*
Y605950D01*
X234000Y602231D02*
Y606950D01*
X235000Y603231D02*
Y606181D01*
X236000Y604231D02*
Y605181D01*
X238848Y611798D02*
X236210Y609160D01*
X238570Y606801*
X241208Y609439*
X238848Y611798*
X238370Y607000D02*
X238769D01*
X237370Y608000D02*
X239769D01*
X236370Y609000D02*
X240769D01*
X237050Y610000D02*
X240646D01*
X238050Y611000D02*
X239646D01*
X237000Y608370D02*
Y609950D01*
X238000Y607370D02*
Y610950D01*
X239000Y607231D02*
Y611646D01*
X240000Y608231D02*
Y610646D01*
X241000Y609231D02*
Y609646D01*
X242115Y363566D02*
X239477Y360928D01*
X241837Y358568*
X244475Y361206*
X242115Y363566*
X241405Y359000D02*
X242269D01*
X240405Y360000D02*
X243269D01*
X239550Y361000D02*
X244269D01*
X240550Y362000D02*
X243681D01*
X241550Y363000D02*
X242681D01*
X240000Y360405D02*
Y361450D01*
X241000Y359405D02*
Y362450D01*
X242000Y358731D02*
Y363450D01*
X243000Y359731D02*
Y362681D01*
X244000Y360731D02*
Y361681D01*
X246848Y368298D02*
X244210Y365660D01*
X246570Y363301*
X249208Y365939*
X246848Y368298*
X245870Y364000D02*
X247269D01*
X244870Y365000D02*
X248269D01*
X244550Y366000D02*
X249146D01*
X245550Y367000D02*
X248146D01*
X246550Y368000D02*
X247146D01*
X245000Y364870D02*
Y366450D01*
X246000Y363870D02*
Y367450D01*
X247000Y363731D02*
Y368146D01*
X248000Y364731D02*
Y367146D01*
X249000Y365731D02*
Y366146D01*
X236615Y369066D02*
X233977Y366428D01*
X236337Y364068*
X238975Y366706*
X236615Y369066*
X235405Y365000D02*
X237269D01*
X234405Y366000D02*
X238269D01*
X234550Y367000D02*
X238681D01*
X235550Y368000D02*
X237681D01*
X236550Y369000D02*
X236681D01*
X234000Y366405D02*
Y366450D01*
X235000Y365405D02*
Y367450D01*
X236000Y364405D02*
Y368450D01*
X237000Y364731D02*
Y368681D01*
X238000Y365731D02*
Y367681D01*
X241348Y373798D02*
X238710Y371160D01*
X241070Y368801*
X243708Y371439*
X241348Y373798*
X240870Y369000D02*
X241269D01*
X239870Y370000D02*
X242269D01*
X238870Y371000D02*
X243269D01*
X239550Y372000D02*
X243146D01*
X240550Y373000D02*
X242146D01*
X239000Y370870D02*
Y371450D01*
X240000Y369870D02*
Y372450D01*
X241000Y368870D02*
Y373450D01*
X242000Y369731D02*
Y373146D01*
X243000Y370731D02*
Y372146D01*
X247975Y728160D02*
X245337Y730798D01*
X242977Y728439*
X245615Y725801*
X247975Y728160*
X245416Y726000D02*
X245815D01*
X244416Y727000D02*
X246815D01*
X243416Y728000D02*
X247815D01*
X243539Y729000D02*
X247135D01*
X244539Y730000D02*
X246135D01*
X243000Y728416D02*
Y728461D01*
X244000Y727416D02*
Y729461D01*
X245000Y726416D02*
Y730461D01*
X246000Y726185D02*
Y730135D01*
X247000Y727185D02*
Y729135D01*
X252708Y723428D02*
X250070Y726066D01*
X247710Y723706*
X250348Y721068*
X252708Y723428*
X249416Y722000D02*
X251280D01*
X248416Y723000D02*
X252280D01*
X248004Y724000D02*
X252135D01*
X249004Y725000D02*
X251135D01*
X250004Y726000D02*
X250135D01*
X248000Y723416D02*
Y723996D01*
X249000Y722416D02*
Y724996D01*
X250000Y721416D02*
Y725996D01*
X251000Y721720D02*
Y725135D01*
X252000Y722720D02*
Y724135D01*
X242475Y722660D02*
X239837Y725298D01*
X237477Y722939*
X240115Y720301*
X242475Y722660*
X239416Y721000D02*
X240815D01*
X238416Y722000D02*
X241815D01*
X237539Y723000D02*
X242135D01*
X238539Y724000D02*
X241135D01*
X239539Y725000D02*
X240135D01*
X238000Y722416D02*
Y723461D01*
X239000Y721416D02*
Y724461D01*
X240000Y720416D02*
Y725135D01*
X241000Y721185D02*
Y724135D01*
X242000Y722185D02*
Y723135D01*
X247208Y717928D02*
X244570Y720566D01*
X242210Y718206*
X244848Y715568*
X247208Y717928*
X244416Y716000D02*
X245280D01*
X243416Y717000D02*
X246280D01*
X242416Y718000D02*
X247135D01*
X243004Y719000D02*
X246135D01*
X244004Y720000D02*
X245135D01*
X243000Y717416D02*
Y718996D01*
X244000Y716416D02*
Y719996D01*
X245000Y715720D02*
Y720135D01*
X246000Y716720D02*
Y719135D01*
X247000Y717720D02*
Y718135D01*
X106843Y899524D02*
X457236D01*
Y735114*
X539913*
Y183933*
X106843*
Y899524*
X537500Y118500D02*
Y138500D01*
X347500*
Y118500*
X457500Y43500D02*
Y23500D01*
X307500Y43500D02*
X537500D01*
X67500Y68500D02*
X307500D01*
Y53500D02*
X67500D01*
X307500Y118500D02*
Y23500D01*
X537500Y118500D02*
Y23500D01*
X67500*
Y118500*
X537500*
X318000Y38188D02*
Y29000D01*
Y38188D02*
X321068D01*
X321068D02*
X322091Y37750D01*
X322432Y37313*
X322432D02*
X322773Y36438D01*
X322773D02*
Y35125D01*
X322432Y34250*
X322091Y33813*
X322091D02*
X321068Y33375D01*
X318000*
X330955Y36000D02*
X330614Y36875D01*
X329932Y37750*
X329250Y38188*
X329250D02*
X327886D01*
X327886D02*
X327205Y37750D01*
X326523Y36875*
X326182Y36000*
X325841Y34688*
X325841D02*
Y32500D01*
X326182Y31188*
X326182D02*
X326523Y30313D01*
X326523D02*
X327205Y29438D01*
X327205D02*
X327886Y29000D01*
X329250*
X329932Y29438*
X329932D02*
X330614Y30313D01*
X330614D02*
X330955Y31188D01*
X334023Y32938D02*
X340159D01*
X343909Y38188D02*
X347659D01*
X347659D02*
X345614Y34688D01*
X345614D02*
X346636D01*
X346636D02*
X347318Y34250D01*
X347659Y33813*
X347659D02*
X348000Y32500D01*
Y31625*
X347659Y30313*
X347659D02*
X346977Y29438D01*
X346977D02*
X345955Y29000D01*
X344932*
X343909Y29438*
X343909D02*
X343568Y29875D01*
X343227Y30750*
X355841Y38188D02*
X352432Y29000D01*
X351068Y38188D02*
X355841D01*
X363341Y35125D02*
X363000Y33813D01*
X363000D02*
X362318Y32938D01*
X362318D02*
X361295Y32500D01*
X360955*
X359932Y32938*
X359932D02*
X359250Y33813D01*
X359250D02*
X358909Y35125D01*
Y35563*
X358909D02*
X359250Y36875D01*
X359932Y37750*
X360955Y38188*
X360955D02*
X361295D01*
X361295D02*
X362318Y37750D01*
X363000Y36875*
X363341Y35125*
Y32938*
X363341D02*
X363000Y30750D01*
X362318Y29438*
X362318D02*
X361295Y29000D01*
X360614*
X359591Y29438*
X359591D02*
X359250Y30313D01*
X366409Y32938D02*
X372545D01*
X376295Y38188D02*
X380045D01*
X380045D02*
X378000Y34688D01*
X378000D02*
X379023D01*
X379023D02*
X379705Y34250D01*
X380045Y33813*
X380045D02*
X380386Y32500D01*
Y31625*
X380045Y30313*
X380045D02*
X379364Y29438D01*
X379364D02*
X378341Y29000D01*
X377318*
X376295Y29438*
X376295D02*
X375955Y29875D01*
X375614Y30750*
X387886Y35125D02*
X387545Y33813D01*
X387545D02*
X386864Y32938D01*
X386864D02*
X385841Y32500D01*
X385500*
X384477Y32938*
X384477D02*
X383795Y33813D01*
X383795D02*
X383455Y35125D01*
Y35563*
X383455D02*
X383795Y36875D01*
X384477Y37750*
X385500Y38188*
X385500D02*
X385841D01*
X385841D02*
X386864Y37750D01*
X387545Y36875*
X387886Y35125*
Y32938*
X387886D02*
X387545Y30750D01*
X386864Y29438*
X386864D02*
X385841Y29000D01*
X385159*
X384136Y29438*
X384136D02*
X383795Y30313D01*
X395045Y36875D02*
X394705Y37750D01*
X393682Y38188*
X393682D02*
X393000D01*
X393000D02*
X391977Y37750D01*
X391295Y36438*
X391295D02*
X390955Y34250D01*
Y32063*
X390955D02*
X391295Y30313D01*
X391295D02*
X391977Y29438D01*
X391977D02*
X393000Y29000D01*
X393341*
X394364Y29438*
X394364D02*
X395045Y30313D01*
X395045D02*
X395386Y31625D01*
Y32063*
X395386D02*
X395045Y33375D01*
X394364Y34250*
X393341Y34688*
X393341D02*
X393000D01*
X393000D02*
X391977Y34250D01*
X391295Y33375*
X390955Y32063*
X398455Y32938D02*
X404591D01*
X407659Y36438D02*
X408341Y36875D01*
X409364Y38188*
X409364D02*
Y29000D01*
X416864Y38188D02*
X413455D01*
X413455D02*
X413114Y34250D01*
X413455Y34688*
X413455D02*
X414477Y35125D01*
X415500*
X416523Y34688*
X416523D02*
X417205Y33813D01*
X417205D02*
X417545Y32500D01*
X417205Y31625*
X416864Y30313*
X416864D02*
X416182Y29438D01*
X416182D02*
X415159Y29000D01*
X414136*
X413114Y29438*
X413114D02*
X412773Y29875D01*
X412432Y30750*
X420614Y32938D02*
X426750D01*
X434932Y36000D02*
X434591Y36875D01*
X433909Y37750*
X433227Y38188*
X433227D02*
X431864D01*
X431864D02*
X431182Y37750D01*
X430500Y36875*
X430159Y36000*
X429818Y34688*
X429818D02*
Y32500D01*
X430159Y31188*
X430159D02*
X430500Y30313D01*
X430500D02*
X431182Y29438D01*
X431182D02*
X431864Y29000D01*
X433227*
X433909Y29438*
X433909D02*
X434591Y30313D01*
X434591D02*
X434932Y31188D01*
X440045Y38188D02*
X439023Y37750D01*
X438341Y36438*
X438341D02*
X438000Y34250D01*
Y32938*
X438000D02*
X438341Y30750D01*
X439023Y29438*
X439023D02*
X440045Y29000D01*
X440727*
X441750Y29438*
X441750D02*
X442432Y30750D01*
X442773Y32938*
X442773D02*
Y34250D01*
X442432Y36438*
X442432D02*
X441750Y37750D01*
X440727Y38188*
X440727D02*
X440045D01*
X446182Y36000D02*
Y36438D01*
X446182D02*
X446523Y37313D01*
X446523D02*
X446864Y37750D01*
X447545Y38188*
X447545D02*
X448909D01*
X448909D02*
X449591Y37750D01*
X449932Y37313*
X449932D02*
X450273Y36438D01*
X450273D02*
Y35563D01*
X450273D02*
X449932Y34688D01*
X449932D02*
X449250Y33375D01*
X445841Y29000*
X450614*
X75500Y47406D02*
Y41500D01*
Y47406D02*
X78455D01*
X75500Y44594D02*
X77318D01*
X75500Y41500D02*
X78455D01*
X80500Y47406D02*
Y41500D01*
Y47406D02*
X83682Y41500D01*
Y47406D02*
Y41500D01*
X89136Y46000D02*
X88909Y46563D01*
X88909D02*
X88455Y47125D01*
X88000Y47406*
X87091*
X86636Y47125*
X86182Y46563*
X86182D02*
X85955Y46000D01*
X85727Y45156*
Y43750*
X85955Y42906*
X86182Y42344*
X86636Y41781*
X87091Y41500*
X88000*
X88455Y41781*
X88909Y42344*
X89136Y42906*
Y43750*
X88000D02*
X89136D01*
X91182Y47406D02*
Y41500D01*
Y47406D02*
X93227D01*
X93909Y47125*
X94136Y46844*
X94364Y46281*
Y45719*
X94136Y45156*
X93909Y44875*
X93227Y44594*
X91182*
X92773D02*
X94364Y41500D01*
X96636Y45438D02*
X96409Y45156D01*
X96636Y44875*
X96864Y45156*
X96636Y45438*
Y42063D02*
X96409Y41781D01*
X96636Y41500*
X96864Y41781*
X96636Y42063*
X115500Y34906D02*
Y29000D01*
X118682Y34906D02*
X115500Y30969D01*
X116636Y32375D02*
X118682Y29000D01*
X120955Y29563D02*
X120727Y29281D01*
X120955Y29000*
X121182Y29281*
X120955Y29563*
X128455Y34906D02*
Y29000D01*
Y34906D02*
X130500D01*
X131182Y34625*
X131409Y34344*
X131636Y33781*
Y32938*
X131636D02*
X131409Y32375D01*
X131182Y32094*
X130500Y31813*
X130500D02*
X128455D01*
X133682Y34906D02*
Y29000D01*
X136864Y34906D02*
Y29000D01*
X133682Y32094D02*
X136864D01*
X140727Y34906D02*
X138909Y29000D01*
X140727Y34906D02*
X142545Y29000D01*
X139591Y30969D02*
X141864D01*
X144591Y34906D02*
Y29000D01*
Y34906D02*
X146409Y29000D01*
X148227Y34906D02*
X146409Y29000D01*
X148227Y34906D02*
Y29000D01*
X123000Y96156D02*
Y91938D01*
X123000D02*
X123227Y91094D01*
X123682Y90531*
X124364Y90250*
X124818*
X125500Y90531*
X125955Y91094*
X126182Y91938*
X126182D02*
Y96156D01*
X128455Y90813D02*
X128227Y90531D01*
X128455Y90250*
X128682Y90531*
X128455Y90813*
X133909Y95313D02*
X133455Y95875D01*
X132773Y96156*
X131864*
X131182Y95875*
X130727Y95313*
X130727D02*
Y94750D01*
X130955Y94188*
X130955D02*
X131182Y93906D01*
X131636Y93625*
X133000Y93063*
X133000D02*
X133455Y92781D01*
X133682Y92500*
X133909Y91938*
X133909D02*
Y91094D01*
X133455Y90531*
X132773Y90250*
X131864*
X131182Y90531*
X130727Y91094*
X136182Y90813D02*
X135955Y90531D01*
X136182Y90250*
X136409Y90531*
X136182Y90813*
X143682Y96156D02*
Y90250D01*
Y96156D02*
X145273D01*
X145955Y95875*
X146409Y95313*
X146409D02*
X146636Y94750D01*
X146864Y93906*
Y92500*
X146636Y91656*
X146409Y91094*
X145955Y90531*
X145273Y90250*
X143682*
X148909Y96156D02*
Y90250D01*
Y96156D02*
X151864D01*
X148909Y93344D02*
X150727D01*
X148909Y90250D02*
X151864D01*
X153909Y96156D02*
Y90250D01*
Y96156D02*
X155955D01*
X156636Y95875*
X156864Y95594*
X157091Y95031*
Y94188*
X157091D02*
X156864Y93625D01*
X156636Y93344*
X155955Y93063*
X155955D02*
X153909D01*
X160955Y96156D02*
X159136Y90250D01*
X160955Y96156D02*
X162773Y90250D01*
X159818Y92219D02*
X162091D01*
X164818Y96156D02*
Y90250D01*
Y96156D02*
X166864D01*
X167545Y95875*
X167773Y95594*
X168000Y95031*
Y94469*
X167773Y93906*
X167545Y93625*
X166864Y93344*
X164818*
X166409D02*
X168000Y90250D01*
X171636Y96156D02*
Y90250D01*
X170045Y96156D02*
X173227D01*
X175273D02*
Y90250D01*
Y96156D02*
X177091Y90250D01*
X178909Y96156D02*
X177091Y90250D01*
X178909Y96156D02*
Y90250D01*
X180955Y96156D02*
Y90250D01*
Y96156D02*
X183909D01*
X180955Y93344D02*
X182773D01*
X180955Y90250D02*
X183909D01*
X185955Y96156D02*
Y90250D01*
Y96156D02*
X189136Y90250D01*
Y96156D02*
Y90250D01*
X192773Y96156D02*
Y90250D01*
X191182Y96156D02*
X194364D01*
X203000D02*
X202545Y95875D01*
X202091Y95313*
X202091D02*
X201864Y94750D01*
X201636Y93906*
Y92500*
X201864Y91656*
X202091Y91094*
X202545Y90531*
X203000Y90250*
X203909*
X204364Y90531*
X204818Y91094*
X205045Y91656*
X205273Y92500*
Y93906*
X205045Y94750*
X204818Y95313*
X204818D02*
X204364Y95875D01*
X203909Y96156*
X203000*
X207318D02*
Y90250D01*
Y96156D02*
X210273D01*
X207318Y93344D02*
X209136D01*
X217545Y96156D02*
Y90250D01*
Y96156D02*
X220500D01*
X217545Y93344D02*
X219364D01*
X217545Y90250D02*
X220500D01*
X222545Y96156D02*
Y90250D01*
Y96156D02*
X225727Y90250D01*
Y96156D02*
Y90250D01*
X227773Y96156D02*
Y90250D01*
Y96156D02*
X230727D01*
X227773Y93344D02*
X229591D01*
X227773Y90250D02*
X230727D01*
X232773Y96156D02*
Y90250D01*
Y96156D02*
X234818D01*
X235500Y95875*
X235727Y95594*
X235955Y95031*
Y94469*
X235727Y93906*
X235500Y93625*
X234818Y93344*
X232773*
X234364D02*
X235955Y90250D01*
X241409Y94750D02*
X241182Y95313D01*
X241182D02*
X240727Y95875D01*
X240273Y96156*
X239364*
X238909Y95875*
X238455Y95313*
X238455D02*
X238227Y94750D01*
X238000Y93906*
Y92500*
X238227Y91656*
X238455Y91094*
X238909Y90531*
X239364Y90250*
X240273*
X240727Y90531*
X241182Y91094*
X241409Y91656*
Y92500*
X240273D02*
X241409D01*
X243455Y96156D02*
X245273Y93344D01*
Y90250*
X247091Y96156D02*
X245273Y93344D01*
X88682Y79063D02*
X88227Y79625D01*
X87545Y79906*
X86636*
X85955Y79625*
X85500Y79063*
X85500D02*
Y78500D01*
X85727Y77938*
X85727D02*
X85955Y77656D01*
X86409Y77375*
X87773Y76813*
X87773D02*
X88227Y76531D01*
X88455Y76250*
X88682Y75688*
X88682D02*
Y74844D01*
X88227Y74281*
X87545Y74000*
X86636*
X85955Y74281*
X85500Y74844*
X92318Y79906D02*
Y74000D01*
X90727Y79906D02*
X93909D01*
X97773D02*
X95955Y74000D01*
X97773Y79906D02*
X99591Y74000D01*
X96636Y75969D02*
X98909D01*
X101636Y79906D02*
Y74000D01*
Y79906D02*
X104818Y74000D01*
Y79906D02*
Y74000D01*
X106864Y79906D02*
Y74000D01*
Y79906D02*
X109818D01*
X106864Y77094D02*
X108682D01*
X113227Y79906D02*
X112773Y79625D01*
X112318Y79063*
X112318D02*
X112091Y78500D01*
X111864Y77656*
Y76250*
X112091Y75406*
X112318Y74844*
X112773Y74281*
X113227Y74000*
X114136*
X114591Y74281*
X115045Y74844*
X115273Y75406*
X115500Y76250*
Y77656*
X115273Y78500*
X115045Y79063*
X115045D02*
X114591Y79625D01*
X114136Y79906*
X113227*
X117545D02*
Y74000D01*
Y79906D02*
X119591D01*
X120273Y79625*
X120500Y79344*
X120727Y78781*
Y78219*
X120500Y77656*
X120273Y77375*
X119591Y77094*
X117545*
X119136D02*
X120727Y74000D01*
X122773Y79906D02*
Y74000D01*
Y79906D02*
X124364D01*
X125045Y79625*
X125500Y79063*
X125500D02*
X125727Y78500D01*
X125955Y77656*
Y76250*
X125727Y75406*
X125500Y74844*
X125045Y74281*
X124364Y74000*
X122773*
X133227Y79906D02*
Y75688D01*
X133227D02*
X133455Y74844D01*
X133909Y74281*
X134591Y74000*
X135045*
X135727Y74281*
X136182Y74844*
X136409Y75688*
X136409D02*
Y79906D01*
X138455D02*
Y74000D01*
Y79906D02*
X141636Y74000D01*
Y79906D02*
Y74000D01*
X143682Y79906D02*
Y74000D01*
X145727Y79906D02*
X147545Y74000D01*
X149364Y79906D02*
X147545Y74000D01*
X151409Y79906D02*
Y74000D01*
Y79906D02*
X154364D01*
X151409Y77094D02*
X153227D01*
X151409Y74000D02*
X154364D01*
X156409Y79906D02*
Y74000D01*
Y79906D02*
X158455D01*
X159136Y79625*
X159364Y79344*
X159591Y78781*
Y78219*
X159364Y77656*
X159136Y77375*
X158455Y77094*
X156409*
X158000D02*
X159591Y74000D01*
X164818Y79063D02*
X164364Y79625D01*
X163682Y79906*
X162773*
X162091Y79625*
X161636Y79063*
X161636D02*
Y78500D01*
X161864Y77938*
X161864D02*
X162091Y77656D01*
X162545Y77375*
X163909Y76813*
X163909D02*
X164364Y76531D01*
X164591Y76250*
X164818Y75688*
X164818D02*
Y74844D01*
X164364Y74281*
X163682Y74000*
X162773*
X162091Y74281*
X161636Y74844*
X166864Y79906D02*
Y74000D01*
X170500Y79906D02*
Y74000D01*
X168909Y79906D02*
X172091D01*
X174136D02*
X175955Y77094D01*
Y74000*
X177773Y79906D02*
X175955Y77094D01*
X201182Y79063D02*
X200727Y79625D01*
X200045Y79906*
X199136*
X198455Y79625*
X198000Y79063*
X198000D02*
Y78500D01*
X198227Y77938*
X198227D02*
X198455Y77656D01*
X198909Y77375*
X200273Y76813*
X200273D02*
X200727Y76531D01*
X200955Y76250*
X201182Y75688*
X201182D02*
Y74844D01*
X200727Y74281*
X200045Y74000*
X199136*
X198455Y74281*
X198000Y74844*
X204818Y79906D02*
Y74000D01*
X203227Y79906D02*
X206409D01*
X210273D02*
X208455Y74000D01*
X210273Y79906D02*
X212091Y74000D01*
X209136Y75969D02*
X211409D01*
X214136Y79906D02*
Y74000D01*
Y79906D02*
X217318Y74000D01*
Y79906D02*
Y74000D01*
X219364Y79906D02*
Y74000D01*
Y79906D02*
X222318D01*
X219364Y77094D02*
X221182D01*
X225727Y79906D02*
X225273Y79625D01*
X224818Y79063*
X224818D02*
X224591Y78500D01*
X224364Y77656*
Y76250*
X224591Y75406*
X224818Y74844*
X225273Y74281*
X225727Y74000*
X226636*
X227091Y74281*
X227545Y74844*
X227773Y75406*
X228000Y76250*
Y77656*
X227773Y78500*
X227545Y79063*
X227545D02*
X227091Y79625D01*
X226636Y79906*
X225727*
X230045D02*
Y74000D01*
Y79906D02*
X232091D01*
X232773Y79625*
X233000Y79344*
X233227Y78781*
Y78219*
X233000Y77656*
X232773Y77375*
X232091Y77094*
X230045*
X231636D02*
X233227Y74000D01*
X235273Y79906D02*
Y74000D01*
Y79906D02*
X236864D01*
X237545Y79625*
X238000Y79063*
X238000D02*
X238227Y78500D01*
X238455Y77656*
Y76250*
X238227Y75406*
X238000Y74844*
X237545Y74281*
X236864Y74000*
X235273*
X240955Y74281D02*
X240727Y74000D01*
X240500Y74281*
X240727Y74563*
X240727D02*
X240955Y74281D01*
Y73719*
X240727Y73156*
X240500Y72875*
X251636Y78500D02*
X251409Y79063D01*
X251409D02*
X250955Y79625D01*
X250500Y79906*
X249591*
X249136Y79625*
X248682Y79063*
X248682D02*
X248455Y78500D01*
X248227Y77656*
Y76250*
X248455Y75406*
X248682Y74844*
X249136Y74281*
X249591Y74000*
X250500*
X250955Y74281*
X251409Y74844*
X251636Y75406*
X255500Y79906D02*
X253682Y74000D01*
X255500Y79906D02*
X257318Y74000D01*
X254364Y75969D02*
X256636D01*
X259364Y79906D02*
Y74000D01*
X262091*
X264136Y79906D02*
Y74000D01*
X266182Y79906D02*
Y74000D01*
Y79906D02*
X269136D01*
X266182Y77094D02*
X268000D01*
X272545Y79906D02*
X272091Y79625D01*
X271636Y79063*
X271636D02*
X271409Y78500D01*
X271182Y77656*
Y76250*
X271409Y75406*
X271636Y74844*
X272091Y74281*
X272545Y74000*
X273455*
X273909Y74281*
X274364Y74844*
X274591Y75406*
X274818Y76250*
Y77656*
X274591Y78500*
X274364Y79063*
X274364D02*
X273909Y79625D01*
X273455Y79906*
X272545*
X276864D02*
Y74000D01*
Y79906D02*
X278909D01*
X279591Y79625*
X279818Y79344*
X280045Y78781*
Y78219*
X279818Y77656*
X279591Y77375*
X278909Y77094*
X276864*
X278455D02*
X280045Y74000D01*
X282091Y79906D02*
Y74000D01*
Y79906D02*
X285273Y74000D01*
Y79906D02*
Y74000D01*
X287318Y79906D02*
Y74000D01*
X291182Y79906D02*
X289364Y74000D01*
X291182Y79906D02*
X293000Y74000D01*
X290045Y75969D02*
X292318D01*
X77687Y111786D02*
X77142Y112473D01*
X76324Y112817*
X75233*
X74414Y112473*
X73869Y111786*
X73869D02*
Y111098D01*
X74142Y110411*
X74142D02*
X74414Y110067D01*
X74960Y109723*
X76596Y109036*
X76596D02*
X77142Y108692D01*
X77414Y108348*
X77687Y107661*
X77687D02*
Y106629D01*
X77142Y105942*
X76324Y105598*
X75233*
X74414Y105942*
X73869Y106629*
X80142Y112817D02*
Y105598D01*
X83414*
X88051Y112817D02*
X85869Y105598D01*
X88051Y112817D02*
X90233Y105598D01*
X86687Y108004D02*
X89414D01*
X96778Y111098D02*
X96505Y111786D01*
X96505D02*
X95960Y112473D01*
X95414Y112817*
X94324*
X93778Y112473*
X93233Y111786*
X93233D02*
X92960Y111098D01*
X92687Y110067*
Y108348*
X92960Y107317*
X93233Y106629*
X93778Y105942*
X94324Y105598*
X95414*
X95960Y105942*
X96505Y106629*
X96778Y107317*
X105505Y112817D02*
Y105598D01*
Y112817D02*
X109324Y105598D01*
Y112817D02*
Y105598D01*
X113960Y112817D02*
X111778Y105598D01*
X113960Y112817D02*
X116142Y105598D01*
X112596Y108004D02*
X115324D01*
X120505Y112817D02*
Y105598D01*
X118596Y112817D02*
X122414D01*
X124869D02*
Y105598D01*
X128960Y112817D02*
X128414Y112473D01*
X127869Y111786*
X127869D02*
X127596Y111098D01*
X127324Y110067*
Y108348*
X127596Y107317*
X127869Y106629*
X128414Y105942*
X128960Y105598*
X130051*
X130596Y105942*
X131142Y106629*
X131414Y107317*
X131687Y108348*
Y110067*
X131414Y111098*
X131142Y111786*
X131142D02*
X130596Y112473D01*
X130051Y112817*
X128960*
X134142D02*
Y105598D01*
Y112817D02*
X137960Y105598D01*
Y112817D02*
Y105598D01*
X142596Y112817D02*
X140414Y105598D01*
X142596Y112817D02*
X144778Y105598D01*
X141233Y108004D02*
X143960D01*
X147233Y112817D02*
Y105598D01*
X150505*
X161414Y112817D02*
X159233Y105598D01*
X161414Y112817D02*
X163596Y105598D01*
X160051Y108004D02*
X162778D01*
X170142Y111098D02*
X169869Y111786D01*
X169869D02*
X169324Y112473D01*
X168778Y112817*
X167687*
X167142Y112473*
X166596Y111786*
X166596D02*
X166324Y111098D01*
X166051Y110067*
Y108348*
X166324Y107317*
X166596Y106629*
X167142Y105942*
X167687Y105598*
X168778*
X169324Y105942*
X169869Y106629*
X170142Y107317*
X176687Y111098D02*
X176414Y111786D01*
X176414D02*
X175869Y112473D01*
X175324Y112817*
X174233*
X173687Y112473*
X173142Y111786*
X173142D02*
X172869Y111098D01*
X172596Y110067*
Y108348*
X172869Y107317*
X173142Y106629*
X173687Y105942*
X174233Y105598*
X175324*
X175869Y105942*
X176414Y106629*
X176687Y107317*
X179142Y112817D02*
Y105598D01*
Y112817D02*
X182687D01*
X179142Y109379D02*
X181324D01*
X179142Y105598D02*
X182687D01*
X185142Y112817D02*
Y105598D01*
X188414*
X190869Y112817D02*
Y105598D01*
Y112817D02*
X194414D01*
X190869Y109379D02*
X193051D01*
X190869Y105598D02*
X194414D01*
X196869Y112817D02*
Y105598D01*
Y112817D02*
X199324D01*
X200142Y112473*
X200414Y112129*
X200687Y111442*
Y110754*
X200414Y110067*
X200142Y109723*
X199324Y109379*
X196869*
X198778D02*
X200687Y105598D01*
X205324Y112817D02*
X203142Y105598D01*
X205324Y112817D02*
X207505Y105598D01*
X203960Y108004D02*
X206687D01*
X211869Y112817D02*
Y105598D01*
X209960Y112817D02*
X213778D01*
X217869D02*
X217324Y112473D01*
X216778Y111786*
X216778D02*
X216505Y111098D01*
X216233Y110067*
Y108348*
X216505Y107317*
X216778Y106629*
X217324Y105942*
X217869Y105598*
X218960*
X219505Y105942*
X220051Y106629*
X220324Y107317*
X220596Y108348*
Y110067*
X220324Y111098*
X220051Y111786*
X220051D02*
X219505Y112473D01*
X218960Y112817*
X217869*
X223051D02*
Y105598D01*
Y112817D02*
X225505D01*
X226324Y112473*
X226596Y112129*
X226869Y111442*
Y110754*
X226596Y110067*
X226324Y109723*
X225505Y109379*
X223051*
X224960D02*
X226869Y105598D01*
X235596Y112817D02*
Y105598D01*
X238869*
X243505Y112817D02*
X241324Y105598D01*
X243505Y112817D02*
X245687Y105598D01*
X242142Y108004D02*
X244869D01*
X248142Y112817D02*
Y105598D01*
Y112817D02*
X250596D01*
X251414Y112473*
X251687Y112129*
X251960Y111442*
Y110754*
X251687Y110067*
X251414Y109723*
X250596Y109379*
X248142D02*
X250596D01*
X251414Y109036*
X251414D02*
X251687Y108692D01*
X251960Y108004*
Y106973*
X251687Y106286*
X251687D02*
X251414Y105942D01*
X250596Y105598*
X248142*
X256051Y112817D02*
X255505Y112473D01*
X254960Y111786*
X254960D02*
X254687Y111098D01*
X254414Y110067*
Y108348*
X254687Y107317*
X254960Y106629*
X255505Y105942*
X256051Y105598*
X257142*
X257687Y105942*
X258233Y106629*
X258505Y107317*
X258778Y108348*
Y110067*
X258505Y111098*
X258233Y111786*
X258233D02*
X257687Y112473D01*
X257142Y112817*
X256051*
X261233D02*
Y105598D01*
Y112817D02*
X263687D01*
X264505Y112473*
X264778Y112129*
X265051Y111442*
Y110754*
X264778Y110067*
X264505Y109723*
X263687Y109379*
X261233*
X263142D02*
X265051Y105598D01*
X269687Y112817D02*
X267505Y105598D01*
X269687Y112817D02*
X271869Y105598D01*
X268324Y108004D02*
X271051D01*
X276233Y112817D02*
Y105598D01*
X274324Y112817D02*
X278142D01*
X282233D02*
X281687Y112473D01*
X281142Y111786*
X281142D02*
X280869Y111098D01*
X280596Y110067*
Y108348*
X280869Y107317*
X281142Y106629*
X281687Y105942*
X282233Y105598*
X283324*
X283869Y105942*
X284414Y106629*
X284687Y107317*
X284960Y108348*
Y110067*
X284687Y111098*
X284414Y111786*
X284414D02*
X283869Y112473D01*
X283324Y112817*
X282233*
X287414D02*
Y105598D01*
Y112817D02*
X289869D01*
X290687Y112473*
X290960Y112129*
X291233Y111442*
Y110754*
X290960Y110067*
X290687Y109723*
X289869Y109379*
X287414*
X289324D02*
X291233Y105598D01*
X293687Y112817D02*
X295869Y109379D01*
Y105598*
X298051Y112817D02*
X295869Y109379D01*
X469477Y35469D02*
X468909Y36188D01*
X468909D02*
X468057Y36547D01*
X466920*
X466068Y36188*
X466068D02*
X465500Y35469D01*
Y34750*
X465784Y34031*
X466068Y33672*
X466636Y33313*
X466636D02*
X468341Y32594D01*
X468909Y32234*
X469193Y31875*
X469477Y31156*
Y30078*
X468909Y29359*
X468057Y29000*
X466920*
X466068Y29359*
X465500Y30078*
X472034Y36547D02*
Y29000D01*
X476011Y36547D02*
Y29000D01*
X472034Y32953D02*
X476011D01*
X480557Y36547D02*
Y29000D01*
X478568Y36547D02*
X482545D01*
X504705D02*
X504136Y36188D01*
X504136D02*
X503568Y35469D01*
X503284Y34750*
X503000Y33672*
Y31875*
X503284Y30797*
X503568Y30078*
X504136Y29359*
X504705Y29000*
X505841*
X506409Y29359*
X506977Y30078*
X507261Y30797*
X507545Y31875*
Y33672*
X507261Y34750*
X506977Y35469*
X506409Y36188*
X506409D02*
X505841Y36547D01*
X504705*
X510102D02*
Y29000D01*
Y36547D02*
X513795D01*
X510102Y32953D02*
X512375D01*
X75500Y34906D02*
Y29000D01*
Y34906D02*
X77091D01*
X77773Y34625*
X78227Y34063*
X78227D02*
X78455Y33500D01*
X78682Y32656*
Y31250*
X78455Y30406*
X78227Y29844*
X77773Y29281*
X77091Y29000*
X75500*
X83909Y34063D02*
X83455Y34625D01*
X82773Y34906*
X81864*
X81182Y34625*
X80727Y34063*
X80727D02*
Y33500D01*
X80955Y32938*
X80955D02*
X81182Y32656D01*
X81636Y32375*
X83000Y31813*
X83000D02*
X83455Y31531D01*
X83682Y31250*
X83909Y30688*
X83909D02*
Y29844D01*
X83455Y29281*
X82773Y29000*
X81864*
X81182Y29281*
X80727Y29844*
X85955Y34906D02*
Y29000D01*
Y34906D02*
X89136Y29000D01*
Y34906D02*
Y29000D01*
X94591Y33500D02*
X94364Y34063D01*
X94364D02*
X93909Y34625D01*
X93455Y34906*
X92545*
X92091Y34625*
X91636Y34063*
X91636D02*
X91409Y33500D01*
X91182Y32656*
Y31250*
X91409Y30406*
X91636Y29844*
X92091Y29281*
X92545Y29000*
X93455*
X93909Y29281*
X94364Y29844*
X94591Y30406*
Y31250*
X93455D02*
X94591D01*
X96636Y34906D02*
Y29000D01*
Y34906D02*
X98682D01*
X99364Y34625*
X99591Y34344*
X99818Y33781*
Y33219*
X99591Y32656*
X99364Y32375*
X98682Y32094*
X96636*
X98227D02*
X99818Y29000D01*
X102091Y32938D02*
X101864Y32656D01*
X102091Y32375*
X102318Y32656*
X102091Y32938*
Y29563D02*
X101864Y29281D01*
X102091Y29000*
X102318Y29281*
X102091Y29563*
X115500Y47406D02*
Y41500D01*
X118227*
X122091Y47406D02*
X120273Y41500D01*
X122091Y47406D02*
X123909Y41500D01*
X120955Y43469D02*
X123227D01*
X125955Y47406D02*
Y41500D01*
Y47406D02*
X128000D01*
X128682Y47125*
X128909Y46844*
X129136Y46281*
Y45719*
X128909Y45156*
X128682Y44875*
X128000Y44594*
X125955*
X127545D02*
X129136Y41500D01*
X131182Y47406D02*
Y41500D01*
Y47406D02*
X133227D01*
X133909Y47125*
X134136Y46844*
X134364Y46281*
Y45719*
X134136Y45156*
X133909Y44875*
X133227Y44594*
X131182*
X132773D02*
X134364Y41500D01*
X136409Y47406D02*
X138227Y44594D01*
Y41500*
X140045Y47406D02*
X138227Y44594D01*
X147318Y47406D02*
Y41500D01*
Y47406D02*
X148909D01*
X149591Y47125*
X150045Y46563*
X150045D02*
X150273Y46000D01*
X150500Y45156*
Y43750*
X150273Y42906*
X150045Y42344*
X149591Y41781*
X148909Y41500*
X147318*
X153909Y47406D02*
X153455Y47125D01*
X153000Y46563*
X153000D02*
X152773Y46000D01*
X152545Y45156*
Y43750*
X152773Y42906*
X153000Y42344*
X153455Y41781*
X153909Y41500*
X154818*
X155273Y41781*
X155727Y42344*
X155955Y42906*
X156182Y43750*
Y45156*
X155955Y46000*
X155727Y46563*
X155727D02*
X155273Y47125D01*
X154818Y47406*
X153909*
X159591D02*
X159136Y47125D01*
X158682Y46563*
X158682D02*
X158455Y46000D01*
X158227Y45156*
Y43750*
X158455Y42906*
X158682Y42344*
X159136Y41781*
X159591Y41500*
X160500*
X160955Y41781*
X161409Y42344*
X161636Y42906*
X161864Y43750*
Y45156*
X161636Y46000*
X161409Y46563*
X161409D02*
X160955Y47125D01*
X160500Y47406*
X159591*
X163909D02*
Y41500D01*
X166636*
X168682Y47406D02*
Y41500D01*
X172318Y47406D02*
Y41500D01*
X170727Y47406D02*
X173909D01*
X177545D02*
Y41500D01*
X175955Y47406D02*
X179136D01*
X181182D02*
Y41500D01*
X183909*
X185955Y47406D02*
Y41500D01*
Y47406D02*
X188909D01*
X185955Y44594D02*
X187773D01*
X185955Y41500D02*
X188909D01*
X520500Y35109D02*
X521068Y35469D01*
X521920Y36547*
Y29000*
X525045Y36547D02*
X528170D01*
X526466Y33672*
X527318*
X527886Y33313*
X527886D02*
X528170Y32953D01*
X528455Y31875*
Y31156*
X528170Y30078*
X527602Y29359*
X526750Y29000*
X525898*
X525045Y29359*
X524761Y29719*
X524477Y30438*
X323000Y75063D02*
Y65875D01*
X327091*
X330159Y75063D02*
Y65875D01*
X334250*
X337318Y75063D02*
Y65875D01*
Y75063D02*
X340386D01*
X340386D02*
X341409Y74625D01*
X341750Y74188*
X341750D02*
X342091Y73313D01*
X342091D02*
Y72438D01*
X342091D02*
X341750Y71563D01*
X341750D02*
X341409Y71125D01*
X340386Y70688*
X340386D02*
X337318D01*
X339705D02*
X342091Y65875D01*
X345159Y75063D02*
Y65875D01*
Y75063D02*
X349591D01*
X345159Y70688D02*
X347886D01*
X360500Y75063D02*
Y65875D01*
Y75063D02*
X363568D01*
X363568D02*
X364591Y74625D01*
X364932Y74188*
X364932D02*
X365273Y73313D01*
X365273D02*
Y72000D01*
X364932Y71125*
X364591Y70688*
X364591D02*
X363568Y70250D01*
X360500*
X368341Y75063D02*
Y65875D01*
Y75063D02*
X371409D01*
X371409D02*
X372432Y74625D01*
X372773Y74188*
X372773D02*
X373114Y73313D01*
X373114D02*
Y72438D01*
X373114D02*
X372773Y71563D01*
X372773D02*
X372432Y71125D01*
X371409Y70688*
X371409D02*
X368341D01*
X370727D02*
X373114Y65875D01*
X381295Y72875D02*
X380955Y73750D01*
X380273Y74625*
X379591Y75063*
X379591D02*
X378227D01*
X378227D02*
X377545Y74625D01*
X376864Y73750*
X376523Y72875*
X376182Y71563*
X376182D02*
Y69375D01*
X376523Y68063*
X376523D02*
X376864Y67188D01*
X376864D02*
X377545Y66313D01*
X377545D02*
X378227Y65875D01*
X379591*
X380273Y66313*
X380273D02*
X380955Y67188D01*
X380955D02*
X381295Y68063D01*
X392205Y75063D02*
Y65875D01*
Y75063D02*
X394591D01*
X394591D02*
X395614Y74625D01*
X396295Y73750*
X396636Y72875*
X396977Y71563*
X396977D02*
Y69375D01*
X396636Y68063*
X396636D02*
X396295Y67188D01*
X396295D02*
X395614Y66313D01*
X395614D02*
X394591Y65875D01*
X392205*
X400045Y75063D02*
Y65875D01*
X408227Y72875D02*
X407886Y73750D01*
X407205Y74625*
X406523Y75063*
X406523D02*
X405159D01*
X405159D02*
X404477Y74625D01*
X403795Y73750*
X403455Y72875*
X403114Y71563*
X403114D02*
Y69375D01*
X403455Y68063*
X403455D02*
X403795Y67188D01*
X403795D02*
X404477Y66313D01*
X404477D02*
X405159Y65875D01*
X406523*
X407205Y66313*
X407205D02*
X407886Y67188D01*
X407886D02*
X408227Y68063D01*
X408227D02*
Y69375D01*
X406523D02*
X408227D01*
X411295Y75063D02*
Y65875D01*
X416750Y75063D02*
Y65875D01*
X414364Y75063D02*
X419136D01*
X422205D02*
Y65875D01*
X430045Y75063D02*
X425273Y65875D01*
Y75063D02*
X430045D01*
X425273Y65875D02*
X430045D01*
X433114Y75063D02*
Y65875D01*
Y75063D02*
X437545D01*
X433114Y70688D02*
X435841D01*
X433114Y65875D02*
X437545D01*
X440614Y75063D02*
Y65875D01*
Y75063D02*
X443682D01*
X443682D02*
X444705Y74625D01*
X445045Y74188*
X445045D02*
X445386Y73313D01*
X445386D02*
Y72438D01*
X445386D02*
X445045Y71563D01*
X445045D02*
X444705Y71125D01*
X443682Y70688*
X443682D02*
X440614D01*
X443000D02*
X445386Y65875D01*
X456295Y75063D02*
Y65875D01*
Y75063D02*
X459364D01*
X459364D02*
X460386Y74625D01*
X460727Y74188*
X460727D02*
X461068Y73313D01*
X461068D02*
Y72438D01*
X461068D02*
X460727Y71563D01*
X460727D02*
X460386Y71125D01*
X459364Y70688*
X456295D02*
X459364D01*
X459364D02*
X460386Y70250D01*
X460727Y69813*
X460727D02*
X461068Y68938D01*
X461068D02*
Y67625D01*
X460727Y66750*
X460386Y66313*
X460386D02*
X459364Y65875D01*
X456295*
X466182Y75063D02*
X465500Y74625D01*
X464818Y73750*
X464477Y72875*
X464136Y71563*
X464136D02*
Y69375D01*
X464477Y68063*
X464477D02*
X464818Y67188D01*
X464818D02*
X465500Y66313D01*
X465500D02*
X466182Y65875D01*
X467545*
X468227Y66313*
X468227D02*
X468909Y67188D01*
X468909D02*
X469250Y68063D01*
X469250D02*
X469591Y69375D01*
Y71563*
X469591D02*
X469250Y72875D01*
X468909Y73750*
X468227Y74625*
X467545Y75063*
X467545D02*
X466182D01*
X475386D02*
X472659Y65875D01*
X475386Y75063D02*
X478114Y65875D01*
X473682Y68938D02*
X477091D01*
X481182Y75063D02*
Y65875D01*
Y75063D02*
X484250D01*
X484250D02*
X485273Y74625D01*
X485614Y74188*
X485614D02*
X485955Y73313D01*
X485955D02*
Y72438D01*
X485955D02*
X485614Y71563D01*
X485614D02*
X485273Y71125D01*
X484250Y70688*
X484250D02*
X481182D01*
X483568D02*
X485955Y65875D01*
X489023Y75063D02*
Y65875D01*
Y75063D02*
X491409D01*
X491409D02*
X492432Y74625D01*
X493114Y73750*
X493455Y72875*
X493795Y71563*
X493795D02*
Y69375D01*
X493455Y68063*
X493455D02*
X493114Y67188D01*
X493114D02*
X492432Y66313D01*
X492432D02*
X491409Y65875D01*
X489023*
X230369Y63504D02*
Y57598D01*
Y63504D02*
X232187Y57598D01*
X234005Y63504D02*
X232187Y57598D01*
X234005Y63504D02*
Y57598D01*
X237869Y63504D02*
X236051Y57598D01*
X237869Y63504D02*
X239687Y57598D01*
X236733Y59567D02*
X239005D01*
X241733Y63504D02*
X243551Y60692D01*
Y57598*
X245369Y63504D02*
X243551Y60692D01*
X252642Y62379D02*
X253096Y62661D01*
X253096D02*
X253778Y63504D01*
Y57598*
X258778Y61536D02*
X258551Y60692D01*
X258096Y60129*
X257414Y59848*
X257187*
X256505Y60129*
X256051Y60692*
X255824Y61536*
X255824D02*
Y61817D01*
X256051Y62661*
X256051D02*
X256505Y63223D01*
X257187Y63504*
X257414*
X258096Y63223*
X258551Y62661*
X258551D02*
X258778Y61536D01*
X258778D02*
Y60129D01*
X258551Y58723*
X258096Y57879*
X257414Y57598*
X256960*
X256278Y57879*
X256051Y58442*
X261278Y57879D02*
X261051Y57598D01*
X260824Y57879*
X261051Y58161*
X261051D02*
X261278Y57879D01*
Y57317*
X261051Y56754*
X260824Y56473*
X268778Y62098D02*
Y62379D01*
X269005Y62942*
X269233Y63223*
X269687Y63504*
X270596*
X271051Y63223*
X271278Y62942*
X271505Y62379*
Y61817*
X271278Y61254*
X270824Y60411*
X270824D02*
X268551Y57598D01*
X271733*
X275142Y63504D02*
X274460Y63223D01*
X274005Y62379*
X273778Y60973*
Y60129*
X274005Y58723*
X274460Y57879*
X275142Y57598*
X275596*
X276278Y57879*
X276733Y58723*
X276960Y60129*
Y60973*
X276733Y62379*
X276278Y63223*
X275596Y63504*
X275142*
X279005Y62379D02*
X279460Y62661D01*
X279460D02*
X280142Y63504D01*
Y57598*
X285369Y63504D02*
X283096Y57598D01*
X282187Y63504D02*
X285369D01*
X356816Y129496D02*
X356248Y130215D01*
X355395Y130574*
X354259*
X353407Y130215*
X352839Y129496*
Y128778*
X353123Y128059*
X353407Y127699*
X353975Y127340*
X355679Y126621*
X356248Y126262*
X356532Y125903*
X356816Y125184*
Y124106*
X356248Y123387*
X355395Y123028*
X354259*
X353407Y123387*
X352839Y124106*
X361077Y130574D02*
X360509Y130215D01*
X359941Y129496*
X359657Y128778*
X359373Y127699*
Y125903*
X359657Y124824*
X359941Y124106*
X360509Y123387*
X361077Y123028*
X362214*
X362782Y123387*
X363350Y124106*
X363634Y124824*
X363918Y125903*
Y127699*
X363634Y128778*
X363350Y129496*
X362782Y130215*
X362214Y130574*
X361077*
X366475D02*
Y123028D01*
X369884*
X372441Y130574D02*
Y123028D01*
Y130574D02*
X374429D01*
X375282Y130215*
X375850Y129496*
X376134Y128778*
X376418Y127699*
Y125903*
X376134Y124824*
X375850Y124106*
X375282Y123387*
X374429Y123028*
X372441*
X378975Y130574D02*
Y123028D01*
Y130574D02*
X382668D01*
X378975Y126981D02*
X381248D01*
X378975Y123028D02*
X382668D01*
X385225Y130574D02*
Y123028D01*
Y130574D02*
X387782D01*
X388634Y130215*
X388918Y129856*
X389202Y129137*
Y128418*
X388918Y127699*
X388634Y127340*
X387782Y126981*
X385225*
X387214D02*
X389202Y123028D01*
X391759Y130574D02*
Y123028D01*
Y130574D02*
X394032Y123028D01*
X396304Y130574D02*
X394032Y123028D01*
X396304Y130574D02*
Y123028D01*
X401134Y130574D02*
X398861Y123028D01*
X401134Y130574D02*
X403407Y123028D01*
X399714Y125543D02*
X402554D01*
X409941Y129496D02*
X409373Y130215D01*
X408520Y130574*
X407384*
X406532Y130215*
X405964Y129496*
Y128778*
X406248Y128059*
X406532Y127699*
X407100Y127340*
X408804Y126621*
X409373Y126262*
X409657Y125903*
X409941Y125184*
Y124106*
X409373Y123387*
X408520Y123028*
X407384*
X406532Y123387*
X405964Y124106*
X412498Y130574D02*
Y123028D01*
X416475Y130574D02*
X412498Y125543D01*
X413918Y127340D02*
X416475Y123028D01*
X427554Y130574D02*
Y123028D01*
X425566Y130574D02*
X429543D01*
X433804D02*
X433236Y130215D01*
X432668Y129496*
X432384Y128778*
X432100Y127699*
Y125903*
X432384Y124824*
X432668Y124106*
X433236Y123387*
X433804Y123028*
X434941*
X435509Y123387*
X436077Y124106*
X436361Y124824*
X436645Y125903*
Y127699*
X436361Y128778*
X436077Y129496*
X435509Y130215*
X434941Y130574*
X433804*
X439202D02*
Y123028D01*
Y130574D02*
X441759D01*
X442611Y130215*
X442895Y129856*
X443179Y129137*
Y128059*
X442895Y127340*
X442611Y126981*
X441759Y126621*
X439202*
X495679Y35574D02*
X492839Y30543D01*
X497100*
X495679Y35574D02*
Y28028D01*
G54D95*
X329864Y107125D02*
X328955Y108250D01*
X327591Y108813*
X327591D02*
X325773D01*
X325773D02*
X324409Y108250D01*
X323500Y107125*
Y106000*
X323955Y104875*
X324409Y104313*
X324409D02*
X325318Y103750D01*
X328045Y102625*
X328955Y102063*
X328955D02*
X329409Y101500D01*
X329864Y100375*
Y98688*
X329864D02*
X328955Y97563D01*
X328955D02*
X327591Y97000D01*
X325773*
X324409Y97563*
X324409D02*
X323500Y98688D01*
X333955Y108813D02*
Y97000D01*
X339409*
X347136Y108813D02*
X343500Y97000D01*
X347136Y108813D02*
X350773Y97000D01*
X344864Y100938D02*
X349409D01*
X361682Y106000D02*
X361227Y107125D01*
X360318Y108250*
X359409Y108813*
X359409D02*
X357591D01*
X357591D02*
X356682Y108250D01*
X355773Y107125*
X355318Y106000*
X354864Y104313*
X354864D02*
Y101500D01*
X355318Y99813*
X355318D02*
X355773Y98688D01*
X355773D02*
X356682Y97563D01*
X356682D02*
X357591Y97000D01*
X359409*
X360318Y97563*
X360318D02*
X361227Y98688D01*
X361227D02*
X361682Y99813D01*
G54D100*
X312224Y761108D02*
X312227Y761079D01*
X312235Y761051*
X312249Y761025*
X312268Y761002*
X312662Y760609*
X312662D02*
X312684Y760590D01*
X312710Y760576*
X312738Y760567*
X312768Y760565*
X315917*
X315947Y760567*
X315975Y760576*
X316001Y760590*
X316023Y760609*
X316023D02*
X316417Y761002D01*
X316436Y761025*
X316450Y761051*
X316458Y761079*
X316461Y761108*
Y764258*
X316458Y764287*
X316450Y764315*
X316436Y764341*
X316417Y764364*
X316023Y764758*
X316001Y764776*
X315975Y764790*
X315947Y764799*
X315917Y764802*
X312768*
X312738Y764799*
X312710Y764790*
X312684Y764776*
X312662Y764758*
X312268Y764364*
X312249Y764341*
X312235Y764315*
X312227Y764287*
X312224Y764258*
Y761108*
X312243Y761038D02*
Y764329D01*
X312293Y760978D02*
Y764389D01*
X312343Y760928D02*
Y764439D01*
X312393Y760878D02*
Y764489D01*
X312443Y760828D02*
Y764539D01*
X312493Y760778D02*
Y764589D01*
X312543Y760728D02*
Y764639D01*
X312593Y760678D02*
Y764689D01*
X312643Y760628D02*
Y764739D01*
X312693Y760585D02*
Y764781D01*
X312743Y760567D02*
Y764799D01*
X312793Y760565D02*
Y764802D01*
X312843Y760565D02*
Y764802D01*
X312893Y760565D02*
Y764802D01*
X312943Y760565D02*
Y764802D01*
X312993Y760565D02*
Y764802D01*
X313043Y760565D02*
Y764802D01*
X313093Y760565D02*
Y764802D01*
X313143Y760565D02*
Y764802D01*
X313193Y760565D02*
Y764802D01*
X313243Y760565D02*
Y764802D01*
X313293Y760565D02*
Y764802D01*
X313343Y760565D02*
Y764802D01*
X313393Y760565D02*
Y764802D01*
X313443Y760565D02*
Y764802D01*
X313493Y760565D02*
Y764802D01*
X313543Y760565D02*
Y764802D01*
X313593Y760565D02*
Y764802D01*
X313643Y760565D02*
Y764802D01*
X313693Y760565D02*
Y764802D01*
X313743Y760565D02*
Y764802D01*
X313793Y760565D02*
Y764802D01*
X313843Y760565D02*
Y764802D01*
X313893Y760565D02*
Y764802D01*
X313943Y760565D02*
Y764802D01*
X313993Y760565D02*
Y764802D01*
X314043Y760565D02*
Y764802D01*
X314093Y760565D02*
Y764802D01*
X314143Y760565D02*
Y764802D01*
X314193Y760565D02*
Y764802D01*
X314243Y760565D02*
Y764802D01*
X314293Y760565D02*
Y764802D01*
X314343Y760565D02*
Y764802D01*
X314393Y760565D02*
Y764802D01*
X314443Y760565D02*
Y764802D01*
X314493Y760565D02*
Y764802D01*
X314543Y760565D02*
Y764802D01*
X314593Y760565D02*
Y764802D01*
X314643Y760565D02*
Y764802D01*
X314693Y760565D02*
Y764802D01*
X314743Y760565D02*
Y764802D01*
X314793Y760565D02*
Y764802D01*
X314843Y760565D02*
Y764802D01*
X314893Y760565D02*
Y764802D01*
X314943Y760565D02*
Y764802D01*
X314993Y760565D02*
Y764802D01*
X315043Y760565D02*
Y764802D01*
X315093Y760565D02*
Y764802D01*
X315143Y760565D02*
Y764802D01*
X315193Y760565D02*
Y764802D01*
X315243Y760565D02*
Y764802D01*
X315293Y760565D02*
Y764802D01*
X315343Y760565D02*
Y764802D01*
X315393Y760565D02*
Y764802D01*
X315443Y760565D02*
Y764802D01*
X315493Y760565D02*
Y764802D01*
X315543Y760565D02*
Y764802D01*
X315593Y760565D02*
Y764802D01*
X315643Y760565D02*
Y764802D01*
X315693Y760565D02*
Y764802D01*
X315743Y760565D02*
Y764802D01*
X315793Y760565D02*
Y764802D01*
X315843Y760565D02*
Y764802D01*
X315893Y760565D02*
Y764802D01*
X315943Y760567D02*
Y764799D01*
X315993Y760585D02*
Y764781D01*
X316043Y760628D02*
Y764739D01*
X316093Y760678D02*
Y764689D01*
X316143Y760728D02*
Y764639D01*
X316193Y760778D02*
Y764589D01*
X316243Y760828D02*
Y764539D01*
X316293Y760878D02*
Y764489D01*
X316343Y760928D02*
Y764439D01*
X316393Y760978D02*
Y764389D01*
X316443Y761038D02*
Y764329D01*
X377224Y761108D02*
X377227Y761079D01*
X377235Y761051*
X377249Y761025*
X377268Y761002*
X377662Y760609*
X377662D02*
X377684Y760590D01*
X377710Y760576*
X377738Y760567*
X377768Y760565*
X380917*
X380947Y760567*
X380975Y760576*
X381001Y760590*
X381023Y760609*
X381023D02*
X381417Y761002D01*
X381436Y761025*
X381450Y761051*
X381458Y761079*
X381461Y761108*
Y764258*
X381458Y764287*
X381450Y764315*
X381436Y764341*
X381417Y764364*
X381023Y764758*
X381001Y764776*
X380975Y764790*
X380947Y764799*
X380917Y764802*
X377768*
X377738Y764799*
X377710Y764790*
X377684Y764776*
X377662Y764758*
X377268Y764364*
X377249Y764341*
X377235Y764315*
X377227Y764287*
X377224Y764258*
Y761108*
X377243Y761038D02*
Y764329D01*
X377293Y760978D02*
Y764389D01*
X377343Y760928D02*
Y764439D01*
X377393Y760878D02*
Y764489D01*
X377443Y760828D02*
Y764539D01*
X377493Y760778D02*
Y764589D01*
X377543Y760728D02*
Y764639D01*
X377593Y760678D02*
Y764689D01*
X377643Y760628D02*
Y764739D01*
X377693Y760585D02*
Y764781D01*
X377743Y760567D02*
Y764799D01*
X377793Y760565D02*
Y764802D01*
X377843Y760565D02*
Y764802D01*
X377893Y760565D02*
Y764802D01*
X377943Y760565D02*
Y764802D01*
X377993Y760565D02*
Y764802D01*
X378043Y760565D02*
Y764802D01*
X378093Y760565D02*
Y764802D01*
X378143Y760565D02*
Y764802D01*
X378193Y760565D02*
Y764802D01*
X378243Y760565D02*
Y764802D01*
X378293Y760565D02*
Y764802D01*
X378343Y760565D02*
Y764802D01*
X378393Y760565D02*
Y764802D01*
X378443Y760565D02*
Y764802D01*
X378493Y760565D02*
Y764802D01*
X378543Y760565D02*
Y764802D01*
X378593Y760565D02*
Y764802D01*
X378643Y760565D02*
Y764802D01*
X378693Y760565D02*
Y764802D01*
X378743Y760565D02*
Y764802D01*
X378793Y760565D02*
Y764802D01*
X378843Y760565D02*
Y764802D01*
X378893Y760565D02*
Y764802D01*
X378943Y760565D02*
Y764802D01*
X378993Y760565D02*
Y764802D01*
X379043Y760565D02*
Y764802D01*
X379093Y760565D02*
Y764802D01*
X379143Y760565D02*
Y764802D01*
X379193Y760565D02*
Y764802D01*
X379243Y760565D02*
Y764802D01*
X379293Y760565D02*
Y764802D01*
X379343Y760565D02*
Y764802D01*
X379393Y760565D02*
Y764802D01*
X379443Y760565D02*
Y764802D01*
X379493Y760565D02*
Y764802D01*
X379543Y760565D02*
Y764802D01*
X379593Y760565D02*
Y764802D01*
X379643Y760565D02*
Y764802D01*
X379693Y760565D02*
Y764802D01*
X379743Y760565D02*
Y764802D01*
X379793Y760565D02*
Y764802D01*
X379843Y760565D02*
Y764802D01*
X379893Y760565D02*
Y764802D01*
X379943Y760565D02*
Y764802D01*
X379993Y760565D02*
Y764802D01*
X380043Y760565D02*
Y764802D01*
X380093Y760565D02*
Y764802D01*
X380143Y760565D02*
Y764802D01*
X380193Y760565D02*
Y764802D01*
X380243Y760565D02*
Y764802D01*
X380293Y760565D02*
Y764802D01*
X380343Y760565D02*
Y764802D01*
X380393Y760565D02*
Y764802D01*
X380443Y760565D02*
Y764802D01*
X380493Y760565D02*
Y764802D01*
X380543Y760565D02*
Y764802D01*
X380593Y760565D02*
Y764802D01*
X380643Y760565D02*
Y764802D01*
X380693Y760565D02*
Y764802D01*
X380743Y760565D02*
Y764802D01*
X380793Y760565D02*
Y764802D01*
X380843Y760565D02*
Y764802D01*
X380893Y760565D02*
Y764802D01*
X380943Y760567D02*
Y764799D01*
X380993Y760585D02*
Y764781D01*
X381043Y760628D02*
Y764739D01*
X381093Y760678D02*
Y764689D01*
X381143Y760728D02*
Y764639D01*
X381193Y760778D02*
Y764589D01*
X381243Y760828D02*
Y764539D01*
X381293Y760878D02*
Y764489D01*
X381343Y760928D02*
Y764439D01*
X381393Y760978D02*
Y764389D01*
X381443Y761038D02*
Y764329D01*
G54D177*
X212843Y518871D03*
Y512178D03*
X190843Y208280D03*
Y201587D03*
X190593Y277280D03*
Y270587D03*
X205343Y518871D03*
Y512178D03*
X405343Y361780D03*
Y355087D03*
X345593Y597280D03*
Y590587D03*
X421843Y597030D03*
Y590337D03*
X298093Y758087D03*
Y764780D03*
X363093Y758087D03*
Y764780D03*
X270343Y445587D03*
Y452280D03*
X261843Y459337D03*
Y466030D03*
X263343Y690087D03*
Y696780D03*
X282343Y686587D03*
Y693280D03*
X330343Y247087D03*
Y253780D03*
X198843Y825587D03*
Y832280D03*
X183343D03*
Y825587D03*
X351843Y314337D03*
Y321030D03*
X359343Y314337D03*
Y321030D03*
X366843Y314337D03*
Y321030D03*
X374343Y314337D03*
Y321030D03*
X381843Y314337D03*
Y321030D03*
X254343Y201337D03*
Y208030D03*
X308000Y334154D03*
Y340846D03*
X242843Y787087D03*
Y793780D03*
X318343Y589087D03*
Y595780D03*
X293343Y524087D03*
Y530780D03*
X377843Y559587D03*
Y566280D03*
X394343Y589087D03*
Y595780D03*
X205593Y697371D03*
Y690678D03*
Y637371D03*
Y630678D03*
X205843Y459780D03*
Y453087D03*
X220843Y399280D03*
Y392587D03*
X168093Y825587D03*
Y832280D03*
X175593Y825587D03*
Y832280D03*
X191093Y825587D03*
Y832280D03*
X220593Y697371D03*
Y690678D03*
Y637371D03*
Y630678D03*
X212843Y579780D03*
Y573087D03*
X220843Y459780D03*
Y453087D03*
X205843Y399280D03*
Y392587D03*
X205593Y339030D03*
Y332337D03*
Y759030D03*
Y752337D03*
X408093Y692280D03*
Y685587D03*
X415593Y692280D03*
Y685587D03*
X433093Y646837D03*
Y653530D03*
X465593Y368087D03*
Y374780D03*
X371593Y340280D03*
Y333587D03*
X466843Y505587D03*
Y512280D03*
X466343Y229587D03*
Y236280D03*
X350593Y204337D03*
Y211030D03*
X335593D03*
Y204337D03*
X235843Y539280D03*
Y532587D03*
X243343Y523780D03*
Y517087D03*
X253093Y878530D03*
Y871837D03*
X268093D03*
Y878530D03*
X199343Y851030D03*
Y844337D03*
X423093Y692280D03*
Y685587D03*
X346593Y568780D03*
Y562087D03*
X350593Y397280D03*
Y390587D03*
X411843Y561280D03*
Y554587D03*
X450343Y236780D03*
Y230087D03*
X261093Y852530D03*
Y845837D03*
X253593Y852530D03*
Y845837D03*
X268593Y852530D03*
Y845837D03*
X276093Y852530D03*
Y845837D03*
X213093Y697371D03*
Y690678D03*
Y637371D03*
Y630678D03*
X205343Y579780D03*
Y573087D03*
X213343Y459780D03*
Y453087D03*
Y399280D03*
Y392587D03*
Y338780D03*
Y332087D03*
Y758780D03*
Y752087D03*
X150593Y883530D03*
Y876837D03*
X389343Y390587D03*
Y397280D03*
X396843Y390587D03*
Y397280D03*
X404343Y390587D03*
Y397280D03*
X334843Y362087D03*
Y368780D03*
X293093Y539337D03*
Y546030D03*
X469843Y350587D03*
Y357280D03*
X462343Y350587D03*
Y357280D03*
X416843Y653530D03*
Y646837D03*
X424343Y653530D03*
Y646837D03*
X315500Y340846D03*
Y334154D03*
X290593Y758087D03*
Y764780D03*
X355593Y758087D03*
Y764780D03*
X261843Y201337D03*
Y208030D03*
X269343Y201337D03*
Y208030D03*
X379093Y333587D03*
Y340280D03*
X343093Y204337D03*
Y211030D03*
X358093D03*
Y204337D03*
X235843Y517087D03*
Y523780D03*
X243343Y532587D03*
Y539280D03*
X275593Y878530D03*
Y871837D03*
X260593D03*
Y878530D03*
X284343Y388587D03*
Y395280D03*
X276843Y388587D03*
Y395280D03*
X280843Y628337D03*
Y635030D03*
X273343Y628337D03*
Y635030D03*
X205593Y317337D03*
Y324030D03*
X239343Y208030D03*
Y201337D03*
X246843Y208030D03*
Y201337D03*
X358093Y390587D03*
Y397280D03*
X423093Y322837D03*
Y329530D03*
X415593Y322837D03*
Y329530D03*
X408093Y322837D03*
Y329530D03*
X400593Y322837D03*
Y329530D03*
X260000Y343846D03*
Y337154D03*
X442500Y677154D03*
Y683846D03*
X264500Y361846D03*
Y355154D03*
X256500D03*
Y361846D03*
X379000Y482654D03*
Y489346D03*
X323000Y334154D03*
Y340846D03*
X371500Y482654D03*
Y489346D03*
X364000Y482654D03*
Y489346D03*
X356500D03*
Y482654D03*
X349000D03*
Y489346D03*
X341500D03*
Y482654D03*
X198343Y208280D03*
Y201587D03*
X198093Y277280D03*
Y270587D03*
G54D178*
X150996Y509524D03*
X157689D03*
X150996Y519024D03*
X157689D03*
X197689Y504524D03*
X190996D03*
X151154Y210000D03*
X157846D03*
X151154Y200000D03*
X157846D03*
X150996Y279433D03*
X157689D03*
X150996Y269433D03*
X157689D03*
X205996Y208433D03*
X212689D03*
X205996Y277683D03*
X212689D03*
Y200933D03*
X205996D03*
X212689Y270183D03*
X205996D03*
X190996Y512024D03*
X197689D03*
X190996Y519524D03*
X197689D03*
X165189Y890183D03*
X158496D03*
X180189Y876433D03*
X173496D03*
X155996Y868933D03*
X162689D03*
X255189Y417433D03*
X248496D03*
X250189Y665183D03*
X243496D03*
X150996Y689024D03*
X157689D03*
X150996Y699024D03*
X157689D03*
X197689Y684024D03*
X190996D03*
X150996Y629024D03*
X157689D03*
X150996Y639024D03*
X157689D03*
X197689Y624024D03*
X190996D03*
X150996Y570024D03*
X157689D03*
X150996Y580024D03*
X157689D03*
X197689Y565024D03*
X190996D03*
X150996Y449524D03*
X157689D03*
X150996Y459524D03*
X157689D03*
X197689Y444433D03*
X190996D03*
X150996Y389524D03*
X157689D03*
X150996Y399524D03*
X157689D03*
X197689Y384433D03*
X190996D03*
X150996Y329524D03*
X157689D03*
X150996Y339524D03*
X157689D03*
X197689Y324433D03*
X190996D03*
X150996Y749433D03*
X157689D03*
X150996Y759433D03*
X157689D03*
X197689Y744433D03*
X190996D03*
X192496Y883933D03*
X199189D03*
X289496Y209933D03*
X296189D03*
X263189Y215933D03*
X256496D03*
X254189Y259433D03*
X247496D03*
X210189Y795433D03*
X203496D03*
X335189Y606433D03*
X328496D03*
X410189Y606183D03*
X403496D03*
X207246Y851433D03*
X213939D03*
X207246Y843933D03*
X213939D03*
X129746Y847683D03*
X136439D03*
X218439Y812933D03*
X211746D03*
X218439Y820433D03*
X211746D03*
X175996Y801433D03*
X182689D03*
X175996Y808933D03*
X182689D03*
X386996Y342433D03*
X393689D03*
X372689Y392683D03*
X365996D03*
X350439Y363933D03*
X343746D03*
X317689Y778933D03*
X310996D03*
X381439D03*
X374746D03*
X374496Y534433D03*
X381189D03*
X345996Y577933D03*
X352689D03*
X173496Y868933D03*
X180189D03*
X525939Y441433D03*
X519246D03*
X311846Y825000D03*
X305154D03*
X190996Y691524D03*
X197689D03*
X190996Y699024D03*
X197689D03*
X190996Y631524D03*
X197689D03*
X190996Y639024D03*
X197689D03*
X190996Y572524D03*
X197689D03*
X190996Y580024D03*
X197689D03*
X190996Y451933D03*
X197689D03*
X190996Y459433D03*
X197689D03*
X190996Y392024D03*
X197689D03*
X190996Y399524D03*
X197689D03*
X190996Y331933D03*
X197689D03*
X190996Y339433D03*
X197689D03*
X190996Y751933D03*
X197689D03*
X190996Y759433D03*
X197689D03*
X253189Y434433D03*
X246496D03*
X324996Y552933D03*
X331689D03*
X309496D03*
X316189D03*
X250189Y672683D03*
X243496D03*
X247654Y272500D03*
X254346D03*
X373496Y696433D03*
X380189D03*
X388496Y703933D03*
X395189D03*
X276996Y380433D03*
X283689D03*
X273746Y620433D03*
X280439D03*
X332246Y779183D03*
X338939D03*
X332246Y771683D03*
X338939D03*
X395996Y778933D03*
X402689D03*
X395996Y771433D03*
X402689D03*
X350689Y614433D03*
X343996D03*
X333939Y804933D03*
X327246D03*
X333939Y797683D03*
X327246D03*
X218439Y805433D03*
X211746D03*
X358496Y455933D03*
X365189D03*
X218439Y827933D03*
X211746D03*
X182689Y816433D03*
X175996D03*
X182689Y793933D03*
X175996D03*
X374496Y542433D03*
X381189D03*
X347689Y552933D03*
X340996D03*
X350439Y371433D03*
X343746D03*
Y378933D03*
X350439D03*
X316689Y464933D03*
X309996D03*
X316189Y304933D03*
X309496D03*
X343746Y348933D03*
X350439D03*
X525939Y457683D03*
X519246D03*
X525939Y450183D03*
X519246D03*
X228496Y690274D03*
X235189D03*
X228496Y697774D03*
X235189D03*
X228496Y637433D03*
X235189D03*
X228496Y629933D03*
X235189D03*
X228496Y452933D03*
X235189D03*
X228496Y460433D03*
X235189D03*
X228496Y399433D03*
X235189D03*
X228496Y391933D03*
X235189D03*
X362689Y772683D03*
X355996D03*
X155996Y861433D03*
X162689D03*
X395189Y696433D03*
X388496D03*
X380189Y703933D03*
X373496D03*
X255189Y409933D03*
X248496D03*
X250189Y650183D03*
X243496D03*
X207996Y557524D03*
X214689D03*
X190996Y676524D03*
X197689D03*
X190996Y616524D03*
X197689D03*
X190996Y557524D03*
X197689D03*
X190996Y497024D03*
X197689D03*
X190996Y436933D03*
X197689D03*
X190996Y377024D03*
X197689D03*
X190996Y316933D03*
X197689D03*
X190996Y736933D03*
X197689D03*
X425996Y854933D03*
X432689D03*
X297689Y772683D03*
X290996D03*
X350439Y356433D03*
X343746D03*
X297689Y750183D03*
X290996D03*
X362689D03*
X355996D03*
X311846Y832500D03*
X305154D03*
X255189Y424933D03*
X248496D03*
X250189Y657683D03*
X243496D03*
G54D180*
X358843Y881933D03*
X286843Y848433D03*
X431843Y235500D03*
G54D181*
X358843Y871933D03*
X296843Y848433D03*
X306843D03*
X316843D03*
X326843D03*
X336843D03*
X346843D03*
X286843Y858433D03*
X296843D03*
X306843D03*
X316843D03*
X326843D03*
X336843D03*
X346843D03*
X421843Y235500D03*
X411843D03*
X401843D03*
X391843D03*
X381843D03*
X371843D03*
X431843Y225500D03*
X421843D03*
X411843D03*
X401843D03*
X391843D03*
X381843D03*
X371843D03*
G54D212*
X129343Y209524D03*
X119343Y199524D03*
Y219524D03*
X139343D03*
Y199524D03*
X129343Y689524D03*
X119343Y679524D03*
Y699524D03*
X139343D03*
Y679524D03*
X129343Y749524D03*
X119343Y739524D03*
Y759524D03*
X139343D03*
Y739524D03*
X129343Y269524D03*
X119343Y259524D03*
Y279524D03*
X139343D03*
Y259524D03*
X129343Y809524D03*
X119343Y799524D03*
Y819524D03*
X139343D03*
Y799524D03*
X129343Y869524D03*
X119343Y859524D03*
Y879524D03*
X139343D03*
Y859524D03*
X129343Y329524D03*
X119343Y319524D03*
Y339524D03*
X139343D03*
Y319524D03*
X129343Y389524D03*
X119343Y379524D03*
Y399524D03*
X139343D03*
Y379524D03*
X129343Y449524D03*
X119343Y439524D03*
Y459524D03*
X139343D03*
Y439524D03*
X129343Y509524D03*
X119343Y499524D03*
Y519524D03*
X139343D03*
Y499524D03*
X129343Y569524D03*
X119343Y559524D03*
Y579524D03*
X139343D03*
Y559524D03*
X129343Y629524D03*
X119343Y619524D03*
Y639524D03*
X139343D03*
Y619524D03*
G54D284*
X497000Y198500D03*
Y446492D03*
Y474051D03*
Y722122D03*
X234500Y321000D03*
X254500Y756000D03*
X259000Y593000D03*
G54D285*
X517374Y225031D03*
X512374D03*
X497374D03*
X492374D03*
X517374Y230031D03*
X512374D03*
X497374D03*
X492374D03*
X517374Y235031D03*
X512374D03*
X497374D03*
X492374D03*
X517374Y240031D03*
X512374D03*
X497374D03*
X492374D03*
X517374Y245031D03*
X512374D03*
X497374D03*
X492374D03*
X517374Y250031D03*
X512374D03*
X497374D03*
X492374D03*
X517374Y255031D03*
X512374D03*
X497374D03*
X492374D03*
X517374Y260031D03*
X512374D03*
X497374D03*
X492374D03*
X517374Y265031D03*
X512374D03*
X497374D03*
X492374D03*
X517374Y270031D03*
X512374D03*
X497374D03*
X492374D03*
X517374Y275031D03*
X512374D03*
X497374D03*
X492374D03*
X517374Y280031D03*
X512374D03*
X497374D03*
X492374D03*
X517374Y285031D03*
X512374D03*
X497374D03*
X492374D03*
X517374Y290031D03*
X512374D03*
X497374D03*
X492374D03*
X517374Y295031D03*
X512374D03*
X497374D03*
X492374D03*
X517374Y300031D03*
X512374D03*
X497374D03*
X492374D03*
X517374Y305031D03*
X512374D03*
X497374D03*
X492374D03*
X517374Y310031D03*
X512374D03*
X497374D03*
X492374D03*
X517374Y315031D03*
X512374D03*
X497374D03*
X492374D03*
X517374Y320031D03*
X512374D03*
X497374D03*
X492374D03*
X517374Y325031D03*
X512374D03*
X497374D03*
X492374D03*
X517374Y330031D03*
X512374D03*
X497374D03*
X492374D03*
X517374Y335031D03*
X512374D03*
X497374D03*
X492374D03*
X517374Y340031D03*
X512374D03*
X497374D03*
X492374D03*
X517374Y345031D03*
X512374D03*
X497374D03*
X492374D03*
X517374Y350031D03*
X512374D03*
X497374D03*
X492374D03*
X517374Y355031D03*
X512374D03*
X497374D03*
X492374D03*
X517374Y360031D03*
X512374D03*
X497374D03*
X492374D03*
X517374Y365031D03*
X512374D03*
X497374D03*
X492374D03*
X517374Y370031D03*
X512374D03*
X497374D03*
X492374D03*
X517374Y375031D03*
X512374D03*
X497374D03*
X492374D03*
X517374Y380031D03*
X512374D03*
X497374D03*
X492374D03*
X517374Y385031D03*
X512374D03*
X497374D03*
X492374D03*
X517374Y390031D03*
X512374D03*
X497374D03*
X492374D03*
X517374Y395031D03*
X512374D03*
X497374D03*
X492374D03*
X517374Y400031D03*
X512374D03*
X497374D03*
X492374D03*
X517374Y405031D03*
X512374D03*
X497374D03*
X492374D03*
X517374Y410031D03*
X512374D03*
X497374D03*
X492374D03*
X517374Y415031D03*
X512374D03*
X497374D03*
X492374D03*
X517374Y420031D03*
X512374D03*
X497374D03*
X492374D03*
X517374Y500622D03*
X512374D03*
X497374D03*
X492374D03*
X517374Y505622D03*
X512374D03*
X497374D03*
X492374D03*
X517374Y510622D03*
X512374D03*
X497374D03*
X492374D03*
X517374Y515622D03*
X512374D03*
X497374D03*
X492374D03*
X517374Y520622D03*
X512374D03*
X497374D03*
X492374D03*
X517374Y525622D03*
X512374D03*
X497374D03*
X492374D03*
X517374Y530622D03*
X512374D03*
X497374D03*
X492374D03*
X517374Y535622D03*
X512374D03*
X497374D03*
X492374D03*
X517374Y540622D03*
X512374D03*
X497374D03*
X492374D03*
X517374Y545622D03*
X512374D03*
X497374D03*
X492374D03*
X517374Y550622D03*
X512374D03*
X497374D03*
X492374D03*
X517374Y555622D03*
X512374D03*
X497374D03*
X492374D03*
X517374Y560622D03*
X512374D03*
X497374D03*
X492374D03*
X517374Y565622D03*
X512374D03*
X497374D03*
X492374D03*
X517374Y570622D03*
X512374D03*
X497374D03*
X492374D03*
X517374Y575622D03*
X512374D03*
X497374D03*
X492374D03*
X517374Y580622D03*
X512374D03*
X497374D03*
X492374D03*
X517374Y585622D03*
X512374D03*
X497374D03*
X492374D03*
X517374Y590622D03*
X512374D03*
X497374D03*
X492374D03*
X517374Y595622D03*
X512374D03*
X497374D03*
X492374D03*
X517374Y600622D03*
X512374D03*
X497374D03*
X492374D03*
X517374Y605622D03*
X512374D03*
X497374D03*
X492374D03*
X517374Y610622D03*
X512374D03*
X497374D03*
X492374D03*
X517374Y615622D03*
X512374D03*
X497374D03*
X492374D03*
X517374Y620622D03*
X512374D03*
X497374D03*
X492374D03*
X517374Y625622D03*
X512374D03*
X497374D03*
X492374D03*
X517374Y630622D03*
X512374D03*
X497374D03*
X492374D03*
X517374Y635622D03*
X512374D03*
X497374D03*
X492374D03*
X517374Y640622D03*
X512374D03*
X497374D03*
X492374D03*
X517374Y645622D03*
X512374D03*
X497374D03*
X492374D03*
X517374Y650622D03*
X512374D03*
X497374D03*
X492374D03*
X517374Y655622D03*
X512374D03*
X497374D03*
X492374D03*
X517374Y660622D03*
X512374D03*
X497374D03*
X492374D03*
X517374Y665622D03*
X512374D03*
X497374D03*
X492374D03*
X517374Y670622D03*
X512374D03*
X497374D03*
X492374D03*
X517374Y675622D03*
X512374D03*
X497374D03*
X492374D03*
X517374Y680622D03*
X512374D03*
X497374D03*
X492374D03*
X517374Y685622D03*
X512374D03*
X497374D03*
X492374D03*
X517374Y690622D03*
X512374D03*
X497374D03*
X492374D03*
X517374Y695622D03*
X512374D03*
X497374D03*
X492374D03*
X335500Y328000D03*
X262000Y474000D03*
Y417500D03*
X265500Y482500D03*
X297000Y376000D03*
Y380000D03*
Y384000D03*
X269500Y272500D03*
X368000Y403500D03*
X301000Y341000D03*
X384500Y403500D03*
X379000D03*
X471000Y380500D03*
X254000Y541500D03*
X373500Y403500D03*
X421000Y354000D03*
X266000Y338500D03*
X421000Y359000D03*
X531000Y457500D03*
Y450500D03*
X442500Y661500D03*
Y666500D03*
X377000Y528500D03*
X241500Y342500D03*
X417000Y585500D03*
X264000Y570500D03*
G54D286*
X504874Y215449D03*
X492866Y429543D03*
X504874Y491039D03*
X492866Y705134D03*
G54D287*
X267110Y226748D03*
X269079D03*
X271047D03*
X273016D03*
X274984D03*
X276953D03*
X278921D03*
X280890D03*
X282858D03*
X284827D03*
X286795D03*
X288764D03*
X290732D03*
X292701D03*
X294669D03*
X296638D03*
X298606D03*
X300575D03*
Y266118D03*
X298606D03*
X296638D03*
X294669D03*
X292701D03*
X290732D03*
X288764D03*
X286795D03*
X284827D03*
X282858D03*
X280890D03*
X278921D03*
X276953D03*
X274984D03*
X273016D03*
X271047D03*
X269079D03*
X267110D03*
G54D288*
X303528Y229701D03*
Y231669D03*
Y233638D03*
Y235606D03*
Y237575D03*
Y239543D03*
Y241512D03*
Y243480D03*
Y245449D03*
Y247417D03*
Y249386D03*
Y251354D03*
Y253323D03*
Y255291D03*
Y257260D03*
Y259228D03*
Y261197D03*
Y263165D03*
X264157D03*
Y261197D03*
Y259228D03*
Y257260D03*
Y255291D03*
Y253323D03*
Y251354D03*
Y249386D03*
Y247417D03*
Y245449D03*
Y243480D03*
Y241512D03*
Y239543D03*
Y237575D03*
Y235606D03*
Y233638D03*
Y231669D03*
Y229701D03*
G54D289*
X283843Y246433D03*
G54D290*
X260169Y829819D03*
X258201D03*
X256232D03*
X254264D03*
X252295D03*
X250327D03*
X248358D03*
X246390D03*
X244421D03*
X242453D03*
X240484D03*
X238516D03*
Y803047D03*
X240484D03*
X242453D03*
X244421D03*
X246390D03*
X248358D03*
X250327D03*
X252295D03*
X254264D03*
X256232D03*
X258201D03*
X260169D03*
X273016Y408047D03*
X274984D03*
X276953D03*
X278921D03*
X280890D03*
X282858D03*
X284827D03*
X286795D03*
X288764D03*
X290732D03*
X292701D03*
X294669D03*
Y434819D03*
X292701D03*
X290732D03*
X288764D03*
X286795D03*
X284827D03*
X282858D03*
X280890D03*
X278921D03*
X276953D03*
X274984D03*
X273016D03*
X268016Y648047D03*
X269985D03*
X271953D03*
X273922D03*
X275890D03*
X277859D03*
X279827D03*
X281796D03*
X283764D03*
X285733D03*
X287701D03*
X289670D03*
Y674819D03*
X287701D03*
X285733D03*
X283764D03*
X281796D03*
X279827D03*
X277859D03*
X275890D03*
X273922D03*
X271953D03*
X269985D03*
X268016D03*
G54D291*
X235957Y827260D03*
Y825291D03*
Y823323D03*
Y821354D03*
Y819386D03*
Y817417D03*
Y815449D03*
Y813480D03*
Y811512D03*
Y809543D03*
Y807575D03*
Y805606D03*
X262728D03*
Y807575D03*
Y809543D03*
Y811512D03*
Y813480D03*
Y815449D03*
Y817417D03*
Y819386D03*
Y821354D03*
Y823323D03*
Y825291D03*
Y827260D03*
X297228Y410606D03*
Y412575D03*
Y414543D03*
Y416512D03*
Y418480D03*
Y420449D03*
Y422417D03*
Y424386D03*
Y426354D03*
Y428323D03*
Y430291D03*
Y432260D03*
X270457D03*
Y430291D03*
Y428323D03*
Y426354D03*
Y424386D03*
Y422417D03*
Y420449D03*
Y418480D03*
Y416512D03*
Y414543D03*
Y412575D03*
Y410606D03*
X292229Y650606D03*
Y652575D03*
Y654543D03*
Y656512D03*
Y658480D03*
Y660449D03*
Y662417D03*
Y664386D03*
Y666354D03*
Y668323D03*
Y670291D03*
Y672260D03*
X265457D03*
Y670291D03*
Y668323D03*
Y666354D03*
Y664386D03*
Y662417D03*
Y660449D03*
Y658480D03*
Y656512D03*
Y654543D03*
Y652575D03*
Y650606D03*
G54D292*
X249343Y816433D03*
G54D293*
X304628Y536157D03*
Y531433D03*
Y526709D03*
X321557D03*
Y531433D03*
Y536157D03*
G54D294*
X313093Y522969D03*
G54D295*
Y538323D03*
G54D296*
X180593Y209933D03*
Y204933D03*
Y199933D03*
X168093D03*
Y204933D03*
Y209933D03*
X180593Y279433D03*
Y274433D03*
Y269433D03*
X168093D03*
Y274433D03*
Y279433D03*
X180593Y519524D03*
Y514524D03*
Y509524D03*
X168093D03*
Y514524D03*
Y519524D03*
X176843Y842683D03*
Y847683D03*
Y852683D03*
X189343D03*
Y847683D03*
Y842683D03*
X153093Y800183D03*
Y805183D03*
Y810183D03*
X165593D03*
Y805183D03*
Y800183D03*
X180593Y699024D03*
Y694024D03*
Y689024D03*
X168093D03*
Y694024D03*
Y699024D03*
X180593Y639024D03*
Y634024D03*
Y629024D03*
X168093D03*
Y634024D03*
Y639024D03*
X180593Y580024D03*
Y575024D03*
Y570024D03*
X168093D03*
Y575024D03*
Y580024D03*
X180593Y459524D03*
Y454524D03*
Y449524D03*
X168093D03*
Y454524D03*
Y459524D03*
X180593Y399433D03*
Y394433D03*
Y389433D03*
X168093D03*
Y394433D03*
Y399433D03*
X180593Y339433D03*
Y334433D03*
Y329433D03*
X168093D03*
Y334433D03*
Y339433D03*
X180593Y759433D03*
Y754433D03*
Y749433D03*
X168093D03*
Y754433D03*
Y759433D03*
X153093Y842683D03*
Y847683D03*
Y852683D03*
X165593D03*
Y847683D03*
Y842683D03*
G54D297*
X404608Y866433D03*
X406577D03*
X402640D03*
X400671D03*
X398703D03*
X396734D03*
X394766D03*
X392797D03*
X390829D03*
X388860D03*
X386892D03*
X408545D03*
X410514D03*
X412482D03*
X414451D03*
X416419D03*
X418388D03*
X420356D03*
X422325D03*
G54D298*
X434136Y869976D03*
X377049D03*
X436498Y889465D03*
X374687D03*
G54D299*
X284593Y533723D03*
Y536283D03*
Y538843D03*
Y541403D03*
Y543963D03*
Y546523D03*
Y549083D03*
Y551643D03*
X261593D03*
Y549083D03*
Y546523D03*
Y543963D03*
Y541403D03*
Y538843D03*
Y536283D03*
Y533723D03*
X450843Y343723D03*
Y346283D03*
Y348843D03*
Y351403D03*
Y353963D03*
Y356523D03*
Y359083D03*
Y361643D03*
X427843D03*
Y359083D03*
Y356523D03*
Y353963D03*
Y351403D03*
Y348843D03*
Y346283D03*
Y343723D03*
G54D300*
X295063Y459857D03*
Y462417D03*
Y464976D03*
Y467535D03*
Y470094D03*
Y472654D03*
Y475213D03*
Y477772D03*
Y480331D03*
Y482890D03*
Y485449D03*
Y488009D03*
X272622D03*
Y485449D03*
Y482890D03*
Y480331D03*
Y477772D03*
Y475213D03*
Y472654D03*
Y470094D03*
Y467535D03*
Y464976D03*
Y462417D03*
Y459857D03*
X326563Y369857D03*
Y372417D03*
Y374976D03*
Y377535D03*
Y380094D03*
Y382654D03*
Y385213D03*
Y387772D03*
Y390331D03*
Y392890D03*
Y395449D03*
Y398009D03*
X304122D03*
Y395449D03*
Y392890D03*
Y390331D03*
Y387772D03*
Y385213D03*
Y382654D03*
Y380094D03*
Y377535D03*
Y374976D03*
Y372417D03*
Y369857D03*
X295063Y299857D03*
Y302417D03*
Y304976D03*
Y307535D03*
Y310094D03*
Y312654D03*
Y315213D03*
Y317772D03*
Y320331D03*
Y322890D03*
Y325449D03*
Y328009D03*
X272622D03*
Y325449D03*
Y322890D03*
Y320331D03*
Y317772D03*
Y315213D03*
Y312654D03*
Y310094D03*
Y307535D03*
Y304976D03*
Y302417D03*
Y299857D03*
G54D301*
X295843Y335933D03*
Y338492D03*
Y341051D03*
Y343610D03*
Y346169D03*
Y348728D03*
Y351287D03*
Y353846D03*
Y356406D03*
Y358965D03*
Y361524D03*
Y364083D03*
X272220Y363846D03*
Y361524D03*
Y358965D03*
Y356406D03*
Y353846D03*
Y351287D03*
Y348728D03*
Y346169D03*
Y343610D03*
Y341051D03*
Y338492D03*
Y335933D03*
G54D302*
X156852Y882742D03*
Y880183D03*
Y877624D03*
X164333D03*
Y880183D03*
Y882742D03*
G54D303*
X365335Y377041D03*
Y375073D03*
Y373104D03*
Y371136D03*
Y369167D03*
Y367199D03*
Y365230D03*
Y363262D03*
Y361293D03*
Y359325D03*
X389350D03*
Y361293D03*
Y363262D03*
Y365230D03*
Y367199D03*
Y369167D03*
Y371136D03*
Y373104D03*
Y375073D03*
Y377041D03*
G54D304*
X368484Y356175D03*
X370453D03*
X372421D03*
X374390D03*
X376358D03*
X378327D03*
X380295D03*
X382264D03*
X384232D03*
X386201D03*
Y380191D03*
X384232D03*
X382264D03*
X380295D03*
X378327D03*
X376358D03*
X374390D03*
X372421D03*
X370453D03*
X368484D03*
G54D305*
X377314Y368183D03*
G54D306*
X408093Y676433D03*
Y671433D03*
Y666433D03*
Y661433D03*
X433093D03*
Y666433D03*
Y671433D03*
Y676433D03*
G54D307*
X246843Y840733D03*
Y845133D03*
X227343Y825733D03*
Y830133D03*
X227843Y811633D03*
Y807233D03*
X236343Y795133D03*
Y790733D03*
X270343Y396133D03*
Y391733D03*
X290843Y396133D03*
Y391733D03*
X267000Y633700D03*
Y629300D03*
X287343Y634633D03*
Y630233D03*
X318143Y246933D03*
X322543D03*
X283543Y276433D03*
X279143D03*
X275843Y217633D03*
Y213233D03*
X254543Y231933D03*
X250143D03*
X251800Y266000D03*
X256200D03*
X362343Y232733D03*
Y237133D03*
X378043Y347933D03*
X373643D03*
X387343Y330233D03*
Y334633D03*
X280843Y217633D03*
Y213233D03*
X276543Y291433D03*
X272143D03*
X306643Y362933D03*
X311043D03*
X310043Y458433D03*
X305643D03*
X317143Y362933D03*
X321543D03*
X309543Y298933D03*
X305143D03*
X279643Y527433D03*
X284043D03*
X261143Y527933D03*
X265543D03*
X450543Y337933D03*
X446143D03*
X531343Y469733D03*
Y474133D03*
X269643Y814933D03*
X274043D03*
X270893Y801433D03*
X275293D03*
X251343Y795133D03*
Y790733D03*
X272143Y822683D03*
X276543D03*
X367043Y549933D03*
X362643D03*
X331293Y811433D03*
X326893D03*
X276843Y443733D03*
Y448133D03*
X254043Y440933D03*
X249643D03*
X251543Y403433D03*
X247143D03*
X270843Y687233D03*
Y691633D03*
X249543Y678933D03*
X245143D03*
X249043Y643933D03*
X244643D03*
G54D308*
X293500Y593780D03*
Y566220D03*
X336843Y512654D03*
Y540213D03*
X356843Y512654D03*
Y540213D03*
X397843Y514654D03*
Y542213D03*
G54D309*
X371343Y301610D03*
Y286256D03*
X366343Y301610D03*
Y286256D03*
X361343Y301610D03*
Y286256D03*
X356343Y301610D03*
Y286256D03*
X351343Y301610D03*
Y286256D03*
X346343Y301610D03*
Y286256D03*
X341343Y301610D03*
Y286256D03*
X336343Y301610D03*
Y286256D03*
X331343Y301610D03*
Y286256D03*
X326343Y301610D03*
Y286256D03*
X426343Y301610D03*
Y286256D03*
X421343Y301610D03*
Y286256D03*
X416343Y301610D03*
Y286256D03*
X411343Y301610D03*
Y286256D03*
X406343Y301610D03*
Y286256D03*
X401343Y301610D03*
Y286256D03*
X396343Y301610D03*
Y286256D03*
X391343Y301610D03*
Y286256D03*
X386343Y301610D03*
Y286256D03*
X381343Y301610D03*
Y286256D03*
G54D311*
X466243Y214683D03*
Y222183D03*
X328443Y459683D03*
Y452183D03*
X359093Y570283D03*
X366593D03*
X309093Y816333D03*
X316593D03*
G54D312*
X458243Y218433D03*
X336443Y455933D03*
G54D313*
X290494Y728933D03*
X315691D03*
X358494Y729433D03*
X383691D03*
G54D314*
X343093Y390783D03*
Y397083D03*
X458343Y236583D03*
Y230283D03*
X419343Y561083D03*
Y554783D03*
G54D315*
X350493Y455933D03*
X344193D03*
X358693Y614433D03*
X364993D03*
X341193Y797683D03*
X347493D03*
G54D316*
X307500Y355780D03*
X317185D03*
Y349087D03*
X307500D03*
G54D317*
X322118Y758844D03*
Y761404D03*
Y763963D03*
Y766522D03*
X306567D03*
Y763963D03*
Y761404D03*
Y758844D03*
X387118D03*
Y761404D03*
Y763963D03*
Y766522D03*
X371567D03*
Y763963D03*
Y761404D03*
Y758844D03*
G54D318*
X318181Y770459D03*
X315622D03*
X313063D03*
X310504D03*
Y754907D03*
X313063D03*
X315622D03*
X318181D03*
X383181Y770459D03*
X380622D03*
X378063D03*
X375504D03*
Y754907D03*
X378063D03*
X380622D03*
X383181D03*
G54D319*
X314371Y762683D03*
X379371D03*
G54D320*
X222343Y784937D03*
X233093Y844179D03*
X332593Y560929D03*
X312593D03*
X331343Y733437D03*
X263843Y793437D03*
X416843Y579937D03*
X377000Y523004D03*
G54D321*
X228150Y778933D03*
X216535D03*
X227285Y850183D03*
X238900D03*
X326785Y566933D03*
X338400D03*
X306785D03*
X318400D03*
X337150Y727433D03*
X325535D03*
X269650Y787433D03*
X258035D03*
X422650Y573933D03*
X411035D03*
X382807Y517000D03*
X371193D03*
G54D322*
X524915Y468715D03*
Y470683D03*
Y472652D03*
X515270D03*
Y470683D03*
Y468715D03*
G54D323*
X516156Y465860D03*
X518124D03*
X520093D03*
X522061D03*
X524030D03*
Y475506D03*
X522061D03*
X520093D03*
X518124D03*
X516156D03*
G54D324*
X412354Y587762D03*
Y589730D03*
Y591699D03*
Y593667D03*
Y595636D03*
Y597604D03*
X401331D03*
Y595636D03*
Y593667D03*
Y591699D03*
Y589730D03*
Y587762D03*
X337354D03*
Y589730D03*
Y591699D03*
Y593667D03*
Y595636D03*
Y597604D03*
X326331D03*
Y595636D03*
Y593667D03*
Y591699D03*
Y589730D03*
Y587762D03*
G54D325*
X403693Y598982D02*
X409992D01*
Y586384*
X403693*
Y598982*
Y586545D02*
X409992D01*
X403693Y587339D02*
X409992D01*
X403693Y588132D02*
X409992D01*
X403693Y588926D02*
X409992D01*
X403693Y589720D02*
X409992D01*
X403693Y590513D02*
X409992D01*
X403693Y591307D02*
X409992D01*
X403693Y592101D02*
X409992D01*
X403693Y592894D02*
X409992D01*
X403693Y593688D02*
X409992D01*
X403693Y594482D02*
X409992D01*
X403693Y595276D02*
X409992D01*
X403693Y596069D02*
X409992D01*
X403693Y596863D02*
X409992D01*
X403693Y597657D02*
X409992D01*
X403693Y598450D02*
X409992D01*
X403994Y586384D02*
Y598982D01*
X404787Y586384D02*
Y598982D01*
X405581Y586384D02*
Y598982D01*
X406375Y586384D02*
Y598982D01*
X407169Y586384D02*
Y598982D01*
X407962Y586384D02*
Y598982D01*
X408756Y586384D02*
Y598982D01*
X409550Y586384D02*
Y598982D01*
X328693D02*
X334992D01*
Y586384*
X328693*
Y598982*
Y586545D02*
X334992D01*
X328693Y587339D02*
X334992D01*
X328693Y588132D02*
X334992D01*
X328693Y588926D02*
X334992D01*
X328693Y589720D02*
X334992D01*
X328693Y590513D02*
X334992D01*
X328693Y591307D02*
X334992D01*
X328693Y592101D02*
X334992D01*
X328693Y592894D02*
X334992D01*
X328693Y593688D02*
X334992D01*
X328693Y594482D02*
X334992D01*
X328693Y595276D02*
X334992D01*
X328693Y596069D02*
X334992D01*
X328693Y596863D02*
X334992D01*
X328693Y597657D02*
X334992D01*
X328693Y598450D02*
X334992D01*
X329386Y586384D02*
Y598982D01*
X330180Y586384D02*
Y598982D01*
X330973Y586384D02*
Y598982D01*
X331767Y586384D02*
Y598982D01*
X332561Y586384D02*
Y598982D01*
X333354Y586384D02*
Y598982D01*
X334148Y586384D02*
Y598982D01*
X334942Y586384D02*
Y598982D01*
G54D326*
X362843Y578283D03*
X312843Y808333D03*
G54D327*
X304293Y787933D03*
X317893D03*
X346143Y761433D03*
X332543D03*
X346143Y750183D03*
X332543D03*
X411143Y761433D03*
X397543D03*
X411143Y750183D03*
X397543D03*
X304293Y798433D03*
X317893D03*
X288293Y509433D03*
X301893D03*
G54D328*
X309343Y582133D03*
Y595733D03*
X279843Y763233D03*
Y749633D03*
X346843Y716133D03*
Y729733D03*
X354843Y600733D03*
Y587133D03*
X387343Y555633D03*
Y569233D03*
X385343Y582133D03*
Y595733D03*
G54D329*
X375748Y606433D03*
X383937D03*
X300248D03*
X308437D03*
X312248Y509433D03*
X320437D03*
X339687Y787933D03*
X331498D03*
X374687Y787683D03*
X366498D03*
G54D330*
X159093Y833528D03*
Y825339D03*
X397843Y569028D03*
Y560839D03*
X364843Y587339D03*
Y595528D03*
G54D331*
X359921Y562673D03*
Y558933D03*
Y555193D03*
X369764D03*
Y558933D03*
Y562673D03*
X340421Y333260D03*
Y337000D03*
Y340740D03*
X330579D03*
Y337000D03*
Y333260D03*
X279421Y562760D03*
Y566500D03*
Y570240D03*
X269579D03*
Y566500D03*
Y562760D03*
G54D332*
X283843Y421433D03*
X278843Y661433D03*
G54D333*
X326743Y816183D03*
X331943D03*
X329343Y824183D03*
G54D341*
X277004Y729000D03*
G54D342*
X271000Y723193D03*
Y734807D03*
X0Y0D02*
M02*
